<?xml version="1.0" standalone="no"?>
<!DOCTYPE svg PUBLIC "-//W3C//DTD SVG 1.1//EN" "http://www.w3.org/Graphics/SVG/1.1/DTD/svg11.dtd" >
<svg xmlns="http://www.w3.org/2000/svg" xmlns:xlink="http://www.w3.org/1999/xlink" version="1.1">
<metadata></metadata>
<defs>
<font id="crazy_thoughtsregular" horiz-adv-x="2717" >
<font-face units-per-em="2048" ascent="1638" descent="-410" />
<missing-glyph horiz-adv-x="508" />
<glyph unicode="&#xd;" horiz-adv-x="508" />
<glyph horiz-adv-x="0" />
<glyph horiz-adv-x="0" />
<glyph unicode=" "  horiz-adv-x="508" />
<glyph unicode="&#x09;" horiz-adv-x="508" />
<glyph unicode="&#xa0;" horiz-adv-x="508" />
<glyph unicode="!" d="M25 184l18 9q24 0 37 -110h9q18 110 45 110q21 0 46 -101h10q6 101 36 101h27q16 0 37 -101h9q13 101 37 101h9q23 0 36 -101h9q18 101 37 101h27q28 0 36 -101q11 0 46 101h9q26 0 46 -101h10q9 101 36 101h9v-19q-24 -146 -55 -146q-23 0 -36 100h-19 q-13 -100 -36 -100q-27 0 -55 137h-9q-21 -137 -46 -137q-30 0 -45 110h-9q-19 -110 -46 -110q-28 0 -46 128q-12 0 -54 -128h-10q-20 0 -46 100h-9q-13 -100 -36 -100h-9q-18 0 -55 156zM655 47l18 9l10 -19l-19 -9zM701 174q3 19 18 19h101q18 -3 18 -19q0 -18 -55 -18 v-109q0 -19 -19 -19q-17 0 -17 19v109q-46 0 -46 18zM810 37q57 156 73 156q24 0 83 -156l-19 -9q-25 0 -27 46h-64q-7 -46 -27 -46zM865 777q21 174 101 174q-9 107 -9 155v82q0 381 191 484q58 27 210 36q82 0 165 -137q73 -51 73 -109v-28q0 -35 -46 -82v-64 q46 -6 46 -27q-55 -9 -55 -92v-81h-18v63q-34 -27 -64 -27h-19q-13 0 -27 27q0 9 9 9q-9 37 -9 65l-18 -10v19q27 65 82 82l55 -19v28l-64 9q-31 0 -64 -28l-9 19q45 24 45 37h-18l-45 -10l-46 10q-10 0 -28 -10q-36 10 -63 10q-12 0 -92 -10q0 10 -9 10l-9 -19l18 -9 l-9 -18v-19q69 19 82 19q82 -29 82 -91l-18 9v-46l9 -46l-27 -18h-27q-83 0 -83 101h-9v-37q0 -210 110 -210q0 -16 100 -37q156 53 156 128h18q0 -17 -27 -73q-10 -145 -10 -173q192 -39 192 -110q9 -15 9 -46v-155q0 -73 9 -191q-18 -42 -36 -46h-9v9l18 27v210 q-21 0 -36 9q0 -182 -247 -182v18q117 18 137 18v9q-446 74 -548 74q0 -48 -27 -55h-10v9l19 37q-35 0 -55 18v-9q0 -14 27 -110q-52 0 -73 420zM875 101h26v9q-9 18 -9 28q-17 -3 -17 -19v-18zM883 768q46 0 46 -36h18q3 45 28 45q-9 18 -9 27h-9q-24 -27 -74 -27v-9z M892 604q3 -19 19 -19l27 36l-18 10q0 -27 -28 -27zM892 631q24 18 46 18v28l-9 18l-18 -9h-10v27h-9v-82zM892 804h9v46h-9v-46zM929 905h9q19 0 19 18v9q-14 0 -28 -27zM938 476h9q19 0 19 18h-9q-19 -3 -19 -18zM938 695h9q19 0 19 18l-19 9l-9 -18v-9zM947 174 q3 19 19 19h228q18 -3 18 -19q0 -18 -46 -18v-109q0 -19 -18 -19t-18 19v109q-46 0 -46 9q-13 -9 -55 -9v-109q0 -19 -17 -19q-19 0 -19 19v109q-46 0 -46 18zM957 667h27q0 19 -18 19zM975 539q18 0 63 -27h10v9q-19 0 -64 28h-9v-10zM984 494l155 -27v9q-16 48 -73 82v-9 q12 0 46 -46v-9q-69 64 -92 64h-8v-9q42 0 82 -55h-10q-9 0 -9 9l-18 -9l-45 9h-28v-9zM984 941q20 -46 73 -64v9q-14 55 -64 55h-9zM993 741h9l10 45v9h-10l-9 -37v-17zM1002 585q14 0 36 -18v9q-9 18 -9 28q-17 -9 -27 -9v-10zM1020 732l28 -19h18l-9 45v37h18l-9 64 l-46 -36l9 -46zM1038 604q10 0 28 -9v36h-28v-27zM1103 1225q18 0 18 18t-18 18v-36zM1157 1261l9 -46h9v46h-18zM1157 1325v18q15 0 110 9q42 -17 45 -36v-10h-9l-45 28q-81 -9 -101 -9zM1175 741q0 -131 174 -183v82q19 -3 19 -19v-63h72q101 0 101 100q9 34 9 83h-9 q-98 -83 -137 -83v9l-18 -9l-28 19q0 -19 -18 -19q0 14 -28 28l-27 -19q-36 24 -36 37l-18 -9l-10 18q10 0 10 9q-28 0 -28 19q9 0 9 8h-18zM1175 804h28v-9l-9 -18h27l-9 18q9 0 9 9q-9 0 -27 10h-19v-10zM1175 859q0 -20 110 -45q0 -11 55 -46q69 18 82 18l-9 -18 q36 5 36 27h19q89 -27 100 -27v18q-10 0 -100 18h-82v19h73v9q-64 13 -64 100l-18 -9h-19q-51 0 -137 46q-9 -63 -9 -83q68 -33 73 -54v-9q-73 54 -110 54v-18zM1203 1179q9 -37 55 -37l9 46l-18 9q-16 -9 -37 -9q0 9 -9 9v-18zM1212 110q12 83 82 83q83 -13 83 -83 q0 -68 -74 -91q-91 12 -91 91zM1231 1252q2 -18 18 -18l9 18h-27zM1249 83q0 -13 27 -27h36q14 0 28 27v45q0 15 -37 37h-18q-14 0 -36 -37v-45zM1249 804q14 0 36 -18v9l-27 19h-9v-10zM1303 1023v9h9l19 -9q16 9 37 9q12 0 27 -26q0 -14 -27 -28h-28q-13 1 -37 45z M1322 841v9l18 -9q13 36 28 36h9q-19 -54 -37 -54t-18 18zM1340 1051v18h37q0 -18 -19 -18h-18zM1377 1197l18 9q0 -14 18 -37v-9q-14 0 -36 37zM1386 101v37q32 55 82 55q73 0 73 -74v-45q-35 -55 -82 -55q-59 0 -73 82zM1413 110q19 -54 36 -54h37q28 9 28 54 q-8 55 -55 55q-27 -1 -46 -55zM1413 704q3 -18 18 -18v9q0 18 -18 18v-9zM1431 1188q12 -46 28 -46h9q13 0 27 27v19q-9 0 -27 9l-9 -18l-19 9h-9zM1468 722h18q0 27 46 27v9h-55l-9 -17q9 0 9 -9q-9 0 -9 -10zM1486 1352l46 -9v19h-46v-10zM1523 1197h9q0 7 9 55v9h-9 q-9 -48 -9 -55v-9zM1550 184l18 9q28 -36 28 -101h18q13 101 37 101h9q20 0 36 -110h9q12 110 37 110q18 -3 18 -19q-40 -146 -55 -146h-9q-21 0 -36 110h-9q-24 -110 -46 -110q-28 0 -55 156zM1596 686q33 -128 55 -128l18 27q-18 0 -18 19h18q0 17 -18 17h-9l9 -17h-9 q-19 0 -19 17l28 37q-9 18 -9 28l18 9l18 -9v9q-18 73 -73 73l-9 -19v-63zM1660 539q18 0 18 19v9q-18 -3 -18 -18v-10zM1760 128q27 65 82 65q83 0 83 -101q-30 -73 -83 -73q-82 0 -82 109zM1797 83q0 -13 27 -27h36q14 0 28 27v45q0 15 -37 37q-54 0 -54 -55v-27z M1933 101v18q0 74 83 74q73 0 73 -74v-45q-35 -55 -82 -55q-59 0 -74 82zM1961 101q18 -42 37 -45h36q28 9 28 54q-8 55 -55 55q-46 -14 -46 -64zM2107 47l18 9q19 -3 19 -19l-19 -9q-18 0 -18 19zM2162 128q27 65 82 65q64 0 64 -55l-18 -10q-31 37 -55 37q-37 -9 -37 -55 v-27q0 -13 28 -27h27q41 36 46 36l9 -18v-9q-25 -46 -73 -46q-73 0 -73 109zM2317 110q18 83 82 83q82 -13 82 -83v-9q-11 -82 -82 -82q-82 21 -82 91zM2353 110q7 -54 28 -54h37q13 0 27 27v27q0 55 -46 55q-41 -18 -46 -37v-18zM2500 47v127q3 19 18 19h9q21 0 46 -119h9 q30 119 55 119q18 -3 18 -19v-127q0 -19 -18 -19q-10 6 -10 82h-9q-18 -82 -36 -82h-9q-21 0 -37 91h-9q0 -91 -18 -91z" />
<glyph unicode="&#x22;" d="M25 184l18 9q24 0 37 -110h9q18 110 45 110q21 0 46 -101h10q6 101 36 101h27q16 0 37 -101h9q13 101 37 101h9q23 0 36 -101h9q18 101 37 101h27q28 0 36 -101q11 0 46 101h9q26 0 46 -101h10q9 101 36 101h9v-19q-24 -146 -55 -146q-23 0 -36 100h-19 q-13 -100 -36 -100q-27 0 -55 137h-9q-21 -137 -46 -137q-30 0 -45 110h-9q-19 -110 -46 -110q-28 0 -46 128q-12 0 -54 -128h-10q-20 0 -46 100h-9q-13 -100 -36 -100h-9q-18 0 -55 156zM655 47l18 9l10 -19l-19 -9zM701 174q3 19 18 19h101q18 -3 18 -19q0 -18 -55 -18 v-109q0 -19 -19 -19q-17 0 -17 19v109q-46 0 -46 18zM810 37q57 156 73 156q24 0 83 -156l-19 -9q-25 0 -27 46h-64q-7 -46 -27 -46zM865 777q21 174 101 174q-9 107 -9 155v82q0 381 191 484q58 27 210 36q82 0 165 -137q73 -51 73 -109v-28q0 -35 -46 -82v-64 q46 -6 46 -27q-55 -9 -55 -92v-81h-18v63q-34 -27 -64 -27h-19q-13 0 -27 27q0 9 9 9q-9 37 -9 65l-18 -10v19q27 65 82 82l55 -19v28l-64 9q-31 0 -64 -28l-9 19q45 24 45 37h-18l-45 -10l-46 10q-10 0 -28 -10q-36 10 -63 10q-12 0 -92 -10q0 10 -9 10l-9 -19l18 -9 l-9 -18v-19q69 19 82 19q82 -29 82 -91l-18 9v-46l9 -46l-27 -18h-27q-83 0 -83 101h-9v-37q0 -210 110 -210q0 -16 100 -37q156 53 156 128h18q0 -17 -27 -73q-10 -145 -10 -173q192 -39 192 -110q9 -15 9 -46v-155q0 -73 9 -191q-18 -42 -36 -46h-9v9l18 27v210 q-21 0 -36 9q0 -182 -247 -182v18q117 18 137 18v9q-446 74 -548 74q0 -48 -27 -55h-10v9l19 37q-35 0 -55 18v-9q0 -14 27 -110q-52 0 -73 420zM875 101h26v9q-9 18 -9 28q-17 -3 -17 -19v-18zM883 768q46 0 46 -36h18q3 45 28 45q-9 18 -9 27h-9q-24 -27 -74 -27v-9z M892 604q3 -19 19 -19l27 36l-18 10q0 -27 -28 -27zM892 631q24 18 46 18v28l-9 18l-18 -9h-10v27h-9v-82zM892 804h9v46h-9v-46zM929 905h9q19 0 19 18v9q-14 0 -28 -27zM938 476h9q19 0 19 18h-9q-19 -3 -19 -18zM938 695h9q19 0 19 18l-19 9l-9 -18v-9zM947 174 q3 19 19 19h228q18 -3 18 -19q0 -18 -46 -18v-109q0 -19 -18 -19t-18 19v109q-46 0 -46 9q-13 -9 -55 -9v-109q0 -19 -17 -19q-19 0 -19 19v109q-46 0 -46 18zM957 667h27q0 19 -18 19zM975 539q18 0 63 -27h10v9q-19 0 -64 28h-9v-10zM984 494l155 -27v9q-16 48 -73 82v-9 q12 0 46 -46v-9q-69 64 -92 64h-8v-9q42 0 82 -55h-10q-9 0 -9 9l-18 -9l-45 9h-28v-9zM984 941q20 -46 73 -64v9q-14 55 -64 55h-9zM993 741h9l10 45v9h-10l-9 -37v-17zM1002 585q14 0 36 -18v9q-9 18 -9 28q-17 -9 -27 -9v-10zM1020 732l28 -19h18l-9 45v37h18l-9 64 l-46 -36l9 -46zM1038 604q10 0 28 -9v36h-28v-27zM1103 1225q18 0 18 18t-18 18v-36zM1157 1261l9 -46h9v46h-18zM1157 1325v18q15 0 110 9q42 -17 45 -36v-10h-9l-45 28q-81 -9 -101 -9zM1175 741q0 -131 174 -183v82q19 -3 19 -19v-63h72q101 0 101 100q9 34 9 83h-9 q-98 -83 -137 -83v9l-18 -9l-28 19q0 -19 -18 -19q0 14 -28 28l-27 -19q-36 24 -36 37l-18 -9l-10 18q10 0 10 9q-28 0 -28 19q9 0 9 8h-18zM1175 804h28v-9l-9 -18h27l-9 18q9 0 9 9q-9 0 -27 10h-19v-10zM1175 859q0 -20 110 -45q0 -11 55 -46q69 18 82 18l-9 -18 q36 5 36 27h19q89 -27 100 -27v18q-10 0 -100 18h-82v19h73v9q-64 13 -64 100l-18 -9h-19q-51 0 -137 46q-9 -63 -9 -83q68 -33 73 -54v-9q-73 54 -110 54v-18zM1203 1179q9 -37 55 -37l9 46l-18 9q-16 -9 -37 -9q0 9 -9 9v-18zM1212 110q12 83 82 83q83 -13 83 -83 q0 -68 -74 -91q-91 12 -91 91zM1231 1252q2 -18 18 -18l9 18h-27zM1249 83q0 -13 27 -27h36q14 0 28 27v45q0 15 -37 37h-18q-14 0 -36 -37v-45zM1249 804q14 0 36 -18v9l-27 19h-9v-10zM1303 1023v9h9l19 -9q16 9 37 9q12 0 27 -26q0 -14 -27 -28h-28q-13 1 -37 45z M1322 841v9l18 -9q13 36 28 36h9q-19 -54 -37 -54t-18 18zM1340 1051v18h37q0 -18 -19 -18h-18zM1377 1197l18 9q0 -14 18 -37v-9q-14 0 -36 37zM1386 101v37q32 55 82 55q73 0 73 -74v-45q-35 -55 -82 -55q-59 0 -73 82zM1413 110q19 -54 36 -54h37q28 9 28 54 q-8 55 -55 55q-27 -1 -46 -55zM1413 704q3 -18 18 -18v9q0 18 -18 18v-9zM1431 1188q12 -46 28 -46h9q13 0 27 27v19q-9 0 -27 9l-9 -18l-19 9h-9zM1468 722h18q0 27 46 27v9h-55l-9 -17q9 0 9 -9q-9 0 -9 -10zM1486 1352l46 -9v19h-46v-10zM1523 1197h9q0 7 9 55v9h-9 q-9 -48 -9 -55v-9zM1550 184l18 9q28 -36 28 -101h18q13 101 37 101h9q20 0 36 -110h9q12 110 37 110q18 -3 18 -19q-40 -146 -55 -146h-9q-21 0 -36 110h-9q-24 -110 -46 -110q-28 0 -55 156zM1596 686q33 -128 55 -128l18 27q-18 0 -18 19h18q0 17 -18 17h-9l9 -17h-9 q-19 0 -19 17l28 37q-9 18 -9 28l18 9l18 -9v9q-18 73 -73 73l-9 -19v-63zM1660 539q18 0 18 19v9q-18 -3 -18 -18v-10zM1760 128q27 65 82 65q83 0 83 -101q-30 -73 -83 -73q-82 0 -82 109zM1797 83q0 -13 27 -27h36q14 0 28 27v45q0 15 -37 37q-54 0 -54 -55v-27z M1933 101v18q0 74 83 74q73 0 73 -74v-45q-35 -55 -82 -55q-59 0 -74 82zM1961 101q18 -42 37 -45h36q28 9 28 54q-8 55 -55 55q-46 -14 -46 -64zM2107 47l18 9q19 -3 19 -19l-19 -9q-18 0 -18 19zM2162 128q27 65 82 65q64 0 64 -55l-18 -10q-31 37 -55 37q-37 -9 -37 -55 v-27q0 -13 28 -27h27q41 36 46 36l9 -18v-9q-25 -46 -73 -46q-73 0 -73 109zM2317 110q18 83 82 83q82 -13 82 -83v-9q-11 -82 -82 -82q-82 21 -82 91zM2353 110q7 -54 28 -54h37q13 0 27 27v27q0 55 -46 55q-41 -18 -46 -37v-18zM2500 47v127q3 19 18 19h9q21 0 46 -119h9 q30 119 55 119q18 -3 18 -19v-127q0 -19 -18 -19q-10 6 -10 82h-9q-18 -82 -36 -82h-9q-21 0 -37 91h-9q0 -91 -18 -91z" />
<glyph unicode="#" d="M25 184l18 9q24 0 37 -110h9q18 110 45 110q21 0 46 -101h10q6 101 36 101h27q16 0 37 -101h9q13 101 37 101h9q23 0 36 -101h9q18 101 37 101h27q28 0 36 -101q11 0 46 101h9q26 0 46 -101h10q9 101 36 101h9v-19q-24 -146 -55 -146q-23 0 -36 100h-19 q-13 -100 -36 -100q-27 0 -55 137h-9q-21 -137 -46 -137q-30 0 -45 110h-9q-19 -110 -46 -110q-28 0 -46 128q-12 0 -54 -128h-10q-20 0 -46 100h-9q-13 -100 -36 -100h-9q-18 0 -55 156zM655 47l18 9l10 -19l-19 -9zM701 174q3 19 18 19h101q18 -3 18 -19q0 -18 -55 -18 v-109q0 -19 -19 -19q-17 0 -17 19v109q-46 0 -46 18zM810 37q57 156 73 156q24 0 83 -156l-19 -9q-25 0 -27 46h-64q-7 -46 -27 -46zM865 777q21 174 101 174q-9 107 -9 155v82q0 381 191 484q58 27 210 36q82 0 165 -137q73 -51 73 -109v-28q0 -35 -46 -82v-64 q46 -6 46 -27q-55 -9 -55 -92v-81h-18v63q-34 -27 -64 -27h-19q-13 0 -27 27q0 9 9 9q-9 37 -9 65l-18 -10v19q27 65 82 82l55 -19v28l-64 9q-31 0 -64 -28l-9 19q45 24 45 37h-18l-45 -10l-46 10q-10 0 -28 -10q-36 10 -63 10q-12 0 -92 -10q0 10 -9 10l-9 -19l18 -9 l-9 -18v-19q69 19 82 19q82 -29 82 -91l-18 9v-46l9 -46l-27 -18h-27q-83 0 -83 101h-9v-37q0 -210 110 -210q0 -16 100 -37q156 53 156 128h18q0 -17 -27 -73q-10 -145 -10 -173q192 -39 192 -110q9 -15 9 -46v-155q0 -73 9 -191q-18 -42 -36 -46h-9v9l18 27v210 q-21 0 -36 9q0 -182 -247 -182v18q117 18 137 18v9q-446 74 -548 74q0 -48 -27 -55h-10v9l19 37q-35 0 -55 18v-9q0 -14 27 -110q-52 0 -73 420zM875 101h26v9q-9 18 -9 28q-17 -3 -17 -19v-18zM883 768q46 0 46 -36h18q3 45 28 45q-9 18 -9 27h-9q-24 -27 -74 -27v-9z M892 604q3 -19 19 -19l27 36l-18 10q0 -27 -28 -27zM892 631q24 18 46 18v28l-9 18l-18 -9h-10v27h-9v-82zM892 804h9v46h-9v-46zM929 905h9q19 0 19 18v9q-14 0 -28 -27zM938 476h9q19 0 19 18h-9q-19 -3 -19 -18zM938 695h9q19 0 19 18l-19 9l-9 -18v-9zM947 174 q3 19 19 19h228q18 -3 18 -19q0 -18 -46 -18v-109q0 -19 -18 -19t-18 19v109q-46 0 -46 9q-13 -9 -55 -9v-109q0 -19 -17 -19q-19 0 -19 19v109q-46 0 -46 18zM957 667h27q0 19 -18 19zM975 539q18 0 63 -27h10v9q-19 0 -64 28h-9v-10zM984 494l155 -27v9q-16 48 -73 82v-9 q12 0 46 -46v-9q-69 64 -92 64h-8v-9q42 0 82 -55h-10q-9 0 -9 9l-18 -9l-45 9h-28v-9zM984 941q20 -46 73 -64v9q-14 55 -64 55h-9zM993 741h9l10 45v9h-10l-9 -37v-17zM1002 585q14 0 36 -18v9q-9 18 -9 28q-17 -9 -27 -9v-10zM1020 732l28 -19h18l-9 45v37h18l-9 64 l-46 -36l9 -46zM1038 604q10 0 28 -9v36h-28v-27zM1103 1225q18 0 18 18t-18 18v-36zM1157 1261l9 -46h9v46h-18zM1157 1325v18q15 0 110 9q42 -17 45 -36v-10h-9l-45 28q-81 -9 -101 -9zM1175 741q0 -131 174 -183v82q19 -3 19 -19v-63h72q101 0 101 100q9 34 9 83h-9 q-98 -83 -137 -83v9l-18 -9l-28 19q0 -19 -18 -19q0 14 -28 28l-27 -19q-36 24 -36 37l-18 -9l-10 18q10 0 10 9q-28 0 -28 19q9 0 9 8h-18zM1175 804h28v-9l-9 -18h27l-9 18q9 0 9 9q-9 0 -27 10h-19v-10zM1175 859q0 -20 110 -45q0 -11 55 -46q69 18 82 18l-9 -18 q36 5 36 27h19q89 -27 100 -27v18q-10 0 -100 18h-82v19h73v9q-64 13 -64 100l-18 -9h-19q-51 0 -137 46q-9 -63 -9 -83q68 -33 73 -54v-9q-73 54 -110 54v-18zM1203 1179q9 -37 55 -37l9 46l-18 9q-16 -9 -37 -9q0 9 -9 9v-18zM1212 110q12 83 82 83q83 -13 83 -83 q0 -68 -74 -91q-91 12 -91 91zM1231 1252q2 -18 18 -18l9 18h-27zM1249 83q0 -13 27 -27h36q14 0 28 27v45q0 15 -37 37h-18q-14 0 -36 -37v-45zM1249 804q14 0 36 -18v9l-27 19h-9v-10zM1303 1023v9h9l19 -9q16 9 37 9q12 0 27 -26q0 -14 -27 -28h-28q-13 1 -37 45z M1322 841v9l18 -9q13 36 28 36h9q-19 -54 -37 -54t-18 18zM1340 1051v18h37q0 -18 -19 -18h-18zM1377 1197l18 9q0 -14 18 -37v-9q-14 0 -36 37zM1386 101v37q32 55 82 55q73 0 73 -74v-45q-35 -55 -82 -55q-59 0 -73 82zM1413 110q19 -54 36 -54h37q28 9 28 54 q-8 55 -55 55q-27 -1 -46 -55zM1413 704q3 -18 18 -18v9q0 18 -18 18v-9zM1431 1188q12 -46 28 -46h9q13 0 27 27v19q-9 0 -27 9l-9 -18l-19 9h-9zM1468 722h18q0 27 46 27v9h-55l-9 -17q9 0 9 -9q-9 0 -9 -10zM1486 1352l46 -9v19h-46v-10zM1523 1197h9q0 7 9 55v9h-9 q-9 -48 -9 -55v-9zM1550 184l18 9q28 -36 28 -101h18q13 101 37 101h9q20 0 36 -110h9q12 110 37 110q18 -3 18 -19q-40 -146 -55 -146h-9q-21 0 -36 110h-9q-24 -110 -46 -110q-28 0 -55 156zM1596 686q33 -128 55 -128l18 27q-18 0 -18 19h18q0 17 -18 17h-9l9 -17h-9 q-19 0 -19 17l28 37q-9 18 -9 28l18 9l18 -9v9q-18 73 -73 73l-9 -19v-63zM1660 539q18 0 18 19v9q-18 -3 -18 -18v-10zM1760 128q27 65 82 65q83 0 83 -101q-30 -73 -83 -73q-82 0 -82 109zM1797 83q0 -13 27 -27h36q14 0 28 27v45q0 15 -37 37q-54 0 -54 -55v-27z M1933 101v18q0 74 83 74q73 0 73 -74v-45q-35 -55 -82 -55q-59 0 -74 82zM1961 101q18 -42 37 -45h36q28 9 28 54q-8 55 -55 55q-46 -14 -46 -64zM2107 47l18 9q19 -3 19 -19l-19 -9q-18 0 -18 19zM2162 128q27 65 82 65q64 0 64 -55l-18 -10q-31 37 -55 37q-37 -9 -37 -55 v-27q0 -13 28 -27h27q41 36 46 36l9 -18v-9q-25 -46 -73 -46q-73 0 -73 109zM2317 110q18 83 82 83q82 -13 82 -83v-9q-11 -82 -82 -82q-82 21 -82 91zM2353 110q7 -54 28 -54h37q13 0 27 27v27q0 55 -46 55q-41 -18 -46 -37v-18zM2500 47v127q3 19 18 19h9q21 0 46 -119h9 q30 119 55 119q18 -3 18 -19v-127q0 -19 -18 -19q-10 6 -10 82h-9q-18 -82 -36 -82h-9q-21 0 -37 91h-9q0 -91 -18 -91z" />
<glyph unicode="$" d="M25 184l18 9q24 0 37 -110h9q18 110 45 110q21 0 46 -101h10q6 101 36 101h27q16 0 37 -101h9q13 101 37 101h9q23 0 36 -101h9q18 101 37 101h27q28 0 36 -101q11 0 46 101h9q26 0 46 -101h10q9 101 36 101h9v-19q-24 -146 -55 -146q-23 0 -36 100h-19 q-13 -100 -36 -100q-27 0 -55 137h-9q-21 -137 -46 -137q-30 0 -45 110h-9q-19 -110 -46 -110q-28 0 -46 128q-12 0 -54 -128h-10q-20 0 -46 100h-9q-13 -100 -36 -100h-9q-18 0 -55 156zM655 47l18 9l10 -19l-19 -9zM701 174q3 19 18 19h101q18 -3 18 -19q0 -18 -55 -18 v-109q0 -19 -19 -19q-17 0 -17 19v109q-46 0 -46 18zM810 37q57 156 73 156q24 0 83 -156l-19 -9q-25 0 -27 46h-64q-7 -46 -27 -46zM865 777q21 174 101 174q-9 107 -9 155v82q0 381 191 484q58 27 210 36q82 0 165 -137q73 -51 73 -109v-28q0 -35 -46 -82v-64 q46 -6 46 -27q-55 -9 -55 -92v-81h-18v63q-34 -27 -64 -27h-19q-13 0 -27 27q0 9 9 9q-9 37 -9 65l-18 -10v19q27 65 82 82l55 -19v28l-64 9q-31 0 -64 -28l-9 19q45 24 45 37h-18l-45 -10l-46 10q-10 0 -28 -10q-36 10 -63 10q-12 0 -92 -10q0 10 -9 10l-9 -19l18 -9 l-9 -18v-19q69 19 82 19q82 -29 82 -91l-18 9v-46l9 -46l-27 -18h-27q-83 0 -83 101h-9v-37q0 -210 110 -210q0 -16 100 -37q156 53 156 128h18q0 -17 -27 -73q-10 -145 -10 -173q192 -39 192 -110q9 -15 9 -46v-155q0 -73 9 -191q-18 -42 -36 -46h-9v9l18 27v210 q-21 0 -36 9q0 -182 -247 -182v18q117 18 137 18v9q-446 74 -548 74q0 -48 -27 -55h-10v9l19 37q-35 0 -55 18v-9q0 -14 27 -110q-52 0 -73 420zM875 101h26v9q-9 18 -9 28q-17 -3 -17 -19v-18zM883 768q46 0 46 -36h18q3 45 28 45q-9 18 -9 27h-9q-24 -27 -74 -27v-9z M892 604q3 -19 19 -19l27 36l-18 10q0 -27 -28 -27zM892 631q24 18 46 18v28l-9 18l-18 -9h-10v27h-9v-82zM892 804h9v46h-9v-46zM929 905h9q19 0 19 18v9q-14 0 -28 -27zM938 476h9q19 0 19 18h-9q-19 -3 -19 -18zM938 695h9q19 0 19 18l-19 9l-9 -18v-9zM947 174 q3 19 19 19h228q18 -3 18 -19q0 -18 -46 -18v-109q0 -19 -18 -19t-18 19v109q-46 0 -46 9q-13 -9 -55 -9v-109q0 -19 -17 -19q-19 0 -19 19v109q-46 0 -46 18zM957 667h27q0 19 -18 19zM975 539q18 0 63 -27h10v9q-19 0 -64 28h-9v-10zM984 494l155 -27v9q-16 48 -73 82v-9 q12 0 46 -46v-9q-69 64 -92 64h-8v-9q42 0 82 -55h-10q-9 0 -9 9l-18 -9l-45 9h-28v-9zM984 941q20 -46 73 -64v9q-14 55 -64 55h-9zM993 741h9l10 45v9h-10l-9 -37v-17zM1002 585q14 0 36 -18v9q-9 18 -9 28q-17 -9 -27 -9v-10zM1020 732l28 -19h18l-9 45v37h18l-9 64 l-46 -36l9 -46zM1038 604q10 0 28 -9v36h-28v-27zM1103 1225q18 0 18 18t-18 18v-36zM1157 1261l9 -46h9v46h-18zM1157 1325v18q15 0 110 9q42 -17 45 -36v-10h-9l-45 28q-81 -9 -101 -9zM1175 741q0 -131 174 -183v82q19 -3 19 -19v-63h72q101 0 101 100q9 34 9 83h-9 q-98 -83 -137 -83v9l-18 -9l-28 19q0 -19 -18 -19q0 14 -28 28l-27 -19q-36 24 -36 37l-18 -9l-10 18q10 0 10 9q-28 0 -28 19q9 0 9 8h-18zM1175 804h28v-9l-9 -18h27l-9 18q9 0 9 9q-9 0 -27 10h-19v-10zM1175 859q0 -20 110 -45q0 -11 55 -46q69 18 82 18l-9 -18 q36 5 36 27h19q89 -27 100 -27v18q-10 0 -100 18h-82v19h73v9q-64 13 -64 100l-18 -9h-19q-51 0 -137 46q-9 -63 -9 -83q68 -33 73 -54v-9q-73 54 -110 54v-18zM1203 1179q9 -37 55 -37l9 46l-18 9q-16 -9 -37 -9q0 9 -9 9v-18zM1212 110q12 83 82 83q83 -13 83 -83 q0 -68 -74 -91q-91 12 -91 91zM1231 1252q2 -18 18 -18l9 18h-27zM1249 83q0 -13 27 -27h36q14 0 28 27v45q0 15 -37 37h-18q-14 0 -36 -37v-45zM1249 804q14 0 36 -18v9l-27 19h-9v-10zM1303 1023v9h9l19 -9q16 9 37 9q12 0 27 -26q0 -14 -27 -28h-28q-13 1 -37 45z M1322 841v9l18 -9q13 36 28 36h9q-19 -54 -37 -54t-18 18zM1340 1051v18h37q0 -18 -19 -18h-18zM1377 1197l18 9q0 -14 18 -37v-9q-14 0 -36 37zM1386 101v37q32 55 82 55q73 0 73 -74v-45q-35 -55 -82 -55q-59 0 -73 82zM1413 110q19 -54 36 -54h37q28 9 28 54 q-8 55 -55 55q-27 -1 -46 -55zM1413 704q3 -18 18 -18v9q0 18 -18 18v-9zM1431 1188q12 -46 28 -46h9q13 0 27 27v19q-9 0 -27 9l-9 -18l-19 9h-9zM1468 722h18q0 27 46 27v9h-55l-9 -17q9 0 9 -9q-9 0 -9 -10zM1486 1352l46 -9v19h-46v-10zM1523 1197h9q0 7 9 55v9h-9 q-9 -48 -9 -55v-9zM1550 184l18 9q28 -36 28 -101h18q13 101 37 101h9q20 0 36 -110h9q12 110 37 110q18 -3 18 -19q-40 -146 -55 -146h-9q-21 0 -36 110h-9q-24 -110 -46 -110q-28 0 -55 156zM1596 686q33 -128 55 -128l18 27q-18 0 -18 19h18q0 17 -18 17h-9l9 -17h-9 q-19 0 -19 17l28 37q-9 18 -9 28l18 9l18 -9v9q-18 73 -73 73l-9 -19v-63zM1660 539q18 0 18 19v9q-18 -3 -18 -18v-10zM1760 128q27 65 82 65q83 0 83 -101q-30 -73 -83 -73q-82 0 -82 109zM1797 83q0 -13 27 -27h36q14 0 28 27v45q0 15 -37 37q-54 0 -54 -55v-27z M1933 101v18q0 74 83 74q73 0 73 -74v-45q-35 -55 -82 -55q-59 0 -74 82zM1961 101q18 -42 37 -45h36q28 9 28 54q-8 55 -55 55q-46 -14 -46 -64zM2107 47l18 9q19 -3 19 -19l-19 -9q-18 0 -18 19zM2162 128q27 65 82 65q64 0 64 -55l-18 -10q-31 37 -55 37q-37 -9 -37 -55 v-27q0 -13 28 -27h27q41 36 46 36l9 -18v-9q-25 -46 -73 -46q-73 0 -73 109zM2317 110q18 83 82 83q82 -13 82 -83v-9q-11 -82 -82 -82q-82 21 -82 91zM2353 110q7 -54 28 -54h37q13 0 27 27v27q0 55 -46 55q-41 -18 -46 -37v-18zM2500 47v127q3 19 18 19h9q21 0 46 -119h9 q30 119 55 119q18 -3 18 -19v-127q0 -19 -18 -19q-10 6 -10 82h-9q-18 -82 -36 -82h-9q-21 0 -37 91h-9q0 -91 -18 -91z" />
<glyph unicode="%" d="M25 184l18 9q24 0 37 -110h9q18 110 45 110q21 0 46 -101h10q6 101 36 101h27q16 0 37 -101h9q13 101 37 101h9q23 0 36 -101h9q18 101 37 101h27q28 0 36 -101q11 0 46 101h9q26 0 46 -101h10q9 101 36 101h9v-19q-24 -146 -55 -146q-23 0 -36 100h-19 q-13 -100 -36 -100q-27 0 -55 137h-9q-21 -137 -46 -137q-30 0 -45 110h-9q-19 -110 -46 -110q-28 0 -46 128q-12 0 -54 -128h-10q-20 0 -46 100h-9q-13 -100 -36 -100h-9q-18 0 -55 156zM655 47l18 9l10 -19l-19 -9zM701 174q3 19 18 19h101q18 -3 18 -19q0 -18 -55 -18 v-109q0 -19 -19 -19q-17 0 -17 19v109q-46 0 -46 18zM810 37q57 156 73 156q24 0 83 -156l-19 -9q-25 0 -27 46h-64q-7 -46 -27 -46zM865 777q21 174 101 174q-9 107 -9 155v82q0 381 191 484q58 27 210 36q82 0 165 -137q73 -51 73 -109v-28q0 -35 -46 -82v-64 q46 -6 46 -27q-55 -9 -55 -92v-81h-18v63q-34 -27 -64 -27h-19q-13 0 -27 27q0 9 9 9q-9 37 -9 65l-18 -10v19q27 65 82 82l55 -19v28l-64 9q-31 0 -64 -28l-9 19q45 24 45 37h-18l-45 -10l-46 10q-10 0 -28 -10q-36 10 -63 10q-12 0 -92 -10q0 10 -9 10l-9 -19l18 -9 l-9 -18v-19q69 19 82 19q82 -29 82 -91l-18 9v-46l9 -46l-27 -18h-27q-83 0 -83 101h-9v-37q0 -210 110 -210q0 -16 100 -37q156 53 156 128h18q0 -17 -27 -73q-10 -145 -10 -173q192 -39 192 -110q9 -15 9 -46v-155q0 -73 9 -191q-18 -42 -36 -46h-9v9l18 27v210 q-21 0 -36 9q0 -182 -247 -182v18q117 18 137 18v9q-446 74 -548 74q0 -48 -27 -55h-10v9l19 37q-35 0 -55 18v-9q0 -14 27 -110q-52 0 -73 420zM875 101h26v9q-9 18 -9 28q-17 -3 -17 -19v-18zM883 768q46 0 46 -36h18q3 45 28 45q-9 18 -9 27h-9q-24 -27 -74 -27v-9z M892 604q3 -19 19 -19l27 36l-18 10q0 -27 -28 -27zM892 631q24 18 46 18v28l-9 18l-18 -9h-10v27h-9v-82zM892 804h9v46h-9v-46zM929 905h9q19 0 19 18v9q-14 0 -28 -27zM938 476h9q19 0 19 18h-9q-19 -3 -19 -18zM938 695h9q19 0 19 18l-19 9l-9 -18v-9zM947 174 q3 19 19 19h228q18 -3 18 -19q0 -18 -46 -18v-109q0 -19 -18 -19t-18 19v109q-46 0 -46 9q-13 -9 -55 -9v-109q0 -19 -17 -19q-19 0 -19 19v109q-46 0 -46 18zM957 667h27q0 19 -18 19zM975 539q18 0 63 -27h10v9q-19 0 -64 28h-9v-10zM984 494l155 -27v9q-16 48 -73 82v-9 q12 0 46 -46v-9q-69 64 -92 64h-8v-9q42 0 82 -55h-10q-9 0 -9 9l-18 -9l-45 9h-28v-9zM984 941q20 -46 73 -64v9q-14 55 -64 55h-9zM993 741h9l10 45v9h-10l-9 -37v-17zM1002 585q14 0 36 -18v9q-9 18 -9 28q-17 -9 -27 -9v-10zM1020 732l28 -19h18l-9 45v37h18l-9 64 l-46 -36l9 -46zM1038 604q10 0 28 -9v36h-28v-27zM1103 1225q18 0 18 18t-18 18v-36zM1157 1261l9 -46h9v46h-18zM1157 1325v18q15 0 110 9q42 -17 45 -36v-10h-9l-45 28q-81 -9 -101 -9zM1175 741q0 -131 174 -183v82q19 -3 19 -19v-63h72q101 0 101 100q9 34 9 83h-9 q-98 -83 -137 -83v9l-18 -9l-28 19q0 -19 -18 -19q0 14 -28 28l-27 -19q-36 24 -36 37l-18 -9l-10 18q10 0 10 9q-28 0 -28 19q9 0 9 8h-18zM1175 804h28v-9l-9 -18h27l-9 18q9 0 9 9q-9 0 -27 10h-19v-10zM1175 859q0 -20 110 -45q0 -11 55 -46q69 18 82 18l-9 -18 q36 5 36 27h19q89 -27 100 -27v18q-10 0 -100 18h-82v19h73v9q-64 13 -64 100l-18 -9h-19q-51 0 -137 46q-9 -63 -9 -83q68 -33 73 -54v-9q-73 54 -110 54v-18zM1203 1179q9 -37 55 -37l9 46l-18 9q-16 -9 -37 -9q0 9 -9 9v-18zM1212 110q12 83 82 83q83 -13 83 -83 q0 -68 -74 -91q-91 12 -91 91zM1231 1252q2 -18 18 -18l9 18h-27zM1249 83q0 -13 27 -27h36q14 0 28 27v45q0 15 -37 37h-18q-14 0 -36 -37v-45zM1249 804q14 0 36 -18v9l-27 19h-9v-10zM1303 1023v9h9l19 -9q16 9 37 9q12 0 27 -26q0 -14 -27 -28h-28q-13 1 -37 45z M1322 841v9l18 -9q13 36 28 36h9q-19 -54 -37 -54t-18 18zM1340 1051v18h37q0 -18 -19 -18h-18zM1377 1197l18 9q0 -14 18 -37v-9q-14 0 -36 37zM1386 101v37q32 55 82 55q73 0 73 -74v-45q-35 -55 -82 -55q-59 0 -73 82zM1413 110q19 -54 36 -54h37q28 9 28 54 q-8 55 -55 55q-27 -1 -46 -55zM1413 704q3 -18 18 -18v9q0 18 -18 18v-9zM1431 1188q12 -46 28 -46h9q13 0 27 27v19q-9 0 -27 9l-9 -18l-19 9h-9zM1468 722h18q0 27 46 27v9h-55l-9 -17q9 0 9 -9q-9 0 -9 -10zM1486 1352l46 -9v19h-46v-10zM1523 1197h9q0 7 9 55v9h-9 q-9 -48 -9 -55v-9zM1550 184l18 9q28 -36 28 -101h18q13 101 37 101h9q20 0 36 -110h9q12 110 37 110q18 -3 18 -19q-40 -146 -55 -146h-9q-21 0 -36 110h-9q-24 -110 -46 -110q-28 0 -55 156zM1596 686q33 -128 55 -128l18 27q-18 0 -18 19h18q0 17 -18 17h-9l9 -17h-9 q-19 0 -19 17l28 37q-9 18 -9 28l18 9l18 -9v9q-18 73 -73 73l-9 -19v-63zM1660 539q18 0 18 19v9q-18 -3 -18 -18v-10zM1760 128q27 65 82 65q83 0 83 -101q-30 -73 -83 -73q-82 0 -82 109zM1797 83q0 -13 27 -27h36q14 0 28 27v45q0 15 -37 37q-54 0 -54 -55v-27z M1933 101v18q0 74 83 74q73 0 73 -74v-45q-35 -55 -82 -55q-59 0 -74 82zM1961 101q18 -42 37 -45h36q28 9 28 54q-8 55 -55 55q-46 -14 -46 -64zM2107 47l18 9q19 -3 19 -19l-19 -9q-18 0 -18 19zM2162 128q27 65 82 65q64 0 64 -55l-18 -10q-31 37 -55 37q-37 -9 -37 -55 v-27q0 -13 28 -27h27q41 36 46 36l9 -18v-9q-25 -46 -73 -46q-73 0 -73 109zM2317 110q18 83 82 83q82 -13 82 -83v-9q-11 -82 -82 -82q-82 21 -82 91zM2353 110q7 -54 28 -54h37q13 0 27 27v27q0 55 -46 55q-41 -18 -46 -37v-18zM2500 47v127q3 19 18 19h9q21 0 46 -119h9 q30 119 55 119q18 -3 18 -19v-127q0 -19 -18 -19q-10 6 -10 82h-9q-18 -82 -36 -82h-9q-21 0 -37 91h-9q0 -91 -18 -91z" />
<glyph unicode="&#x26;" d="M25 184l18 9q24 0 37 -110h9q18 110 45 110q21 0 46 -101h10q6 101 36 101h27q16 0 37 -101h9q13 101 37 101h9q23 0 36 -101h9q18 101 37 101h27q28 0 36 -101q11 0 46 101h9q26 0 46 -101h10q9 101 36 101h9v-19q-24 -146 -55 -146q-23 0 -36 100h-19 q-13 -100 -36 -100q-27 0 -55 137h-9q-21 -137 -46 -137q-30 0 -45 110h-9q-19 -110 -46 -110q-28 0 -46 128q-12 0 -54 -128h-10q-20 0 -46 100h-9q-13 -100 -36 -100h-9q-18 0 -55 156zM655 47l18 9l10 -19l-19 -9zM701 174q3 19 18 19h101q18 -3 18 -19q0 -18 -55 -18 v-109q0 -19 -19 -19q-17 0 -17 19v109q-46 0 -46 18zM810 37q57 156 73 156q24 0 83 -156l-19 -9q-25 0 -27 46h-64q-7 -46 -27 -46zM865 777q21 174 101 174q-9 107 -9 155v82q0 381 191 484q58 27 210 36q82 0 165 -137q73 -51 73 -109v-28q0 -35 -46 -82v-64 q46 -6 46 -27q-55 -9 -55 -92v-81h-18v63q-34 -27 -64 -27h-19q-13 0 -27 27q0 9 9 9q-9 37 -9 65l-18 -10v19q27 65 82 82l55 -19v28l-64 9q-31 0 -64 -28l-9 19q45 24 45 37h-18l-45 -10l-46 10q-10 0 -28 -10q-36 10 -63 10q-12 0 -92 -10q0 10 -9 10l-9 -19l18 -9 l-9 -18v-19q69 19 82 19q82 -29 82 -91l-18 9v-46l9 -46l-27 -18h-27q-83 0 -83 101h-9v-37q0 -210 110 -210q0 -16 100 -37q156 53 156 128h18q0 -17 -27 -73q-10 -145 -10 -173q192 -39 192 -110q9 -15 9 -46v-155q0 -73 9 -191q-18 -42 -36 -46h-9v9l18 27v210 q-21 0 -36 9q0 -182 -247 -182v18q117 18 137 18v9q-446 74 -548 74q0 -48 -27 -55h-10v9l19 37q-35 0 -55 18v-9q0 -14 27 -110q-52 0 -73 420zM875 101h26v9q-9 18 -9 28q-17 -3 -17 -19v-18zM883 768q46 0 46 -36h18q3 45 28 45q-9 18 -9 27h-9q-24 -27 -74 -27v-9z M892 604q3 -19 19 -19l27 36l-18 10q0 -27 -28 -27zM892 631q24 18 46 18v28l-9 18l-18 -9h-10v27h-9v-82zM892 804h9v46h-9v-46zM929 905h9q19 0 19 18v9q-14 0 -28 -27zM938 476h9q19 0 19 18h-9q-19 -3 -19 -18zM938 695h9q19 0 19 18l-19 9l-9 -18v-9zM947 174 q3 19 19 19h228q18 -3 18 -19q0 -18 -46 -18v-109q0 -19 -18 -19t-18 19v109q-46 0 -46 9q-13 -9 -55 -9v-109q0 -19 -17 -19q-19 0 -19 19v109q-46 0 -46 18zM957 667h27q0 19 -18 19zM975 539q18 0 63 -27h10v9q-19 0 -64 28h-9v-10zM984 494l155 -27v9q-16 48 -73 82v-9 q12 0 46 -46v-9q-69 64 -92 64h-8v-9q42 0 82 -55h-10q-9 0 -9 9l-18 -9l-45 9h-28v-9zM984 941q20 -46 73 -64v9q-14 55 -64 55h-9zM993 741h9l10 45v9h-10l-9 -37v-17zM1002 585q14 0 36 -18v9q-9 18 -9 28q-17 -9 -27 -9v-10zM1020 732l28 -19h18l-9 45v37h18l-9 64 l-46 -36l9 -46zM1038 604q10 0 28 -9v36h-28v-27zM1103 1225q18 0 18 18t-18 18v-36zM1157 1261l9 -46h9v46h-18zM1157 1325v18q15 0 110 9q42 -17 45 -36v-10h-9l-45 28q-81 -9 -101 -9zM1175 741q0 -131 174 -183v82q19 -3 19 -19v-63h72q101 0 101 100q9 34 9 83h-9 q-98 -83 -137 -83v9l-18 -9l-28 19q0 -19 -18 -19q0 14 -28 28l-27 -19q-36 24 -36 37l-18 -9l-10 18q10 0 10 9q-28 0 -28 19q9 0 9 8h-18zM1175 804h28v-9l-9 -18h27l-9 18q9 0 9 9q-9 0 -27 10h-19v-10zM1175 859q0 -20 110 -45q0 -11 55 -46q69 18 82 18l-9 -18 q36 5 36 27h19q89 -27 100 -27v18q-10 0 -100 18h-82v19h73v9q-64 13 -64 100l-18 -9h-19q-51 0 -137 46q-9 -63 -9 -83q68 -33 73 -54v-9q-73 54 -110 54v-18zM1203 1179q9 -37 55 -37l9 46l-18 9q-16 -9 -37 -9q0 9 -9 9v-18zM1212 110q12 83 82 83q83 -13 83 -83 q0 -68 -74 -91q-91 12 -91 91zM1231 1252q2 -18 18 -18l9 18h-27zM1249 83q0 -13 27 -27h36q14 0 28 27v45q0 15 -37 37h-18q-14 0 -36 -37v-45zM1249 804q14 0 36 -18v9l-27 19h-9v-10zM1303 1023v9h9l19 -9q16 9 37 9q12 0 27 -26q0 -14 -27 -28h-28q-13 1 -37 45z M1322 841v9l18 -9q13 36 28 36h9q-19 -54 -37 -54t-18 18zM1340 1051v18h37q0 -18 -19 -18h-18zM1377 1197l18 9q0 -14 18 -37v-9q-14 0 -36 37zM1386 101v37q32 55 82 55q73 0 73 -74v-45q-35 -55 -82 -55q-59 0 -73 82zM1413 110q19 -54 36 -54h37q28 9 28 54 q-8 55 -55 55q-27 -1 -46 -55zM1413 704q3 -18 18 -18v9q0 18 -18 18v-9zM1431 1188q12 -46 28 -46h9q13 0 27 27v19q-9 0 -27 9l-9 -18l-19 9h-9zM1468 722h18q0 27 46 27v9h-55l-9 -17q9 0 9 -9q-9 0 -9 -10zM1486 1352l46 -9v19h-46v-10zM1523 1197h9q0 7 9 55v9h-9 q-9 -48 -9 -55v-9zM1550 184l18 9q28 -36 28 -101h18q13 101 37 101h9q20 0 36 -110h9q12 110 37 110q18 -3 18 -19q-40 -146 -55 -146h-9q-21 0 -36 110h-9q-24 -110 -46 -110q-28 0 -55 156zM1596 686q33 -128 55 -128l18 27q-18 0 -18 19h18q0 17 -18 17h-9l9 -17h-9 q-19 0 -19 17l28 37q-9 18 -9 28l18 9l18 -9v9q-18 73 -73 73l-9 -19v-63zM1660 539q18 0 18 19v9q-18 -3 -18 -18v-10zM1760 128q27 65 82 65q83 0 83 -101q-30 -73 -83 -73q-82 0 -82 109zM1797 83q0 -13 27 -27h36q14 0 28 27v45q0 15 -37 37q-54 0 -54 -55v-27z M1933 101v18q0 74 83 74q73 0 73 -74v-45q-35 -55 -82 -55q-59 0 -74 82zM1961 101q18 -42 37 -45h36q28 9 28 54q-8 55 -55 55q-46 -14 -46 -64zM2107 47l18 9q19 -3 19 -19l-19 -9q-18 0 -18 19zM2162 128q27 65 82 65q64 0 64 -55l-18 -10q-31 37 -55 37q-37 -9 -37 -55 v-27q0 -13 28 -27h27q41 36 46 36l9 -18v-9q-25 -46 -73 -46q-73 0 -73 109zM2317 110q18 83 82 83q82 -13 82 -83v-9q-11 -82 -82 -82q-82 21 -82 91zM2353 110q7 -54 28 -54h37q13 0 27 27v27q0 55 -46 55q-41 -18 -46 -37v-18zM2500 47v127q3 19 18 19h9q21 0 46 -119h9 q30 119 55 119q18 -3 18 -19v-127q0 -19 -18 -19q-10 6 -10 82h-9q-18 -82 -36 -82h-9q-21 0 -37 91h-9q0 -91 -18 -91z" />
<glyph unicode="'" d="M25 184l18 9q24 0 37 -110h9q18 110 45 110q21 0 46 -101h10q6 101 36 101h27q16 0 37 -101h9q13 101 37 101h9q23 0 36 -101h9q18 101 37 101h27q28 0 36 -101q11 0 46 101h9q26 0 46 -101h10q9 101 36 101h9v-19q-24 -146 -55 -146q-23 0 -36 100h-19 q-13 -100 -36 -100q-27 0 -55 137h-9q-21 -137 -46 -137q-30 0 -45 110h-9q-19 -110 -46 -110q-28 0 -46 128q-12 0 -54 -128h-10q-20 0 -46 100h-9q-13 -100 -36 -100h-9q-18 0 -55 156zM655 47l18 9l10 -19l-19 -9zM701 174q3 19 18 19h101q18 -3 18 -19q0 -18 -55 -18 v-109q0 -19 -19 -19q-17 0 -17 19v109q-46 0 -46 18zM810 37q57 156 73 156q24 0 83 -156l-19 -9q-25 0 -27 46h-64q-7 -46 -27 -46zM865 777q21 174 101 174q-9 107 -9 155v82q0 381 191 484q58 27 210 36q82 0 165 -137q73 -51 73 -109v-28q0 -35 -46 -82v-64 q46 -6 46 -27q-55 -9 -55 -92v-81h-18v63q-34 -27 -64 -27h-19q-13 0 -27 27q0 9 9 9q-9 37 -9 65l-18 -10v19q27 65 82 82l55 -19v28l-64 9q-31 0 -64 -28l-9 19q45 24 45 37h-18l-45 -10l-46 10q-10 0 -28 -10q-36 10 -63 10q-12 0 -92 -10q0 10 -9 10l-9 -19l18 -9 l-9 -18v-19q69 19 82 19q82 -29 82 -91l-18 9v-46l9 -46l-27 -18h-27q-83 0 -83 101h-9v-37q0 -210 110 -210q0 -16 100 -37q156 53 156 128h18q0 -17 -27 -73q-10 -145 -10 -173q192 -39 192 -110q9 -15 9 -46v-155q0 -73 9 -191q-18 -42 -36 -46h-9v9l18 27v210 q-21 0 -36 9q0 -182 -247 -182v18q117 18 137 18v9q-446 74 -548 74q0 -48 -27 -55h-10v9l19 37q-35 0 -55 18v-9q0 -14 27 -110q-52 0 -73 420zM875 101h26v9q-9 18 -9 28q-17 -3 -17 -19v-18zM883 768q46 0 46 -36h18q3 45 28 45q-9 18 -9 27h-9q-24 -27 -74 -27v-9z M892 604q3 -19 19 -19l27 36l-18 10q0 -27 -28 -27zM892 631q24 18 46 18v28l-9 18l-18 -9h-10v27h-9v-82zM892 804h9v46h-9v-46zM929 905h9q19 0 19 18v9q-14 0 -28 -27zM938 476h9q19 0 19 18h-9q-19 -3 -19 -18zM938 695h9q19 0 19 18l-19 9l-9 -18v-9zM947 174 q3 19 19 19h228q18 -3 18 -19q0 -18 -46 -18v-109q0 -19 -18 -19t-18 19v109q-46 0 -46 9q-13 -9 -55 -9v-109q0 -19 -17 -19q-19 0 -19 19v109q-46 0 -46 18zM957 667h27q0 19 -18 19zM975 539q18 0 63 -27h10v9q-19 0 -64 28h-9v-10zM984 494l155 -27v9q-16 48 -73 82v-9 q12 0 46 -46v-9q-69 64 -92 64h-8v-9q42 0 82 -55h-10q-9 0 -9 9l-18 -9l-45 9h-28v-9zM984 941q20 -46 73 -64v9q-14 55 -64 55h-9zM993 741h9l10 45v9h-10l-9 -37v-17zM1002 585q14 0 36 -18v9q-9 18 -9 28q-17 -9 -27 -9v-10zM1020 732l28 -19h18l-9 45v37h18l-9 64 l-46 -36l9 -46zM1038 604q10 0 28 -9v36h-28v-27zM1103 1225q18 0 18 18t-18 18v-36zM1157 1261l9 -46h9v46h-18zM1157 1325v18q15 0 110 9q42 -17 45 -36v-10h-9l-45 28q-81 -9 -101 -9zM1175 741q0 -131 174 -183v82q19 -3 19 -19v-63h72q101 0 101 100q9 34 9 83h-9 q-98 -83 -137 -83v9l-18 -9l-28 19q0 -19 -18 -19q0 14 -28 28l-27 -19q-36 24 -36 37l-18 -9l-10 18q10 0 10 9q-28 0 -28 19q9 0 9 8h-18zM1175 804h28v-9l-9 -18h27l-9 18q9 0 9 9q-9 0 -27 10h-19v-10zM1175 859q0 -20 110 -45q0 -11 55 -46q69 18 82 18l-9 -18 q36 5 36 27h19q89 -27 100 -27v18q-10 0 -100 18h-82v19h73v9q-64 13 -64 100l-18 -9h-19q-51 0 -137 46q-9 -63 -9 -83q68 -33 73 -54v-9q-73 54 -110 54v-18zM1203 1179q9 -37 55 -37l9 46l-18 9q-16 -9 -37 -9q0 9 -9 9v-18zM1212 110q12 83 82 83q83 -13 83 -83 q0 -68 -74 -91q-91 12 -91 91zM1231 1252q2 -18 18 -18l9 18h-27zM1249 83q0 -13 27 -27h36q14 0 28 27v45q0 15 -37 37h-18q-14 0 -36 -37v-45zM1249 804q14 0 36 -18v9l-27 19h-9v-10zM1303 1023v9h9l19 -9q16 9 37 9q12 0 27 -26q0 -14 -27 -28h-28q-13 1 -37 45z M1322 841v9l18 -9q13 36 28 36h9q-19 -54 -37 -54t-18 18zM1340 1051v18h37q0 -18 -19 -18h-18zM1377 1197l18 9q0 -14 18 -37v-9q-14 0 -36 37zM1386 101v37q32 55 82 55q73 0 73 -74v-45q-35 -55 -82 -55q-59 0 -73 82zM1413 110q19 -54 36 -54h37q28 9 28 54 q-8 55 -55 55q-27 -1 -46 -55zM1413 704q3 -18 18 -18v9q0 18 -18 18v-9zM1431 1188q12 -46 28 -46h9q13 0 27 27v19q-9 0 -27 9l-9 -18l-19 9h-9zM1468 722h18q0 27 46 27v9h-55l-9 -17q9 0 9 -9q-9 0 -9 -10zM1486 1352l46 -9v19h-46v-10zM1523 1197h9q0 7 9 55v9h-9 q-9 -48 -9 -55v-9zM1550 184l18 9q28 -36 28 -101h18q13 101 37 101h9q20 0 36 -110h9q12 110 37 110q18 -3 18 -19q-40 -146 -55 -146h-9q-21 0 -36 110h-9q-24 -110 -46 -110q-28 0 -55 156zM1596 686q33 -128 55 -128l18 27q-18 0 -18 19h18q0 17 -18 17h-9l9 -17h-9 q-19 0 -19 17l28 37q-9 18 -9 28l18 9l18 -9v9q-18 73 -73 73l-9 -19v-63zM1660 539q18 0 18 19v9q-18 -3 -18 -18v-10zM1760 128q27 65 82 65q83 0 83 -101q-30 -73 -83 -73q-82 0 -82 109zM1797 83q0 -13 27 -27h36q14 0 28 27v45q0 15 -37 37q-54 0 -54 -55v-27z M1933 101v18q0 74 83 74q73 0 73 -74v-45q-35 -55 -82 -55q-59 0 -74 82zM1961 101q18 -42 37 -45h36q28 9 28 54q-8 55 -55 55q-46 -14 -46 -64zM2107 47l18 9q19 -3 19 -19l-19 -9q-18 0 -18 19zM2162 128q27 65 82 65q64 0 64 -55l-18 -10q-31 37 -55 37q-37 -9 -37 -55 v-27q0 -13 28 -27h27q41 36 46 36l9 -18v-9q-25 -46 -73 -46q-73 0 -73 109zM2317 110q18 83 82 83q82 -13 82 -83v-9q-11 -82 -82 -82q-82 21 -82 91zM2353 110q7 -54 28 -54h37q13 0 27 27v27q0 55 -46 55q-41 -18 -46 -37v-18zM2500 47v127q3 19 18 19h9q21 0 46 -119h9 q30 119 55 119q18 -3 18 -19v-127q0 -19 -18 -19q-10 6 -10 82h-9q-18 -82 -36 -82h-9q-21 0 -37 91h-9q0 -91 -18 -91z" />
<glyph unicode="(" d="M25 184l18 9q24 0 37 -110h9q18 110 45 110q21 0 46 -101h10q6 101 36 101h27q16 0 37 -101h9q13 101 37 101h9q23 0 36 -101h9q18 101 37 101h27q28 0 36 -101q11 0 46 101h9q26 0 46 -101h10q9 101 36 101h9v-19q-24 -146 -55 -146q-23 0 -36 100h-19 q-13 -100 -36 -100q-27 0 -55 137h-9q-21 -137 -46 -137q-30 0 -45 110h-9q-19 -110 -46 -110q-28 0 -46 128q-12 0 -54 -128h-10q-20 0 -46 100h-9q-13 -100 -36 -100h-9q-18 0 -55 156zM655 47l18 9l10 -19l-19 -9zM701 174q3 19 18 19h101q18 -3 18 -19q0 -18 -55 -18 v-109q0 -19 -19 -19q-17 0 -17 19v109q-46 0 -46 18zM810 37q57 156 73 156q24 0 83 -156l-19 -9q-25 0 -27 46h-64q-7 -46 -27 -46zM865 777q21 174 101 174q-9 107 -9 155v82q0 381 191 484q58 27 210 36q82 0 165 -137q73 -51 73 -109v-28q0 -35 -46 -82v-64 q46 -6 46 -27q-55 -9 -55 -92v-81h-18v63q-34 -27 -64 -27h-19q-13 0 -27 27q0 9 9 9q-9 37 -9 65l-18 -10v19q27 65 82 82l55 -19v28l-64 9q-31 0 -64 -28l-9 19q45 24 45 37h-18l-45 -10l-46 10q-10 0 -28 -10q-36 10 -63 10q-12 0 -92 -10q0 10 -9 10l-9 -19l18 -9 l-9 -18v-19q69 19 82 19q82 -29 82 -91l-18 9v-46l9 -46l-27 -18h-27q-83 0 -83 101h-9v-37q0 -210 110 -210q0 -16 100 -37q156 53 156 128h18q0 -17 -27 -73q-10 -145 -10 -173q192 -39 192 -110q9 -15 9 -46v-155q0 -73 9 -191q-18 -42 -36 -46h-9v9l18 27v210 q-21 0 -36 9q0 -182 -247 -182v18q117 18 137 18v9q-446 74 -548 74q0 -48 -27 -55h-10v9l19 37q-35 0 -55 18v-9q0 -14 27 -110q-52 0 -73 420zM875 101h26v9q-9 18 -9 28q-17 -3 -17 -19v-18zM883 768q46 0 46 -36h18q3 45 28 45q-9 18 -9 27h-9q-24 -27 -74 -27v-9z M892 604q3 -19 19 -19l27 36l-18 10q0 -27 -28 -27zM892 631q24 18 46 18v28l-9 18l-18 -9h-10v27h-9v-82zM892 804h9v46h-9v-46zM929 905h9q19 0 19 18v9q-14 0 -28 -27zM938 476h9q19 0 19 18h-9q-19 -3 -19 -18zM938 695h9q19 0 19 18l-19 9l-9 -18v-9zM947 174 q3 19 19 19h228q18 -3 18 -19q0 -18 -46 -18v-109q0 -19 -18 -19t-18 19v109q-46 0 -46 9q-13 -9 -55 -9v-109q0 -19 -17 -19q-19 0 -19 19v109q-46 0 -46 18zM957 667h27q0 19 -18 19zM975 539q18 0 63 -27h10v9q-19 0 -64 28h-9v-10zM984 494l155 -27v9q-16 48 -73 82v-9 q12 0 46 -46v-9q-69 64 -92 64h-8v-9q42 0 82 -55h-10q-9 0 -9 9l-18 -9l-45 9h-28v-9zM984 941q20 -46 73 -64v9q-14 55 -64 55h-9zM993 741h9l10 45v9h-10l-9 -37v-17zM1002 585q14 0 36 -18v9q-9 18 -9 28q-17 -9 -27 -9v-10zM1020 732l28 -19h18l-9 45v37h18l-9 64 l-46 -36l9 -46zM1038 604q10 0 28 -9v36h-28v-27zM1103 1225q18 0 18 18t-18 18v-36zM1157 1261l9 -46h9v46h-18zM1157 1325v18q15 0 110 9q42 -17 45 -36v-10h-9l-45 28q-81 -9 -101 -9zM1175 741q0 -131 174 -183v82q19 -3 19 -19v-63h72q101 0 101 100q9 34 9 83h-9 q-98 -83 -137 -83v9l-18 -9l-28 19q0 -19 -18 -19q0 14 -28 28l-27 -19q-36 24 -36 37l-18 -9l-10 18q10 0 10 9q-28 0 -28 19q9 0 9 8h-18zM1175 804h28v-9l-9 -18h27l-9 18q9 0 9 9q-9 0 -27 10h-19v-10zM1175 859q0 -20 110 -45q0 -11 55 -46q69 18 82 18l-9 -18 q36 5 36 27h19q89 -27 100 -27v18q-10 0 -100 18h-82v19h73v9q-64 13 -64 100l-18 -9h-19q-51 0 -137 46q-9 -63 -9 -83q68 -33 73 -54v-9q-73 54 -110 54v-18zM1203 1179q9 -37 55 -37l9 46l-18 9q-16 -9 -37 -9q0 9 -9 9v-18zM1212 110q12 83 82 83q83 -13 83 -83 q0 -68 -74 -91q-91 12 -91 91zM1231 1252q2 -18 18 -18l9 18h-27zM1249 83q0 -13 27 -27h36q14 0 28 27v45q0 15 -37 37h-18q-14 0 -36 -37v-45zM1249 804q14 0 36 -18v9l-27 19h-9v-10zM1303 1023v9h9l19 -9q16 9 37 9q12 0 27 -26q0 -14 -27 -28h-28q-13 1 -37 45z M1322 841v9l18 -9q13 36 28 36h9q-19 -54 -37 -54t-18 18zM1340 1051v18h37q0 -18 -19 -18h-18zM1377 1197l18 9q0 -14 18 -37v-9q-14 0 -36 37zM1386 101v37q32 55 82 55q73 0 73 -74v-45q-35 -55 -82 -55q-59 0 -73 82zM1413 110q19 -54 36 -54h37q28 9 28 54 q-8 55 -55 55q-27 -1 -46 -55zM1413 704q3 -18 18 -18v9q0 18 -18 18v-9zM1431 1188q12 -46 28 -46h9q13 0 27 27v19q-9 0 -27 9l-9 -18l-19 9h-9zM1468 722h18q0 27 46 27v9h-55l-9 -17q9 0 9 -9q-9 0 -9 -10zM1486 1352l46 -9v19h-46v-10zM1523 1197h9q0 7 9 55v9h-9 q-9 -48 -9 -55v-9zM1550 184l18 9q28 -36 28 -101h18q13 101 37 101h9q20 0 36 -110h9q12 110 37 110q18 -3 18 -19q-40 -146 -55 -146h-9q-21 0 -36 110h-9q-24 -110 -46 -110q-28 0 -55 156zM1596 686q33 -128 55 -128l18 27q-18 0 -18 19h18q0 17 -18 17h-9l9 -17h-9 q-19 0 -19 17l28 37q-9 18 -9 28l18 9l18 -9v9q-18 73 -73 73l-9 -19v-63zM1660 539q18 0 18 19v9q-18 -3 -18 -18v-10zM1760 128q27 65 82 65q83 0 83 -101q-30 -73 -83 -73q-82 0 -82 109zM1797 83q0 -13 27 -27h36q14 0 28 27v45q0 15 -37 37q-54 0 -54 -55v-27z M1933 101v18q0 74 83 74q73 0 73 -74v-45q-35 -55 -82 -55q-59 0 -74 82zM1961 101q18 -42 37 -45h36q28 9 28 54q-8 55 -55 55q-46 -14 -46 -64zM2107 47l18 9q19 -3 19 -19l-19 -9q-18 0 -18 19zM2162 128q27 65 82 65q64 0 64 -55l-18 -10q-31 37 -55 37q-37 -9 -37 -55 v-27q0 -13 28 -27h27q41 36 46 36l9 -18v-9q-25 -46 -73 -46q-73 0 -73 109zM2317 110q18 83 82 83q82 -13 82 -83v-9q-11 -82 -82 -82q-82 21 -82 91zM2353 110q7 -54 28 -54h37q13 0 27 27v27q0 55 -46 55q-41 -18 -46 -37v-18zM2500 47v127q3 19 18 19h9q21 0 46 -119h9 q30 119 55 119q18 -3 18 -19v-127q0 -19 -18 -19q-10 6 -10 82h-9q-18 -82 -36 -82h-9q-21 0 -37 91h-9q0 -91 -18 -91z" />
<glyph unicode=")" d="M25 184l18 9q24 0 37 -110h9q18 110 45 110q21 0 46 -101h10q6 101 36 101h27q16 0 37 -101h9q13 101 37 101h9q23 0 36 -101h9q18 101 37 101h27q28 0 36 -101q11 0 46 101h9q26 0 46 -101h10q9 101 36 101h9v-19q-24 -146 -55 -146q-23 0 -36 100h-19 q-13 -100 -36 -100q-27 0 -55 137h-9q-21 -137 -46 -137q-30 0 -45 110h-9q-19 -110 -46 -110q-28 0 -46 128q-12 0 -54 -128h-10q-20 0 -46 100h-9q-13 -100 -36 -100h-9q-18 0 -55 156zM655 47l18 9l10 -19l-19 -9zM701 174q3 19 18 19h101q18 -3 18 -19q0 -18 -55 -18 v-109q0 -19 -19 -19q-17 0 -17 19v109q-46 0 -46 18zM810 37q57 156 73 156q24 0 83 -156l-19 -9q-25 0 -27 46h-64q-7 -46 -27 -46zM865 777q21 174 101 174q-9 107 -9 155v82q0 381 191 484q58 27 210 36q82 0 165 -137q73 -51 73 -109v-28q0 -35 -46 -82v-64 q46 -6 46 -27q-55 -9 -55 -92v-81h-18v63q-34 -27 -64 -27h-19q-13 0 -27 27q0 9 9 9q-9 37 -9 65l-18 -10v19q27 65 82 82l55 -19v28l-64 9q-31 0 -64 -28l-9 19q45 24 45 37h-18l-45 -10l-46 10q-10 0 -28 -10q-36 10 -63 10q-12 0 -92 -10q0 10 -9 10l-9 -19l18 -9 l-9 -18v-19q69 19 82 19q82 -29 82 -91l-18 9v-46l9 -46l-27 -18h-27q-83 0 -83 101h-9v-37q0 -210 110 -210q0 -16 100 -37q156 53 156 128h18q0 -17 -27 -73q-10 -145 -10 -173q192 -39 192 -110q9 -15 9 -46v-155q0 -73 9 -191q-18 -42 -36 -46h-9v9l18 27v210 q-21 0 -36 9q0 -182 -247 -182v18q117 18 137 18v9q-446 74 -548 74q0 -48 -27 -55h-10v9l19 37q-35 0 -55 18v-9q0 -14 27 -110q-52 0 -73 420zM875 101h26v9q-9 18 -9 28q-17 -3 -17 -19v-18zM883 768q46 0 46 -36h18q3 45 28 45q-9 18 -9 27h-9q-24 -27 -74 -27v-9z M892 604q3 -19 19 -19l27 36l-18 10q0 -27 -28 -27zM892 631q24 18 46 18v28l-9 18l-18 -9h-10v27h-9v-82zM892 804h9v46h-9v-46zM929 905h9q19 0 19 18v9q-14 0 -28 -27zM938 476h9q19 0 19 18h-9q-19 -3 -19 -18zM938 695h9q19 0 19 18l-19 9l-9 -18v-9zM947 174 q3 19 19 19h228q18 -3 18 -19q0 -18 -46 -18v-109q0 -19 -18 -19t-18 19v109q-46 0 -46 9q-13 -9 -55 -9v-109q0 -19 -17 -19q-19 0 -19 19v109q-46 0 -46 18zM957 667h27q0 19 -18 19zM975 539q18 0 63 -27h10v9q-19 0 -64 28h-9v-10zM984 494l155 -27v9q-16 48 -73 82v-9 q12 0 46 -46v-9q-69 64 -92 64h-8v-9q42 0 82 -55h-10q-9 0 -9 9l-18 -9l-45 9h-28v-9zM984 941q20 -46 73 -64v9q-14 55 -64 55h-9zM993 741h9l10 45v9h-10l-9 -37v-17zM1002 585q14 0 36 -18v9q-9 18 -9 28q-17 -9 -27 -9v-10zM1020 732l28 -19h18l-9 45v37h18l-9 64 l-46 -36l9 -46zM1038 604q10 0 28 -9v36h-28v-27zM1103 1225q18 0 18 18t-18 18v-36zM1157 1261l9 -46h9v46h-18zM1157 1325v18q15 0 110 9q42 -17 45 -36v-10h-9l-45 28q-81 -9 -101 -9zM1175 741q0 -131 174 -183v82q19 -3 19 -19v-63h72q101 0 101 100q9 34 9 83h-9 q-98 -83 -137 -83v9l-18 -9l-28 19q0 -19 -18 -19q0 14 -28 28l-27 -19q-36 24 -36 37l-18 -9l-10 18q10 0 10 9q-28 0 -28 19q9 0 9 8h-18zM1175 804h28v-9l-9 -18h27l-9 18q9 0 9 9q-9 0 -27 10h-19v-10zM1175 859q0 -20 110 -45q0 -11 55 -46q69 18 82 18l-9 -18 q36 5 36 27h19q89 -27 100 -27v18q-10 0 -100 18h-82v19h73v9q-64 13 -64 100l-18 -9h-19q-51 0 -137 46q-9 -63 -9 -83q68 -33 73 -54v-9q-73 54 -110 54v-18zM1203 1179q9 -37 55 -37l9 46l-18 9q-16 -9 -37 -9q0 9 -9 9v-18zM1212 110q12 83 82 83q83 -13 83 -83 q0 -68 -74 -91q-91 12 -91 91zM1231 1252q2 -18 18 -18l9 18h-27zM1249 83q0 -13 27 -27h36q14 0 28 27v45q0 15 -37 37h-18q-14 0 -36 -37v-45zM1249 804q14 0 36 -18v9l-27 19h-9v-10zM1303 1023v9h9l19 -9q16 9 37 9q12 0 27 -26q0 -14 -27 -28h-28q-13 1 -37 45z M1322 841v9l18 -9q13 36 28 36h9q-19 -54 -37 -54t-18 18zM1340 1051v18h37q0 -18 -19 -18h-18zM1377 1197l18 9q0 -14 18 -37v-9q-14 0 -36 37zM1386 101v37q32 55 82 55q73 0 73 -74v-45q-35 -55 -82 -55q-59 0 -73 82zM1413 110q19 -54 36 -54h37q28 9 28 54 q-8 55 -55 55q-27 -1 -46 -55zM1413 704q3 -18 18 -18v9q0 18 -18 18v-9zM1431 1188q12 -46 28 -46h9q13 0 27 27v19q-9 0 -27 9l-9 -18l-19 9h-9zM1468 722h18q0 27 46 27v9h-55l-9 -17q9 0 9 -9q-9 0 -9 -10zM1486 1352l46 -9v19h-46v-10zM1523 1197h9q0 7 9 55v9h-9 q-9 -48 -9 -55v-9zM1550 184l18 9q28 -36 28 -101h18q13 101 37 101h9q20 0 36 -110h9q12 110 37 110q18 -3 18 -19q-40 -146 -55 -146h-9q-21 0 -36 110h-9q-24 -110 -46 -110q-28 0 -55 156zM1596 686q33 -128 55 -128l18 27q-18 0 -18 19h18q0 17 -18 17h-9l9 -17h-9 q-19 0 -19 17l28 37q-9 18 -9 28l18 9l18 -9v9q-18 73 -73 73l-9 -19v-63zM1660 539q18 0 18 19v9q-18 -3 -18 -18v-10zM1760 128q27 65 82 65q83 0 83 -101q-30 -73 -83 -73q-82 0 -82 109zM1797 83q0 -13 27 -27h36q14 0 28 27v45q0 15 -37 37q-54 0 -54 -55v-27z M1933 101v18q0 74 83 74q73 0 73 -74v-45q-35 -55 -82 -55q-59 0 -74 82zM1961 101q18 -42 37 -45h36q28 9 28 54q-8 55 -55 55q-46 -14 -46 -64zM2107 47l18 9q19 -3 19 -19l-19 -9q-18 0 -18 19zM2162 128q27 65 82 65q64 0 64 -55l-18 -10q-31 37 -55 37q-37 -9 -37 -55 v-27q0 -13 28 -27h27q41 36 46 36l9 -18v-9q-25 -46 -73 -46q-73 0 -73 109zM2317 110q18 83 82 83q82 -13 82 -83v-9q-11 -82 -82 -82q-82 21 -82 91zM2353 110q7 -54 28 -54h37q13 0 27 27v27q0 55 -46 55q-41 -18 -46 -37v-18zM2500 47v127q3 19 18 19h9q21 0 46 -119h9 q30 119 55 119q18 -3 18 -19v-127q0 -19 -18 -19q-10 6 -10 82h-9q-18 -82 -36 -82h-9q-21 0 -37 91h-9q0 -91 -18 -91z" />
<glyph unicode="*" d="M25 184l18 9q24 0 37 -110h9q18 110 45 110q21 0 46 -101h10q6 101 36 101h27q16 0 37 -101h9q13 101 37 101h9q23 0 36 -101h9q18 101 37 101h27q28 0 36 -101q11 0 46 101h9q26 0 46 -101h10q9 101 36 101h9v-19q-24 -146 -55 -146q-23 0 -36 100h-19 q-13 -100 -36 -100q-27 0 -55 137h-9q-21 -137 -46 -137q-30 0 -45 110h-9q-19 -110 -46 -110q-28 0 -46 128q-12 0 -54 -128h-10q-20 0 -46 100h-9q-13 -100 -36 -100h-9q-18 0 -55 156zM655 47l18 9l10 -19l-19 -9zM701 174q3 19 18 19h101q18 -3 18 -19q0 -18 -55 -18 v-109q0 -19 -19 -19q-17 0 -17 19v109q-46 0 -46 18zM810 37q57 156 73 156q24 0 83 -156l-19 -9q-25 0 -27 46h-64q-7 -46 -27 -46zM865 777q21 174 101 174q-9 107 -9 155v82q0 381 191 484q58 27 210 36q82 0 165 -137q73 -51 73 -109v-28q0 -35 -46 -82v-64 q46 -6 46 -27q-55 -9 -55 -92v-81h-18v63q-34 -27 -64 -27h-19q-13 0 -27 27q0 9 9 9q-9 37 -9 65l-18 -10v19q27 65 82 82l55 -19v28l-64 9q-31 0 -64 -28l-9 19q45 24 45 37h-18l-45 -10l-46 10q-10 0 -28 -10q-36 10 -63 10q-12 0 -92 -10q0 10 -9 10l-9 -19l18 -9 l-9 -18v-19q69 19 82 19q82 -29 82 -91l-18 9v-46l9 -46l-27 -18h-27q-83 0 -83 101h-9v-37q0 -210 110 -210q0 -16 100 -37q156 53 156 128h18q0 -17 -27 -73q-10 -145 -10 -173q192 -39 192 -110q9 -15 9 -46v-155q0 -73 9 -191q-18 -42 -36 -46h-9v9l18 27v210 q-21 0 -36 9q0 -182 -247 -182v18q117 18 137 18v9q-446 74 -548 74q0 -48 -27 -55h-10v9l19 37q-35 0 -55 18v-9q0 -14 27 -110q-52 0 -73 420zM875 101h26v9q-9 18 -9 28q-17 -3 -17 -19v-18zM883 768q46 0 46 -36h18q3 45 28 45q-9 18 -9 27h-9q-24 -27 -74 -27v-9z M892 604q3 -19 19 -19l27 36l-18 10q0 -27 -28 -27zM892 631q24 18 46 18v28l-9 18l-18 -9h-10v27h-9v-82zM892 804h9v46h-9v-46zM929 905h9q19 0 19 18v9q-14 0 -28 -27zM938 476h9q19 0 19 18h-9q-19 -3 -19 -18zM938 695h9q19 0 19 18l-19 9l-9 -18v-9zM947 174 q3 19 19 19h228q18 -3 18 -19q0 -18 -46 -18v-109q0 -19 -18 -19t-18 19v109q-46 0 -46 9q-13 -9 -55 -9v-109q0 -19 -17 -19q-19 0 -19 19v109q-46 0 -46 18zM957 667h27q0 19 -18 19zM975 539q18 0 63 -27h10v9q-19 0 -64 28h-9v-10zM984 494l155 -27v9q-16 48 -73 82v-9 q12 0 46 -46v-9q-69 64 -92 64h-8v-9q42 0 82 -55h-10q-9 0 -9 9l-18 -9l-45 9h-28v-9zM984 941q20 -46 73 -64v9q-14 55 -64 55h-9zM993 741h9l10 45v9h-10l-9 -37v-17zM1002 585q14 0 36 -18v9q-9 18 -9 28q-17 -9 -27 -9v-10zM1020 732l28 -19h18l-9 45v37h18l-9 64 l-46 -36l9 -46zM1038 604q10 0 28 -9v36h-28v-27zM1103 1225q18 0 18 18t-18 18v-36zM1157 1261l9 -46h9v46h-18zM1157 1325v18q15 0 110 9q42 -17 45 -36v-10h-9l-45 28q-81 -9 -101 -9zM1175 741q0 -131 174 -183v82q19 -3 19 -19v-63h72q101 0 101 100q9 34 9 83h-9 q-98 -83 -137 -83v9l-18 -9l-28 19q0 -19 -18 -19q0 14 -28 28l-27 -19q-36 24 -36 37l-18 -9l-10 18q10 0 10 9q-28 0 -28 19q9 0 9 8h-18zM1175 804h28v-9l-9 -18h27l-9 18q9 0 9 9q-9 0 -27 10h-19v-10zM1175 859q0 -20 110 -45q0 -11 55 -46q69 18 82 18l-9 -18 q36 5 36 27h19q89 -27 100 -27v18q-10 0 -100 18h-82v19h73v9q-64 13 -64 100l-18 -9h-19q-51 0 -137 46q-9 -63 -9 -83q68 -33 73 -54v-9q-73 54 -110 54v-18zM1203 1179q9 -37 55 -37l9 46l-18 9q-16 -9 -37 -9q0 9 -9 9v-18zM1212 110q12 83 82 83q83 -13 83 -83 q0 -68 -74 -91q-91 12 -91 91zM1231 1252q2 -18 18 -18l9 18h-27zM1249 83q0 -13 27 -27h36q14 0 28 27v45q0 15 -37 37h-18q-14 0 -36 -37v-45zM1249 804q14 0 36 -18v9l-27 19h-9v-10zM1303 1023v9h9l19 -9q16 9 37 9q12 0 27 -26q0 -14 -27 -28h-28q-13 1 -37 45z M1322 841v9l18 -9q13 36 28 36h9q-19 -54 -37 -54t-18 18zM1340 1051v18h37q0 -18 -19 -18h-18zM1377 1197l18 9q0 -14 18 -37v-9q-14 0 -36 37zM1386 101v37q32 55 82 55q73 0 73 -74v-45q-35 -55 -82 -55q-59 0 -73 82zM1413 110q19 -54 36 -54h37q28 9 28 54 q-8 55 -55 55q-27 -1 -46 -55zM1413 704q3 -18 18 -18v9q0 18 -18 18v-9zM1431 1188q12 -46 28 -46h9q13 0 27 27v19q-9 0 -27 9l-9 -18l-19 9h-9zM1468 722h18q0 27 46 27v9h-55l-9 -17q9 0 9 -9q-9 0 -9 -10zM1486 1352l46 -9v19h-46v-10zM1523 1197h9q0 7 9 55v9h-9 q-9 -48 -9 -55v-9zM1550 184l18 9q28 -36 28 -101h18q13 101 37 101h9q20 0 36 -110h9q12 110 37 110q18 -3 18 -19q-40 -146 -55 -146h-9q-21 0 -36 110h-9q-24 -110 -46 -110q-28 0 -55 156zM1596 686q33 -128 55 -128l18 27q-18 0 -18 19h18q0 17 -18 17h-9l9 -17h-9 q-19 0 -19 17l28 37q-9 18 -9 28l18 9l18 -9v9q-18 73 -73 73l-9 -19v-63zM1660 539q18 0 18 19v9q-18 -3 -18 -18v-10zM1760 128q27 65 82 65q83 0 83 -101q-30 -73 -83 -73q-82 0 -82 109zM1797 83q0 -13 27 -27h36q14 0 28 27v45q0 15 -37 37q-54 0 -54 -55v-27z M1933 101v18q0 74 83 74q73 0 73 -74v-45q-35 -55 -82 -55q-59 0 -74 82zM1961 101q18 -42 37 -45h36q28 9 28 54q-8 55 -55 55q-46 -14 -46 -64zM2107 47l18 9q19 -3 19 -19l-19 -9q-18 0 -18 19zM2162 128q27 65 82 65q64 0 64 -55l-18 -10q-31 37 -55 37q-37 -9 -37 -55 v-27q0 -13 28 -27h27q41 36 46 36l9 -18v-9q-25 -46 -73 -46q-73 0 -73 109zM2317 110q18 83 82 83q82 -13 82 -83v-9q-11 -82 -82 -82q-82 21 -82 91zM2353 110q7 -54 28 -54h37q13 0 27 27v27q0 55 -46 55q-41 -18 -46 -37v-18zM2500 47v127q3 19 18 19h9q21 0 46 -119h9 q30 119 55 119q18 -3 18 -19v-127q0 -19 -18 -19q-10 6 -10 82h-9q-18 -82 -36 -82h-9q-21 0 -37 91h-9q0 -91 -18 -91z" />
<glyph unicode="+" d="M25 184l18 9q24 0 37 -110h9q18 110 45 110q21 0 46 -101h10q6 101 36 101h27q16 0 37 -101h9q13 101 37 101h9q23 0 36 -101h9q18 101 37 101h27q28 0 36 -101q11 0 46 101h9q26 0 46 -101h10q9 101 36 101h9v-19q-24 -146 -55 -146q-23 0 -36 100h-19 q-13 -100 -36 -100q-27 0 -55 137h-9q-21 -137 -46 -137q-30 0 -45 110h-9q-19 -110 -46 -110q-28 0 -46 128q-12 0 -54 -128h-10q-20 0 -46 100h-9q-13 -100 -36 -100h-9q-18 0 -55 156zM655 47l18 9l10 -19l-19 -9zM701 174q3 19 18 19h101q18 -3 18 -19q0 -18 -55 -18 v-109q0 -19 -19 -19q-17 0 -17 19v109q-46 0 -46 18zM810 37q57 156 73 156q24 0 83 -156l-19 -9q-25 0 -27 46h-64q-7 -46 -27 -46zM865 777q21 174 101 174q-9 107 -9 155v82q0 381 191 484q58 27 210 36q82 0 165 -137q73 -51 73 -109v-28q0 -35 -46 -82v-64 q46 -6 46 -27q-55 -9 -55 -92v-81h-18v63q-34 -27 -64 -27h-19q-13 0 -27 27q0 9 9 9q-9 37 -9 65l-18 -10v19q27 65 82 82l55 -19v28l-64 9q-31 0 -64 -28l-9 19q45 24 45 37h-18l-45 -10l-46 10q-10 0 -28 -10q-36 10 -63 10q-12 0 -92 -10q0 10 -9 10l-9 -19l18 -9 l-9 -18v-19q69 19 82 19q82 -29 82 -91l-18 9v-46l9 -46l-27 -18h-27q-83 0 -83 101h-9v-37q0 -210 110 -210q0 -16 100 -37q156 53 156 128h18q0 -17 -27 -73q-10 -145 -10 -173q192 -39 192 -110q9 -15 9 -46v-155q0 -73 9 -191q-18 -42 -36 -46h-9v9l18 27v210 q-21 0 -36 9q0 -182 -247 -182v18q117 18 137 18v9q-446 74 -548 74q0 -48 -27 -55h-10v9l19 37q-35 0 -55 18v-9q0 -14 27 -110q-52 0 -73 420zM875 101h26v9q-9 18 -9 28q-17 -3 -17 -19v-18zM883 768q46 0 46 -36h18q3 45 28 45q-9 18 -9 27h-9q-24 -27 -74 -27v-9z M892 604q3 -19 19 -19l27 36l-18 10q0 -27 -28 -27zM892 631q24 18 46 18v28l-9 18l-18 -9h-10v27h-9v-82zM892 804h9v46h-9v-46zM929 905h9q19 0 19 18v9q-14 0 -28 -27zM938 476h9q19 0 19 18h-9q-19 -3 -19 -18zM938 695h9q19 0 19 18l-19 9l-9 -18v-9zM947 174 q3 19 19 19h228q18 -3 18 -19q0 -18 -46 -18v-109q0 -19 -18 -19t-18 19v109q-46 0 -46 9q-13 -9 -55 -9v-109q0 -19 -17 -19q-19 0 -19 19v109q-46 0 -46 18zM957 667h27q0 19 -18 19zM975 539q18 0 63 -27h10v9q-19 0 -64 28h-9v-10zM984 494l155 -27v9q-16 48 -73 82v-9 q12 0 46 -46v-9q-69 64 -92 64h-8v-9q42 0 82 -55h-10q-9 0 -9 9l-18 -9l-45 9h-28v-9zM984 941q20 -46 73 -64v9q-14 55 -64 55h-9zM993 741h9l10 45v9h-10l-9 -37v-17zM1002 585q14 0 36 -18v9q-9 18 -9 28q-17 -9 -27 -9v-10zM1020 732l28 -19h18l-9 45v37h18l-9 64 l-46 -36l9 -46zM1038 604q10 0 28 -9v36h-28v-27zM1103 1225q18 0 18 18t-18 18v-36zM1157 1261l9 -46h9v46h-18zM1157 1325v18q15 0 110 9q42 -17 45 -36v-10h-9l-45 28q-81 -9 -101 -9zM1175 741q0 -131 174 -183v82q19 -3 19 -19v-63h72q101 0 101 100q9 34 9 83h-9 q-98 -83 -137 -83v9l-18 -9l-28 19q0 -19 -18 -19q0 14 -28 28l-27 -19q-36 24 -36 37l-18 -9l-10 18q10 0 10 9q-28 0 -28 19q9 0 9 8h-18zM1175 804h28v-9l-9 -18h27l-9 18q9 0 9 9q-9 0 -27 10h-19v-10zM1175 859q0 -20 110 -45q0 -11 55 -46q69 18 82 18l-9 -18 q36 5 36 27h19q89 -27 100 -27v18q-10 0 -100 18h-82v19h73v9q-64 13 -64 100l-18 -9h-19q-51 0 -137 46q-9 -63 -9 -83q68 -33 73 -54v-9q-73 54 -110 54v-18zM1203 1179q9 -37 55 -37l9 46l-18 9q-16 -9 -37 -9q0 9 -9 9v-18zM1212 110q12 83 82 83q83 -13 83 -83 q0 -68 -74 -91q-91 12 -91 91zM1231 1252q2 -18 18 -18l9 18h-27zM1249 83q0 -13 27 -27h36q14 0 28 27v45q0 15 -37 37h-18q-14 0 -36 -37v-45zM1249 804q14 0 36 -18v9l-27 19h-9v-10zM1303 1023v9h9l19 -9q16 9 37 9q12 0 27 -26q0 -14 -27 -28h-28q-13 1 -37 45z M1322 841v9l18 -9q13 36 28 36h9q-19 -54 -37 -54t-18 18zM1340 1051v18h37q0 -18 -19 -18h-18zM1377 1197l18 9q0 -14 18 -37v-9q-14 0 -36 37zM1386 101v37q32 55 82 55q73 0 73 -74v-45q-35 -55 -82 -55q-59 0 -73 82zM1413 110q19 -54 36 -54h37q28 9 28 54 q-8 55 -55 55q-27 -1 -46 -55zM1413 704q3 -18 18 -18v9q0 18 -18 18v-9zM1431 1188q12 -46 28 -46h9q13 0 27 27v19q-9 0 -27 9l-9 -18l-19 9h-9zM1468 722h18q0 27 46 27v9h-55l-9 -17q9 0 9 -9q-9 0 -9 -10zM1486 1352l46 -9v19h-46v-10zM1523 1197h9q0 7 9 55v9h-9 q-9 -48 -9 -55v-9zM1550 184l18 9q28 -36 28 -101h18q13 101 37 101h9q20 0 36 -110h9q12 110 37 110q18 -3 18 -19q-40 -146 -55 -146h-9q-21 0 -36 110h-9q-24 -110 -46 -110q-28 0 -55 156zM1596 686q33 -128 55 -128l18 27q-18 0 -18 19h18q0 17 -18 17h-9l9 -17h-9 q-19 0 -19 17l28 37q-9 18 -9 28l18 9l18 -9v9q-18 73 -73 73l-9 -19v-63zM1660 539q18 0 18 19v9q-18 -3 -18 -18v-10zM1760 128q27 65 82 65q83 0 83 -101q-30 -73 -83 -73q-82 0 -82 109zM1797 83q0 -13 27 -27h36q14 0 28 27v45q0 15 -37 37q-54 0 -54 -55v-27z M1933 101v18q0 74 83 74q73 0 73 -74v-45q-35 -55 -82 -55q-59 0 -74 82zM1961 101q18 -42 37 -45h36q28 9 28 54q-8 55 -55 55q-46 -14 -46 -64zM2107 47l18 9q19 -3 19 -19l-19 -9q-18 0 -18 19zM2162 128q27 65 82 65q64 0 64 -55l-18 -10q-31 37 -55 37q-37 -9 -37 -55 v-27q0 -13 28 -27h27q41 36 46 36l9 -18v-9q-25 -46 -73 -46q-73 0 -73 109zM2317 110q18 83 82 83q82 -13 82 -83v-9q-11 -82 -82 -82q-82 21 -82 91zM2353 110q7 -54 28 -54h37q13 0 27 27v27q0 55 -46 55q-41 -18 -46 -37v-18zM2500 47v127q3 19 18 19h9q21 0 46 -119h9 q30 119 55 119q18 -3 18 -19v-127q0 -19 -18 -19q-10 6 -10 82h-9q-18 -82 -36 -82h-9q-21 0 -37 91h-9q0 -91 -18 -91z" />
<glyph unicode="," d="M25 184l18 9q24 0 37 -110h9q18 110 45 110q21 0 46 -101h10q6 101 36 101h27q16 0 37 -101h9q13 101 37 101h9q23 0 36 -101h9q18 101 37 101h27q28 0 36 -101q11 0 46 101h9q26 0 46 -101h10q9 101 36 101h9v-19q-24 -146 -55 -146q-23 0 -36 100h-19 q-13 -100 -36 -100q-27 0 -55 137h-9q-21 -137 -46 -137q-30 0 -45 110h-9q-19 -110 -46 -110q-28 0 -46 128q-12 0 -54 -128h-10q-20 0 -46 100h-9q-13 -100 -36 -100h-9q-18 0 -55 156zM655 47l18 9l10 -19l-19 -9zM701 174q3 19 18 19h101q18 -3 18 -19q0 -18 -55 -18 v-109q0 -19 -19 -19q-17 0 -17 19v109q-46 0 -46 18zM810 37q57 156 73 156q24 0 83 -156l-19 -9q-25 0 -27 46h-64q-7 -46 -27 -46zM865 777q21 174 101 174q-9 107 -9 155v82q0 381 191 484q58 27 210 36q82 0 165 -137q73 -51 73 -109v-28q0 -35 -46 -82v-64 q46 -6 46 -27q-55 -9 -55 -92v-81h-18v63q-34 -27 -64 -27h-19q-13 0 -27 27q0 9 9 9q-9 37 -9 65l-18 -10v19q27 65 82 82l55 -19v28l-64 9q-31 0 -64 -28l-9 19q45 24 45 37h-18l-45 -10l-46 10q-10 0 -28 -10q-36 10 -63 10q-12 0 -92 -10q0 10 -9 10l-9 -19l18 -9 l-9 -18v-19q69 19 82 19q82 -29 82 -91l-18 9v-46l9 -46l-27 -18h-27q-83 0 -83 101h-9v-37q0 -210 110 -210q0 -16 100 -37q156 53 156 128h18q0 -17 -27 -73q-10 -145 -10 -173q192 -39 192 -110q9 -15 9 -46v-155q0 -73 9 -191q-18 -42 -36 -46h-9v9l18 27v210 q-21 0 -36 9q0 -182 -247 -182v18q117 18 137 18v9q-446 74 -548 74q0 -48 -27 -55h-10v9l19 37q-35 0 -55 18v-9q0 -14 27 -110q-52 0 -73 420zM875 101h26v9q-9 18 -9 28q-17 -3 -17 -19v-18zM883 768q46 0 46 -36h18q3 45 28 45q-9 18 -9 27h-9q-24 -27 -74 -27v-9z M892 604q3 -19 19 -19l27 36l-18 10q0 -27 -28 -27zM892 631q24 18 46 18v28l-9 18l-18 -9h-10v27h-9v-82zM892 804h9v46h-9v-46zM929 905h9q19 0 19 18v9q-14 0 -28 -27zM938 476h9q19 0 19 18h-9q-19 -3 -19 -18zM938 695h9q19 0 19 18l-19 9l-9 -18v-9zM947 174 q3 19 19 19h228q18 -3 18 -19q0 -18 -46 -18v-109q0 -19 -18 -19t-18 19v109q-46 0 -46 9q-13 -9 -55 -9v-109q0 -19 -17 -19q-19 0 -19 19v109q-46 0 -46 18zM957 667h27q0 19 -18 19zM975 539q18 0 63 -27h10v9q-19 0 -64 28h-9v-10zM984 494l155 -27v9q-16 48 -73 82v-9 q12 0 46 -46v-9q-69 64 -92 64h-8v-9q42 0 82 -55h-10q-9 0 -9 9l-18 -9l-45 9h-28v-9zM984 941q20 -46 73 -64v9q-14 55 -64 55h-9zM993 741h9l10 45v9h-10l-9 -37v-17zM1002 585q14 0 36 -18v9q-9 18 -9 28q-17 -9 -27 -9v-10zM1020 732l28 -19h18l-9 45v37h18l-9 64 l-46 -36l9 -46zM1038 604q10 0 28 -9v36h-28v-27zM1103 1225q18 0 18 18t-18 18v-36zM1157 1261l9 -46h9v46h-18zM1157 1325v18q15 0 110 9q42 -17 45 -36v-10h-9l-45 28q-81 -9 -101 -9zM1175 741q0 -131 174 -183v82q19 -3 19 -19v-63h72q101 0 101 100q9 34 9 83h-9 q-98 -83 -137 -83v9l-18 -9l-28 19q0 -19 -18 -19q0 14 -28 28l-27 -19q-36 24 -36 37l-18 -9l-10 18q10 0 10 9q-28 0 -28 19q9 0 9 8h-18zM1175 804h28v-9l-9 -18h27l-9 18q9 0 9 9q-9 0 -27 10h-19v-10zM1175 859q0 -20 110 -45q0 -11 55 -46q69 18 82 18l-9 -18 q36 5 36 27h19q89 -27 100 -27v18q-10 0 -100 18h-82v19h73v9q-64 13 -64 100l-18 -9h-19q-51 0 -137 46q-9 -63 -9 -83q68 -33 73 -54v-9q-73 54 -110 54v-18zM1203 1179q9 -37 55 -37l9 46l-18 9q-16 -9 -37 -9q0 9 -9 9v-18zM1212 110q12 83 82 83q83 -13 83 -83 q0 -68 -74 -91q-91 12 -91 91zM1231 1252q2 -18 18 -18l9 18h-27zM1249 83q0 -13 27 -27h36q14 0 28 27v45q0 15 -37 37h-18q-14 0 -36 -37v-45zM1249 804q14 0 36 -18v9l-27 19h-9v-10zM1303 1023v9h9l19 -9q16 9 37 9q12 0 27 -26q0 -14 -27 -28h-28q-13 1 -37 45z M1322 841v9l18 -9q13 36 28 36h9q-19 -54 -37 -54t-18 18zM1340 1051v18h37q0 -18 -19 -18h-18zM1377 1197l18 9q0 -14 18 -37v-9q-14 0 -36 37zM1386 101v37q32 55 82 55q73 0 73 -74v-45q-35 -55 -82 -55q-59 0 -73 82zM1413 110q19 -54 36 -54h37q28 9 28 54 q-8 55 -55 55q-27 -1 -46 -55zM1413 704q3 -18 18 -18v9q0 18 -18 18v-9zM1431 1188q12 -46 28 -46h9q13 0 27 27v19q-9 0 -27 9l-9 -18l-19 9h-9zM1468 722h18q0 27 46 27v9h-55l-9 -17q9 0 9 -9q-9 0 -9 -10zM1486 1352l46 -9v19h-46v-10zM1523 1197h9q0 7 9 55v9h-9 q-9 -48 -9 -55v-9zM1550 184l18 9q28 -36 28 -101h18q13 101 37 101h9q20 0 36 -110h9q12 110 37 110q18 -3 18 -19q-40 -146 -55 -146h-9q-21 0 -36 110h-9q-24 -110 -46 -110q-28 0 -55 156zM1596 686q33 -128 55 -128l18 27q-18 0 -18 19h18q0 17 -18 17h-9l9 -17h-9 q-19 0 -19 17l28 37q-9 18 -9 28l18 9l18 -9v9q-18 73 -73 73l-9 -19v-63zM1660 539q18 0 18 19v9q-18 -3 -18 -18v-10zM1760 128q27 65 82 65q83 0 83 -101q-30 -73 -83 -73q-82 0 -82 109zM1797 83q0 -13 27 -27h36q14 0 28 27v45q0 15 -37 37q-54 0 -54 -55v-27z M1933 101v18q0 74 83 74q73 0 73 -74v-45q-35 -55 -82 -55q-59 0 -74 82zM1961 101q18 -42 37 -45h36q28 9 28 54q-8 55 -55 55q-46 -14 -46 -64zM2107 47l18 9q19 -3 19 -19l-19 -9q-18 0 -18 19zM2162 128q27 65 82 65q64 0 64 -55l-18 -10q-31 37 -55 37q-37 -9 -37 -55 v-27q0 -13 28 -27h27q41 36 46 36l9 -18v-9q-25 -46 -73 -46q-73 0 -73 109zM2317 110q18 83 82 83q82 -13 82 -83v-9q-11 -82 -82 -82q-82 21 -82 91zM2353 110q7 -54 28 -54h37q13 0 27 27v27q0 55 -46 55q-41 -18 -46 -37v-18zM2500 47v127q3 19 18 19h9q21 0 46 -119h9 q30 119 55 119q18 -3 18 -19v-127q0 -19 -18 -19q-10 6 -10 82h-9q-18 -82 -36 -82h-9q-21 0 -37 91h-9q0 -91 -18 -91z" />
<glyph unicode="-" d="M25 184l18 9q24 0 37 -110h9q18 110 45 110q21 0 46 -101h10q6 101 36 101h27q16 0 37 -101h9q13 101 37 101h9q23 0 36 -101h9q18 101 37 101h27q28 0 36 -101q11 0 46 101h9q26 0 46 -101h10q9 101 36 101h9v-19q-24 -146 -55 -146q-23 0 -36 100h-19 q-13 -100 -36 -100q-27 0 -55 137h-9q-21 -137 -46 -137q-30 0 -45 110h-9q-19 -110 -46 -110q-28 0 -46 128q-12 0 -54 -128h-10q-20 0 -46 100h-9q-13 -100 -36 -100h-9q-18 0 -55 156zM655 47l18 9l10 -19l-19 -9zM701 174q3 19 18 19h101q18 -3 18 -19q0 -18 -55 -18 v-109q0 -19 -19 -19q-17 0 -17 19v109q-46 0 -46 18zM810 37q57 156 73 156q24 0 83 -156l-19 -9q-25 0 -27 46h-64q-7 -46 -27 -46zM865 777q21 174 101 174q-9 107 -9 155v82q0 381 191 484q58 27 210 36q82 0 165 -137q73 -51 73 -109v-28q0 -35 -46 -82v-64 q46 -6 46 -27q-55 -9 -55 -92v-81h-18v63q-34 -27 -64 -27h-19q-13 0 -27 27q0 9 9 9q-9 37 -9 65l-18 -10v19q27 65 82 82l55 -19v28l-64 9q-31 0 -64 -28l-9 19q45 24 45 37h-18l-45 -10l-46 10q-10 0 -28 -10q-36 10 -63 10q-12 0 -92 -10q0 10 -9 10l-9 -19l18 -9 l-9 -18v-19q69 19 82 19q82 -29 82 -91l-18 9v-46l9 -46l-27 -18h-27q-83 0 -83 101h-9v-37q0 -210 110 -210q0 -16 100 -37q156 53 156 128h18q0 -17 -27 -73q-10 -145 -10 -173q192 -39 192 -110q9 -15 9 -46v-155q0 -73 9 -191q-18 -42 -36 -46h-9v9l18 27v210 q-21 0 -36 9q0 -182 -247 -182v18q117 18 137 18v9q-446 74 -548 74q0 -48 -27 -55h-10v9l19 37q-35 0 -55 18v-9q0 -14 27 -110q-52 0 -73 420zM875 101h26v9q-9 18 -9 28q-17 -3 -17 -19v-18zM883 768q46 0 46 -36h18q3 45 28 45q-9 18 -9 27h-9q-24 -27 -74 -27v-9z M892 604q3 -19 19 -19l27 36l-18 10q0 -27 -28 -27zM892 631q24 18 46 18v28l-9 18l-18 -9h-10v27h-9v-82zM892 804h9v46h-9v-46zM929 905h9q19 0 19 18v9q-14 0 -28 -27zM938 476h9q19 0 19 18h-9q-19 -3 -19 -18zM938 695h9q19 0 19 18l-19 9l-9 -18v-9zM947 174 q3 19 19 19h228q18 -3 18 -19q0 -18 -46 -18v-109q0 -19 -18 -19t-18 19v109q-46 0 -46 9q-13 -9 -55 -9v-109q0 -19 -17 -19q-19 0 -19 19v109q-46 0 -46 18zM957 667h27q0 19 -18 19zM975 539q18 0 63 -27h10v9q-19 0 -64 28h-9v-10zM984 494l155 -27v9q-16 48 -73 82v-9 q12 0 46 -46v-9q-69 64 -92 64h-8v-9q42 0 82 -55h-10q-9 0 -9 9l-18 -9l-45 9h-28v-9zM984 941q20 -46 73 -64v9q-14 55 -64 55h-9zM993 741h9l10 45v9h-10l-9 -37v-17zM1002 585q14 0 36 -18v9q-9 18 -9 28q-17 -9 -27 -9v-10zM1020 732l28 -19h18l-9 45v37h18l-9 64 l-46 -36l9 -46zM1038 604q10 0 28 -9v36h-28v-27zM1103 1225q18 0 18 18t-18 18v-36zM1157 1261l9 -46h9v46h-18zM1157 1325v18q15 0 110 9q42 -17 45 -36v-10h-9l-45 28q-81 -9 -101 -9zM1175 741q0 -131 174 -183v82q19 -3 19 -19v-63h72q101 0 101 100q9 34 9 83h-9 q-98 -83 -137 -83v9l-18 -9l-28 19q0 -19 -18 -19q0 14 -28 28l-27 -19q-36 24 -36 37l-18 -9l-10 18q10 0 10 9q-28 0 -28 19q9 0 9 8h-18zM1175 804h28v-9l-9 -18h27l-9 18q9 0 9 9q-9 0 -27 10h-19v-10zM1175 859q0 -20 110 -45q0 -11 55 -46q69 18 82 18l-9 -18 q36 5 36 27h19q89 -27 100 -27v18q-10 0 -100 18h-82v19h73v9q-64 13 -64 100l-18 -9h-19q-51 0 -137 46q-9 -63 -9 -83q68 -33 73 -54v-9q-73 54 -110 54v-18zM1203 1179q9 -37 55 -37l9 46l-18 9q-16 -9 -37 -9q0 9 -9 9v-18zM1212 110q12 83 82 83q83 -13 83 -83 q0 -68 -74 -91q-91 12 -91 91zM1231 1252q2 -18 18 -18l9 18h-27zM1249 83q0 -13 27 -27h36q14 0 28 27v45q0 15 -37 37h-18q-14 0 -36 -37v-45zM1249 804q14 0 36 -18v9l-27 19h-9v-10zM1303 1023v9h9l19 -9q16 9 37 9q12 0 27 -26q0 -14 -27 -28h-28q-13 1 -37 45z M1322 841v9l18 -9q13 36 28 36h9q-19 -54 -37 -54t-18 18zM1340 1051v18h37q0 -18 -19 -18h-18zM1377 1197l18 9q0 -14 18 -37v-9q-14 0 -36 37zM1386 101v37q32 55 82 55q73 0 73 -74v-45q-35 -55 -82 -55q-59 0 -73 82zM1413 110q19 -54 36 -54h37q28 9 28 54 q-8 55 -55 55q-27 -1 -46 -55zM1413 704q3 -18 18 -18v9q0 18 -18 18v-9zM1431 1188q12 -46 28 -46h9q13 0 27 27v19q-9 0 -27 9l-9 -18l-19 9h-9zM1468 722h18q0 27 46 27v9h-55l-9 -17q9 0 9 -9q-9 0 -9 -10zM1486 1352l46 -9v19h-46v-10zM1523 1197h9q0 7 9 55v9h-9 q-9 -48 -9 -55v-9zM1550 184l18 9q28 -36 28 -101h18q13 101 37 101h9q20 0 36 -110h9q12 110 37 110q18 -3 18 -19q-40 -146 -55 -146h-9q-21 0 -36 110h-9q-24 -110 -46 -110q-28 0 -55 156zM1596 686q33 -128 55 -128l18 27q-18 0 -18 19h18q0 17 -18 17h-9l9 -17h-9 q-19 0 -19 17l28 37q-9 18 -9 28l18 9l18 -9v9q-18 73 -73 73l-9 -19v-63zM1660 539q18 0 18 19v9q-18 -3 -18 -18v-10zM1760 128q27 65 82 65q83 0 83 -101q-30 -73 -83 -73q-82 0 -82 109zM1797 83q0 -13 27 -27h36q14 0 28 27v45q0 15 -37 37q-54 0 -54 -55v-27z M1933 101v18q0 74 83 74q73 0 73 -74v-45q-35 -55 -82 -55q-59 0 -74 82zM1961 101q18 -42 37 -45h36q28 9 28 54q-8 55 -55 55q-46 -14 -46 -64zM2107 47l18 9q19 -3 19 -19l-19 -9q-18 0 -18 19zM2162 128q27 65 82 65q64 0 64 -55l-18 -10q-31 37 -55 37q-37 -9 -37 -55 v-27q0 -13 28 -27h27q41 36 46 36l9 -18v-9q-25 -46 -73 -46q-73 0 -73 109zM2317 110q18 83 82 83q82 -13 82 -83v-9q-11 -82 -82 -82q-82 21 -82 91zM2353 110q7 -54 28 -54h37q13 0 27 27v27q0 55 -46 55q-41 -18 -46 -37v-18zM2500 47v127q3 19 18 19h9q21 0 46 -119h9 q30 119 55 119q18 -3 18 -19v-127q0 -19 -18 -19q-10 6 -10 82h-9q-18 -82 -36 -82h-9q-21 0 -37 91h-9q0 -91 -18 -91z" />
<glyph unicode="." horiz-adv-x="557" d="M142 73v110l86 12h37q73 0 146 -110q0 -61 -85 -86l-25 12l-24 -12q-130 42 -135 74z" />
<glyph unicode="/" d="M25 184l18 9q24 0 37 -110h9q18 110 45 110q21 0 46 -101h10q6 101 36 101h27q16 0 37 -101h9q13 101 37 101h9q23 0 36 -101h9q18 101 37 101h27q28 0 36 -101q11 0 46 101h9q26 0 46 -101h10q9 101 36 101h9v-19q-24 -146 -55 -146q-23 0 -36 100h-19 q-13 -100 -36 -100q-27 0 -55 137h-9q-21 -137 -46 -137q-30 0 -45 110h-9q-19 -110 -46 -110q-28 0 -46 128q-12 0 -54 -128h-10q-20 0 -46 100h-9q-13 -100 -36 -100h-9q-18 0 -55 156zM655 47l18 9l10 -19l-19 -9zM701 174q3 19 18 19h101q18 -3 18 -19q0 -18 -55 -18 v-109q0 -19 -19 -19q-17 0 -17 19v109q-46 0 -46 18zM810 37q57 156 73 156q24 0 83 -156l-19 -9q-25 0 -27 46h-64q-7 -46 -27 -46zM865 777q21 174 101 174q-9 107 -9 155v82q0 381 191 484q58 27 210 36q82 0 165 -137q73 -51 73 -109v-28q0 -35 -46 -82v-64 q46 -6 46 -27q-55 -9 -55 -92v-81h-18v63q-34 -27 -64 -27h-19q-13 0 -27 27q0 9 9 9q-9 37 -9 65l-18 -10v19q27 65 82 82l55 -19v28l-64 9q-31 0 -64 -28l-9 19q45 24 45 37h-18l-45 -10l-46 10q-10 0 -28 -10q-36 10 -63 10q-12 0 -92 -10q0 10 -9 10l-9 -19l18 -9 l-9 -18v-19q69 19 82 19q82 -29 82 -91l-18 9v-46l9 -46l-27 -18h-27q-83 0 -83 101h-9v-37q0 -210 110 -210q0 -16 100 -37q156 53 156 128h18q0 -17 -27 -73q-10 -145 -10 -173q192 -39 192 -110q9 -15 9 -46v-155q0 -73 9 -191q-18 -42 -36 -46h-9v9l18 27v210 q-21 0 -36 9q0 -182 -247 -182v18q117 18 137 18v9q-446 74 -548 74q0 -48 -27 -55h-10v9l19 37q-35 0 -55 18v-9q0 -14 27 -110q-52 0 -73 420zM875 101h26v9q-9 18 -9 28q-17 -3 -17 -19v-18zM883 768q46 0 46 -36h18q3 45 28 45q-9 18 -9 27h-9q-24 -27 -74 -27v-9z M892 604q3 -19 19 -19l27 36l-18 10q0 -27 -28 -27zM892 631q24 18 46 18v28l-9 18l-18 -9h-10v27h-9v-82zM892 804h9v46h-9v-46zM929 905h9q19 0 19 18v9q-14 0 -28 -27zM938 476h9q19 0 19 18h-9q-19 -3 -19 -18zM938 695h9q19 0 19 18l-19 9l-9 -18v-9zM947 174 q3 19 19 19h228q18 -3 18 -19q0 -18 -46 -18v-109q0 -19 -18 -19t-18 19v109q-46 0 -46 9q-13 -9 -55 -9v-109q0 -19 -17 -19q-19 0 -19 19v109q-46 0 -46 18zM957 667h27q0 19 -18 19zM975 539q18 0 63 -27h10v9q-19 0 -64 28h-9v-10zM984 494l155 -27v9q-16 48 -73 82v-9 q12 0 46 -46v-9q-69 64 -92 64h-8v-9q42 0 82 -55h-10q-9 0 -9 9l-18 -9l-45 9h-28v-9zM984 941q20 -46 73 -64v9q-14 55 -64 55h-9zM993 741h9l10 45v9h-10l-9 -37v-17zM1002 585q14 0 36 -18v9q-9 18 -9 28q-17 -9 -27 -9v-10zM1020 732l28 -19h18l-9 45v37h18l-9 64 l-46 -36l9 -46zM1038 604q10 0 28 -9v36h-28v-27zM1103 1225q18 0 18 18t-18 18v-36zM1157 1261l9 -46h9v46h-18zM1157 1325v18q15 0 110 9q42 -17 45 -36v-10h-9l-45 28q-81 -9 -101 -9zM1175 741q0 -131 174 -183v82q19 -3 19 -19v-63h72q101 0 101 100q9 34 9 83h-9 q-98 -83 -137 -83v9l-18 -9l-28 19q0 -19 -18 -19q0 14 -28 28l-27 -19q-36 24 -36 37l-18 -9l-10 18q10 0 10 9q-28 0 -28 19q9 0 9 8h-18zM1175 804h28v-9l-9 -18h27l-9 18q9 0 9 9q-9 0 -27 10h-19v-10zM1175 859q0 -20 110 -45q0 -11 55 -46q69 18 82 18l-9 -18 q36 5 36 27h19q89 -27 100 -27v18q-10 0 -100 18h-82v19h73v9q-64 13 -64 100l-18 -9h-19q-51 0 -137 46q-9 -63 -9 -83q68 -33 73 -54v-9q-73 54 -110 54v-18zM1203 1179q9 -37 55 -37l9 46l-18 9q-16 -9 -37 -9q0 9 -9 9v-18zM1212 110q12 83 82 83q83 -13 83 -83 q0 -68 -74 -91q-91 12 -91 91zM1231 1252q2 -18 18 -18l9 18h-27zM1249 83q0 -13 27 -27h36q14 0 28 27v45q0 15 -37 37h-18q-14 0 -36 -37v-45zM1249 804q14 0 36 -18v9l-27 19h-9v-10zM1303 1023v9h9l19 -9q16 9 37 9q12 0 27 -26q0 -14 -27 -28h-28q-13 1 -37 45z M1322 841v9l18 -9q13 36 28 36h9q-19 -54 -37 -54t-18 18zM1340 1051v18h37q0 -18 -19 -18h-18zM1377 1197l18 9q0 -14 18 -37v-9q-14 0 -36 37zM1386 101v37q32 55 82 55q73 0 73 -74v-45q-35 -55 -82 -55q-59 0 -73 82zM1413 110q19 -54 36 -54h37q28 9 28 54 q-8 55 -55 55q-27 -1 -46 -55zM1413 704q3 -18 18 -18v9q0 18 -18 18v-9zM1431 1188q12 -46 28 -46h9q13 0 27 27v19q-9 0 -27 9l-9 -18l-19 9h-9zM1468 722h18q0 27 46 27v9h-55l-9 -17q9 0 9 -9q-9 0 -9 -10zM1486 1352l46 -9v19h-46v-10zM1523 1197h9q0 7 9 55v9h-9 q-9 -48 -9 -55v-9zM1550 184l18 9q28 -36 28 -101h18q13 101 37 101h9q20 0 36 -110h9q12 110 37 110q18 -3 18 -19q-40 -146 -55 -146h-9q-21 0 -36 110h-9q-24 -110 -46 -110q-28 0 -55 156zM1596 686q33 -128 55 -128l18 27q-18 0 -18 19h18q0 17 -18 17h-9l9 -17h-9 q-19 0 -19 17l28 37q-9 18 -9 28l18 9l18 -9v9q-18 73 -73 73l-9 -19v-63zM1660 539q18 0 18 19v9q-18 -3 -18 -18v-10zM1760 128q27 65 82 65q83 0 83 -101q-30 -73 -83 -73q-82 0 -82 109zM1797 83q0 -13 27 -27h36q14 0 28 27v45q0 15 -37 37q-54 0 -54 -55v-27z M1933 101v18q0 74 83 74q73 0 73 -74v-45q-35 -55 -82 -55q-59 0 -74 82zM1961 101q18 -42 37 -45h36q28 9 28 54q-8 55 -55 55q-46 -14 -46 -64zM2107 47l18 9q19 -3 19 -19l-19 -9q-18 0 -18 19zM2162 128q27 65 82 65q64 0 64 -55l-18 -10q-31 37 -55 37q-37 -9 -37 -55 v-27q0 -13 28 -27h27q41 36 46 36l9 -18v-9q-25 -46 -73 -46q-73 0 -73 109zM2317 110q18 83 82 83q82 -13 82 -83v-9q-11 -82 -82 -82q-82 21 -82 91zM2353 110q7 -54 28 -54h37q13 0 27 27v27q0 55 -46 55q-41 -18 -46 -37v-18zM2500 47v127q3 19 18 19h9q21 0 46 -119h9 q30 119 55 119q18 -3 18 -19v-127q0 -19 -18 -19q-10 6 -10 82h-9q-18 -82 -36 -82h-9q-21 0 -37 91h-9q0 -91 -18 -91z" />
<glyph unicode="0" horiz-adv-x="647" d="M-154 109q105 404 247 701q135 274 316 534q20 0 20 20l-10 59l20 10h10q158 0 158 -267q10 0 10 -10q-10 -17 -10 -39l10 -60q-30 -153 -208 -543q-51 -75 -158 -277q-125 -237 -217 -237h-30q-84 0 -158 109zM44 227q237 326 237 405q86 119 188 475l-10 20l10 49 q-204 -276 -386 -800q-39 -123 -39 -149z" />
<glyph unicode="1" horiz-adv-x="505" d="M-157 53v53q0 70 244 669l234 637q0 10 32 21q127 -29 127 -96q-113 -385 -488 -1295q-26 -42 -96 -42q-14 0 -53 53z" />
<glyph unicode="2" horiz-adv-x="827" d="M-150 96v64q117 150 246 278q262 376 353 460q181 283 181 332q-373 -201 -481 -482q0 -10 -42 -32q-129 34 -129 118q0 145 439 481q144 99 278 118q160 -28 160 -139q0 -133 -460 -749q-134 -166 -203 -267q-21 -3 -21 -21h21q29 21 171 42l32 -42h-10l10 -22v-10 q-61 -87 -267 -204q0 -21 -107 -21h-11q-96 0 -160 96z" />
<glyph unicode="3" horiz-adv-x="784" d="M-157 57q0 11 305 257q57 69 57 124v10q-200 133 -200 247q45 101 295 258q101 101 248 209l67 96v9h-10q-32 0 -67 -29q-9 0 -9 10q-207 -95 -305 -95h-9q-58 31 -96 95v19q0 25 191 57q222 105 305 105q130 0 190 -86v-47q0 -150 -581 -610l-38 -48q0 -21 152 -152 q29 -61 29 -95v-29q-50 -131 -124 -171q-44 -57 -238 -172q0 -19 -48 -19q-114 10 -114 57z" />
<glyph unicode="4" horiz-adv-x="669" d="M-150 565q488 492 488 582q117 243 171 273q29 0 68 -25q0 13 35 34q19 0 34 -9q16 9 25 9q52 -39 52 -77v-9q0 -70 -265 -325q-101 -147 -231 -462l222 60q103 -6 103 -26v-42q-54 -65 -394 -146q-128 -292 -128 -316q-14 0 -43 -69l-26 -17h-17q-43 22 -43 68 q2 83 94 300q9 17 9 26q-154 47 -154 171zM21 513h26q25 0 51 95q-77 -54 -77 -95z" />
<glyph unicode="5" horiz-adv-x="734" d="M-243 84v9q0 7 28 28q65 -6 65 -19l19 10q9 0 9 -10q356 122 484 317q30 0 74 139q0 15 -37 38q-9 0 -9 -10l-56 10l-56 -10q-166 0 -242 186v19q0 40 196 279q0 21 9 37q-19 4 -37 47q13 39 167 139q93 125 121 140h37q65 -74 103 -74q74 0 74 -47q-38 -81 -214 -167 q-75 -54 -139 -196q-13 0 -140 -186v-19q363 -22 363 -167v-19q0 -118 -158 -279q-61 -134 -382 -260q-68 -19 -139 -19q-140 44 -140 84z" />
<glyph unicode="6" horiz-adv-x="680" d="M-150 234q9 28 19 28l-10 19q28 67 28 75l-9 56q42 0 122 178q159 318 534 796q37 43 65 47q113 -29 113 -103q-71 -97 -272 -328q-213 -316 -328 -552v-19q159 -28 159 -122v-94q-67 -157 -196 -215l-19 9l-19 -9q-187 79 -187 234zM28 178q59 41 84 103v28q0 19 -18 19 h-10q-56 -28 -56 -150z" />
<glyph unicode="7" horiz-adv-x="748" d="M-143 45q0 90 290 569q268 439 324 581h-11q-168 -79 -279 -79h-34q-127 0 -212 201q0 76 56 112h11q11 0 11 -11l23 11q72 -32 111 -89v-23l-11 -22h11q66 0 346 134q183 0 224 -156q-12 -157 -324 -614q-296 -474 -413 -626q-30 0 -67 -33q-55 29 -56 45z" />
<glyph unicode="8" horiz-adv-x="533" d="M-147 197q51 223 311 580q62 135 62 155v10q-32 0 -124 166q-21 67 -21 93q0 143 228 228h10q107 -6 155 -228q11 -68 11 -134q-21 -97 -52 -176q31 -49 52 -156q0 -329 -342 -704q-109 -31 -114 -31q-132 0 -176 197zM60 228h10q200 236 218 383h-10 q-157 -208 -218 -383zM267 1098q0 -15 31 -31q21 88 21 155h-10q-27 0 -42 -83v-41z" />
<glyph unicode="9" horiz-adv-x="655" d="M4 132q19 0 19 19l-10 19q0 108 265 625v19q-55 -41 -113 -57q-152 26 -152 180q59 143 209 293q214 199 321 199q57 -47 57 -85q0 -59 -151 -123q-208 -179 -208 -218v-9h9q0 18 208 198q19 23 19 38h10q69 0 132 -66q0 -61 -95 -237q-146 -298 -198 -369 q-123 -256 -199 -549l-66 -9q-50 50 -57 132z" />
<glyph unicode=":" d="M25 184l18 9q24 0 37 -110h9q18 110 45 110q21 0 46 -101h10q6 101 36 101h27q16 0 37 -101h9q13 101 37 101h9q23 0 36 -101h9q18 101 37 101h27q28 0 36 -101q11 0 46 101h9q26 0 46 -101h10q9 101 36 101h9v-19q-24 -146 -55 -146q-23 0 -36 100h-19 q-13 -100 -36 -100q-27 0 -55 137h-9q-21 -137 -46 -137q-30 0 -45 110h-9q-19 -110 -46 -110q-28 0 -46 128q-12 0 -54 -128h-10q-20 0 -46 100h-9q-13 -100 -36 -100h-9q-18 0 -55 156zM655 47l18 9l10 -19l-19 -9zM701 174q3 19 18 19h101q18 -3 18 -19q0 -18 -55 -18 v-109q0 -19 -19 -19q-17 0 -17 19v109q-46 0 -46 18zM810 37q57 156 73 156q24 0 83 -156l-19 -9q-25 0 -27 46h-64q-7 -46 -27 -46zM865 777q21 174 101 174q-9 107 -9 155v82q0 381 191 484q58 27 210 36q82 0 165 -137q73 -51 73 -109v-28q0 -35 -46 -82v-64 q46 -6 46 -27q-55 -9 -55 -92v-81h-18v63q-34 -27 -64 -27h-19q-13 0 -27 27q0 9 9 9q-9 37 -9 65l-18 -10v19q27 65 82 82l55 -19v28l-64 9q-31 0 -64 -28l-9 19q45 24 45 37h-18l-45 -10l-46 10q-10 0 -28 -10q-36 10 -63 10q-12 0 -92 -10q0 10 -9 10l-9 -19l18 -9 l-9 -18v-19q69 19 82 19q82 -29 82 -91l-18 9v-46l9 -46l-27 -18h-27q-83 0 -83 101h-9v-37q0 -210 110 -210q0 -16 100 -37q156 53 156 128h18q0 -17 -27 -73q-10 -145 -10 -173q192 -39 192 -110q9 -15 9 -46v-155q0 -73 9 -191q-18 -42 -36 -46h-9v9l18 27v210 q-21 0 -36 9q0 -182 -247 -182v18q117 18 137 18v9q-446 74 -548 74q0 -48 -27 -55h-10v9l19 37q-35 0 -55 18v-9q0 -14 27 -110q-52 0 -73 420zM875 101h26v9q-9 18 -9 28q-17 -3 -17 -19v-18zM883 768q46 0 46 -36h18q3 45 28 45q-9 18 -9 27h-9q-24 -27 -74 -27v-9z M892 604q3 -19 19 -19l27 36l-18 10q0 -27 -28 -27zM892 631q24 18 46 18v28l-9 18l-18 -9h-10v27h-9v-82zM892 804h9v46h-9v-46zM929 905h9q19 0 19 18v9q-14 0 -28 -27zM938 476h9q19 0 19 18h-9q-19 -3 -19 -18zM938 695h9q19 0 19 18l-19 9l-9 -18v-9zM947 174 q3 19 19 19h228q18 -3 18 -19q0 -18 -46 -18v-109q0 -19 -18 -19t-18 19v109q-46 0 -46 9q-13 -9 -55 -9v-109q0 -19 -17 -19q-19 0 -19 19v109q-46 0 -46 18zM957 667h27q0 19 -18 19zM975 539q18 0 63 -27h10v9q-19 0 -64 28h-9v-10zM984 494l155 -27v9q-16 48 -73 82v-9 q12 0 46 -46v-9q-69 64 -92 64h-8v-9q42 0 82 -55h-10q-9 0 -9 9l-18 -9l-45 9h-28v-9zM984 941q20 -46 73 -64v9q-14 55 -64 55h-9zM993 741h9l10 45v9h-10l-9 -37v-17zM1002 585q14 0 36 -18v9q-9 18 -9 28q-17 -9 -27 -9v-10zM1020 732l28 -19h18l-9 45v37h18l-9 64 l-46 -36l9 -46zM1038 604q10 0 28 -9v36h-28v-27zM1103 1225q18 0 18 18t-18 18v-36zM1157 1261l9 -46h9v46h-18zM1157 1325v18q15 0 110 9q42 -17 45 -36v-10h-9l-45 28q-81 -9 -101 -9zM1175 741q0 -131 174 -183v82q19 -3 19 -19v-63h72q101 0 101 100q9 34 9 83h-9 q-98 -83 -137 -83v9l-18 -9l-28 19q0 -19 -18 -19q0 14 -28 28l-27 -19q-36 24 -36 37l-18 -9l-10 18q10 0 10 9q-28 0 -28 19q9 0 9 8h-18zM1175 804h28v-9l-9 -18h27l-9 18q9 0 9 9q-9 0 -27 10h-19v-10zM1175 859q0 -20 110 -45q0 -11 55 -46q69 18 82 18l-9 -18 q36 5 36 27h19q89 -27 100 -27v18q-10 0 -100 18h-82v19h73v9q-64 13 -64 100l-18 -9h-19q-51 0 -137 46q-9 -63 -9 -83q68 -33 73 -54v-9q-73 54 -110 54v-18zM1203 1179q9 -37 55 -37l9 46l-18 9q-16 -9 -37 -9q0 9 -9 9v-18zM1212 110q12 83 82 83q83 -13 83 -83 q0 -68 -74 -91q-91 12 -91 91zM1231 1252q2 -18 18 -18l9 18h-27zM1249 83q0 -13 27 -27h36q14 0 28 27v45q0 15 -37 37h-18q-14 0 -36 -37v-45zM1249 804q14 0 36 -18v9l-27 19h-9v-10zM1303 1023v9h9l19 -9q16 9 37 9q12 0 27 -26q0 -14 -27 -28h-28q-13 1 -37 45z M1322 841v9l18 -9q13 36 28 36h9q-19 -54 -37 -54t-18 18zM1340 1051v18h37q0 -18 -19 -18h-18zM1377 1197l18 9q0 -14 18 -37v-9q-14 0 -36 37zM1386 101v37q32 55 82 55q73 0 73 -74v-45q-35 -55 -82 -55q-59 0 -73 82zM1413 110q19 -54 36 -54h37q28 9 28 54 q-8 55 -55 55q-27 -1 -46 -55zM1413 704q3 -18 18 -18v9q0 18 -18 18v-9zM1431 1188q12 -46 28 -46h9q13 0 27 27v19q-9 0 -27 9l-9 -18l-19 9h-9zM1468 722h18q0 27 46 27v9h-55l-9 -17q9 0 9 -9q-9 0 -9 -10zM1486 1352l46 -9v19h-46v-10zM1523 1197h9q0 7 9 55v9h-9 q-9 -48 -9 -55v-9zM1550 184l18 9q28 -36 28 -101h18q13 101 37 101h9q20 0 36 -110h9q12 110 37 110q18 -3 18 -19q-40 -146 -55 -146h-9q-21 0 -36 110h-9q-24 -110 -46 -110q-28 0 -55 156zM1596 686q33 -128 55 -128l18 27q-18 0 -18 19h18q0 17 -18 17h-9l9 -17h-9 q-19 0 -19 17l28 37q-9 18 -9 28l18 9l18 -9v9q-18 73 -73 73l-9 -19v-63zM1660 539q18 0 18 19v9q-18 -3 -18 -18v-10zM1760 128q27 65 82 65q83 0 83 -101q-30 -73 -83 -73q-82 0 -82 109zM1797 83q0 -13 27 -27h36q14 0 28 27v45q0 15 -37 37q-54 0 -54 -55v-27z M1933 101v18q0 74 83 74q73 0 73 -74v-45q-35 -55 -82 -55q-59 0 -74 82zM1961 101q18 -42 37 -45h36q28 9 28 54q-8 55 -55 55q-46 -14 -46 -64zM2107 47l18 9q19 -3 19 -19l-19 -9q-18 0 -18 19zM2162 128q27 65 82 65q64 0 64 -55l-18 -10q-31 37 -55 37q-37 -9 -37 -55 v-27q0 -13 28 -27h27q41 36 46 36l9 -18v-9q-25 -46 -73 -46q-73 0 -73 109zM2317 110q18 83 82 83q82 -13 82 -83v-9q-11 -82 -82 -82q-82 21 -82 91zM2353 110q7 -54 28 -54h37q13 0 27 27v27q0 55 -46 55q-41 -18 -46 -37v-18zM2500 47v127q3 19 18 19h9q21 0 46 -119h9 q30 119 55 119q18 -3 18 -19v-127q0 -19 -18 -19q-10 6 -10 82h-9q-18 -82 -36 -82h-9q-21 0 -37 91h-9q0 -91 -18 -91z" />
<glyph unicode=";" d="M25 184l18 9q24 0 37 -110h9q18 110 45 110q21 0 46 -101h10q6 101 36 101h27q16 0 37 -101h9q13 101 37 101h9q23 0 36 -101h9q18 101 37 101h27q28 0 36 -101q11 0 46 101h9q26 0 46 -101h10q9 101 36 101h9v-19q-24 -146 -55 -146q-23 0 -36 100h-19 q-13 -100 -36 -100q-27 0 -55 137h-9q-21 -137 -46 -137q-30 0 -45 110h-9q-19 -110 -46 -110q-28 0 -46 128q-12 0 -54 -128h-10q-20 0 -46 100h-9q-13 -100 -36 -100h-9q-18 0 -55 156zM655 47l18 9l10 -19l-19 -9zM701 174q3 19 18 19h101q18 -3 18 -19q0 -18 -55 -18 v-109q0 -19 -19 -19q-17 0 -17 19v109q-46 0 -46 18zM810 37q57 156 73 156q24 0 83 -156l-19 -9q-25 0 -27 46h-64q-7 -46 -27 -46zM865 777q21 174 101 174q-9 107 -9 155v82q0 381 191 484q58 27 210 36q82 0 165 -137q73 -51 73 -109v-28q0 -35 -46 -82v-64 q46 -6 46 -27q-55 -9 -55 -92v-81h-18v63q-34 -27 -64 -27h-19q-13 0 -27 27q0 9 9 9q-9 37 -9 65l-18 -10v19q27 65 82 82l55 -19v28l-64 9q-31 0 -64 -28l-9 19q45 24 45 37h-18l-45 -10l-46 10q-10 0 -28 -10q-36 10 -63 10q-12 0 -92 -10q0 10 -9 10l-9 -19l18 -9 l-9 -18v-19q69 19 82 19q82 -29 82 -91l-18 9v-46l9 -46l-27 -18h-27q-83 0 -83 101h-9v-37q0 -210 110 -210q0 -16 100 -37q156 53 156 128h18q0 -17 -27 -73q-10 -145 -10 -173q192 -39 192 -110q9 -15 9 -46v-155q0 -73 9 -191q-18 -42 -36 -46h-9v9l18 27v210 q-21 0 -36 9q0 -182 -247 -182v18q117 18 137 18v9q-446 74 -548 74q0 -48 -27 -55h-10v9l19 37q-35 0 -55 18v-9q0 -14 27 -110q-52 0 -73 420zM875 101h26v9q-9 18 -9 28q-17 -3 -17 -19v-18zM883 768q46 0 46 -36h18q3 45 28 45q-9 18 -9 27h-9q-24 -27 -74 -27v-9z M892 604q3 -19 19 -19l27 36l-18 10q0 -27 -28 -27zM892 631q24 18 46 18v28l-9 18l-18 -9h-10v27h-9v-82zM892 804h9v46h-9v-46zM929 905h9q19 0 19 18v9q-14 0 -28 -27zM938 476h9q19 0 19 18h-9q-19 -3 -19 -18zM938 695h9q19 0 19 18l-19 9l-9 -18v-9zM947 174 q3 19 19 19h228q18 -3 18 -19q0 -18 -46 -18v-109q0 -19 -18 -19t-18 19v109q-46 0 -46 9q-13 -9 -55 -9v-109q0 -19 -17 -19q-19 0 -19 19v109q-46 0 -46 18zM957 667h27q0 19 -18 19zM975 539q18 0 63 -27h10v9q-19 0 -64 28h-9v-10zM984 494l155 -27v9q-16 48 -73 82v-9 q12 0 46 -46v-9q-69 64 -92 64h-8v-9q42 0 82 -55h-10q-9 0 -9 9l-18 -9l-45 9h-28v-9zM984 941q20 -46 73 -64v9q-14 55 -64 55h-9zM993 741h9l10 45v9h-10l-9 -37v-17zM1002 585q14 0 36 -18v9q-9 18 -9 28q-17 -9 -27 -9v-10zM1020 732l28 -19h18l-9 45v37h18l-9 64 l-46 -36l9 -46zM1038 604q10 0 28 -9v36h-28v-27zM1103 1225q18 0 18 18t-18 18v-36zM1157 1261l9 -46h9v46h-18zM1157 1325v18q15 0 110 9q42 -17 45 -36v-10h-9l-45 28q-81 -9 -101 -9zM1175 741q0 -131 174 -183v82q19 -3 19 -19v-63h72q101 0 101 100q9 34 9 83h-9 q-98 -83 -137 -83v9l-18 -9l-28 19q0 -19 -18 -19q0 14 -28 28l-27 -19q-36 24 -36 37l-18 -9l-10 18q10 0 10 9q-28 0 -28 19q9 0 9 8h-18zM1175 804h28v-9l-9 -18h27l-9 18q9 0 9 9q-9 0 -27 10h-19v-10zM1175 859q0 -20 110 -45q0 -11 55 -46q69 18 82 18l-9 -18 q36 5 36 27h19q89 -27 100 -27v18q-10 0 -100 18h-82v19h73v9q-64 13 -64 100l-18 -9h-19q-51 0 -137 46q-9 -63 -9 -83q68 -33 73 -54v-9q-73 54 -110 54v-18zM1203 1179q9 -37 55 -37l9 46l-18 9q-16 -9 -37 -9q0 9 -9 9v-18zM1212 110q12 83 82 83q83 -13 83 -83 q0 -68 -74 -91q-91 12 -91 91zM1231 1252q2 -18 18 -18l9 18h-27zM1249 83q0 -13 27 -27h36q14 0 28 27v45q0 15 -37 37h-18q-14 0 -36 -37v-45zM1249 804q14 0 36 -18v9l-27 19h-9v-10zM1303 1023v9h9l19 -9q16 9 37 9q12 0 27 -26q0 -14 -27 -28h-28q-13 1 -37 45z M1322 841v9l18 -9q13 36 28 36h9q-19 -54 -37 -54t-18 18zM1340 1051v18h37q0 -18 -19 -18h-18zM1377 1197l18 9q0 -14 18 -37v-9q-14 0 -36 37zM1386 101v37q32 55 82 55q73 0 73 -74v-45q-35 -55 -82 -55q-59 0 -73 82zM1413 110q19 -54 36 -54h37q28 9 28 54 q-8 55 -55 55q-27 -1 -46 -55zM1413 704q3 -18 18 -18v9q0 18 -18 18v-9zM1431 1188q12 -46 28 -46h9q13 0 27 27v19q-9 0 -27 9l-9 -18l-19 9h-9zM1468 722h18q0 27 46 27v9h-55l-9 -17q9 0 9 -9q-9 0 -9 -10zM1486 1352l46 -9v19h-46v-10zM1523 1197h9q0 7 9 55v9h-9 q-9 -48 -9 -55v-9zM1550 184l18 9q28 -36 28 -101h18q13 101 37 101h9q20 0 36 -110h9q12 110 37 110q18 -3 18 -19q-40 -146 -55 -146h-9q-21 0 -36 110h-9q-24 -110 -46 -110q-28 0 -55 156zM1596 686q33 -128 55 -128l18 27q-18 0 -18 19h18q0 17 -18 17h-9l9 -17h-9 q-19 0 -19 17l28 37q-9 18 -9 28l18 9l18 -9v9q-18 73 -73 73l-9 -19v-63zM1660 539q18 0 18 19v9q-18 -3 -18 -18v-10zM1760 128q27 65 82 65q83 0 83 -101q-30 -73 -83 -73q-82 0 -82 109zM1797 83q0 -13 27 -27h36q14 0 28 27v45q0 15 -37 37q-54 0 -54 -55v-27z M1933 101v18q0 74 83 74q73 0 73 -74v-45q-35 -55 -82 -55q-59 0 -74 82zM1961 101q18 -42 37 -45h36q28 9 28 54q-8 55 -55 55q-46 -14 -46 -64zM2107 47l18 9q19 -3 19 -19l-19 -9q-18 0 -18 19zM2162 128q27 65 82 65q64 0 64 -55l-18 -10q-31 37 -55 37q-37 -9 -37 -55 v-27q0 -13 28 -27h27q41 36 46 36l9 -18v-9q-25 -46 -73 -46q-73 0 -73 109zM2317 110q18 83 82 83q82 -13 82 -83v-9q-11 -82 -82 -82q-82 21 -82 91zM2353 110q7 -54 28 -54h37q13 0 27 27v27q0 55 -46 55q-41 -18 -46 -37v-18zM2500 47v127q3 19 18 19h9q21 0 46 -119h9 q30 119 55 119q18 -3 18 -19v-127q0 -19 -18 -19q-10 6 -10 82h-9q-18 -82 -36 -82h-9q-21 0 -37 91h-9q0 -91 -18 -91z" />
<glyph unicode="&#x3c;" d="M25 184l18 9q24 0 37 -110h9q18 110 45 110q21 0 46 -101h10q6 101 36 101h27q16 0 37 -101h9q13 101 37 101h9q23 0 36 -101h9q18 101 37 101h27q28 0 36 -101q11 0 46 101h9q26 0 46 -101h10q9 101 36 101h9v-19q-24 -146 -55 -146q-23 0 -36 100h-19 q-13 -100 -36 -100q-27 0 -55 137h-9q-21 -137 -46 -137q-30 0 -45 110h-9q-19 -110 -46 -110q-28 0 -46 128q-12 0 -54 -128h-10q-20 0 -46 100h-9q-13 -100 -36 -100h-9q-18 0 -55 156zM655 47l18 9l10 -19l-19 -9zM701 174q3 19 18 19h101q18 -3 18 -19q0 -18 -55 -18 v-109q0 -19 -19 -19q-17 0 -17 19v109q-46 0 -46 18zM810 37q57 156 73 156q24 0 83 -156l-19 -9q-25 0 -27 46h-64q-7 -46 -27 -46zM865 777q21 174 101 174q-9 107 -9 155v82q0 381 191 484q58 27 210 36q82 0 165 -137q73 -51 73 -109v-28q0 -35 -46 -82v-64 q46 -6 46 -27q-55 -9 -55 -92v-81h-18v63q-34 -27 -64 -27h-19q-13 0 -27 27q0 9 9 9q-9 37 -9 65l-18 -10v19q27 65 82 82l55 -19v28l-64 9q-31 0 -64 -28l-9 19q45 24 45 37h-18l-45 -10l-46 10q-10 0 -28 -10q-36 10 -63 10q-12 0 -92 -10q0 10 -9 10l-9 -19l18 -9 l-9 -18v-19q69 19 82 19q82 -29 82 -91l-18 9v-46l9 -46l-27 -18h-27q-83 0 -83 101h-9v-37q0 -210 110 -210q0 -16 100 -37q156 53 156 128h18q0 -17 -27 -73q-10 -145 -10 -173q192 -39 192 -110q9 -15 9 -46v-155q0 -73 9 -191q-18 -42 -36 -46h-9v9l18 27v210 q-21 0 -36 9q0 -182 -247 -182v18q117 18 137 18v9q-446 74 -548 74q0 -48 -27 -55h-10v9l19 37q-35 0 -55 18v-9q0 -14 27 -110q-52 0 -73 420zM875 101h26v9q-9 18 -9 28q-17 -3 -17 -19v-18zM883 768q46 0 46 -36h18q3 45 28 45q-9 18 -9 27h-9q-24 -27 -74 -27v-9z M892 604q3 -19 19 -19l27 36l-18 10q0 -27 -28 -27zM892 631q24 18 46 18v28l-9 18l-18 -9h-10v27h-9v-82zM892 804h9v46h-9v-46zM929 905h9q19 0 19 18v9q-14 0 -28 -27zM938 476h9q19 0 19 18h-9q-19 -3 -19 -18zM938 695h9q19 0 19 18l-19 9l-9 -18v-9zM947 174 q3 19 19 19h228q18 -3 18 -19q0 -18 -46 -18v-109q0 -19 -18 -19t-18 19v109q-46 0 -46 9q-13 -9 -55 -9v-109q0 -19 -17 -19q-19 0 -19 19v109q-46 0 -46 18zM957 667h27q0 19 -18 19zM975 539q18 0 63 -27h10v9q-19 0 -64 28h-9v-10zM984 494l155 -27v9q-16 48 -73 82v-9 q12 0 46 -46v-9q-69 64 -92 64h-8v-9q42 0 82 -55h-10q-9 0 -9 9l-18 -9l-45 9h-28v-9zM984 941q20 -46 73 -64v9q-14 55 -64 55h-9zM993 741h9l10 45v9h-10l-9 -37v-17zM1002 585q14 0 36 -18v9q-9 18 -9 28q-17 -9 -27 -9v-10zM1020 732l28 -19h18l-9 45v37h18l-9 64 l-46 -36l9 -46zM1038 604q10 0 28 -9v36h-28v-27zM1103 1225q18 0 18 18t-18 18v-36zM1157 1261l9 -46h9v46h-18zM1157 1325v18q15 0 110 9q42 -17 45 -36v-10h-9l-45 28q-81 -9 -101 -9zM1175 741q0 -131 174 -183v82q19 -3 19 -19v-63h72q101 0 101 100q9 34 9 83h-9 q-98 -83 -137 -83v9l-18 -9l-28 19q0 -19 -18 -19q0 14 -28 28l-27 -19q-36 24 -36 37l-18 -9l-10 18q10 0 10 9q-28 0 -28 19q9 0 9 8h-18zM1175 804h28v-9l-9 -18h27l-9 18q9 0 9 9q-9 0 -27 10h-19v-10zM1175 859q0 -20 110 -45q0 -11 55 -46q69 18 82 18l-9 -18 q36 5 36 27h19q89 -27 100 -27v18q-10 0 -100 18h-82v19h73v9q-64 13 -64 100l-18 -9h-19q-51 0 -137 46q-9 -63 -9 -83q68 -33 73 -54v-9q-73 54 -110 54v-18zM1203 1179q9 -37 55 -37l9 46l-18 9q-16 -9 -37 -9q0 9 -9 9v-18zM1212 110q12 83 82 83q83 -13 83 -83 q0 -68 -74 -91q-91 12 -91 91zM1231 1252q2 -18 18 -18l9 18h-27zM1249 83q0 -13 27 -27h36q14 0 28 27v45q0 15 -37 37h-18q-14 0 -36 -37v-45zM1249 804q14 0 36 -18v9l-27 19h-9v-10zM1303 1023v9h9l19 -9q16 9 37 9q12 0 27 -26q0 -14 -27 -28h-28q-13 1 -37 45z M1322 841v9l18 -9q13 36 28 36h9q-19 -54 -37 -54t-18 18zM1340 1051v18h37q0 -18 -19 -18h-18zM1377 1197l18 9q0 -14 18 -37v-9q-14 0 -36 37zM1386 101v37q32 55 82 55q73 0 73 -74v-45q-35 -55 -82 -55q-59 0 -73 82zM1413 110q19 -54 36 -54h37q28 9 28 54 q-8 55 -55 55q-27 -1 -46 -55zM1413 704q3 -18 18 -18v9q0 18 -18 18v-9zM1431 1188q12 -46 28 -46h9q13 0 27 27v19q-9 0 -27 9l-9 -18l-19 9h-9zM1468 722h18q0 27 46 27v9h-55l-9 -17q9 0 9 -9q-9 0 -9 -10zM1486 1352l46 -9v19h-46v-10zM1523 1197h9q0 7 9 55v9h-9 q-9 -48 -9 -55v-9zM1550 184l18 9q28 -36 28 -101h18q13 101 37 101h9q20 0 36 -110h9q12 110 37 110q18 -3 18 -19q-40 -146 -55 -146h-9q-21 0 -36 110h-9q-24 -110 -46 -110q-28 0 -55 156zM1596 686q33 -128 55 -128l18 27q-18 0 -18 19h18q0 17 -18 17h-9l9 -17h-9 q-19 0 -19 17l28 37q-9 18 -9 28l18 9l18 -9v9q-18 73 -73 73l-9 -19v-63zM1660 539q18 0 18 19v9q-18 -3 -18 -18v-10zM1760 128q27 65 82 65q83 0 83 -101q-30 -73 -83 -73q-82 0 -82 109zM1797 83q0 -13 27 -27h36q14 0 28 27v45q0 15 -37 37q-54 0 -54 -55v-27z M1933 101v18q0 74 83 74q73 0 73 -74v-45q-35 -55 -82 -55q-59 0 -74 82zM1961 101q18 -42 37 -45h36q28 9 28 54q-8 55 -55 55q-46 -14 -46 -64zM2107 47l18 9q19 -3 19 -19l-19 -9q-18 0 -18 19zM2162 128q27 65 82 65q64 0 64 -55l-18 -10q-31 37 -55 37q-37 -9 -37 -55 v-27q0 -13 28 -27h27q41 36 46 36l9 -18v-9q-25 -46 -73 -46q-73 0 -73 109zM2317 110q18 83 82 83q82 -13 82 -83v-9q-11 -82 -82 -82q-82 21 -82 91zM2353 110q7 -54 28 -54h37q13 0 27 27v27q0 55 -46 55q-41 -18 -46 -37v-18zM2500 47v127q3 19 18 19h9q21 0 46 -119h9 q30 119 55 119q18 -3 18 -19v-127q0 -19 -18 -19q-10 6 -10 82h-9q-18 -82 -36 -82h-9q-21 0 -37 91h-9q0 -91 -18 -91z" />
<glyph unicode="=" d="M25 184l18 9q24 0 37 -110h9q18 110 45 110q21 0 46 -101h10q6 101 36 101h27q16 0 37 -101h9q13 101 37 101h9q23 0 36 -101h9q18 101 37 101h27q28 0 36 -101q11 0 46 101h9q26 0 46 -101h10q9 101 36 101h9v-19q-24 -146 -55 -146q-23 0 -36 100h-19 q-13 -100 -36 -100q-27 0 -55 137h-9q-21 -137 -46 -137q-30 0 -45 110h-9q-19 -110 -46 -110q-28 0 -46 128q-12 0 -54 -128h-10q-20 0 -46 100h-9q-13 -100 -36 -100h-9q-18 0 -55 156zM655 47l18 9l10 -19l-19 -9zM701 174q3 19 18 19h101q18 -3 18 -19q0 -18 -55 -18 v-109q0 -19 -19 -19q-17 0 -17 19v109q-46 0 -46 18zM810 37q57 156 73 156q24 0 83 -156l-19 -9q-25 0 -27 46h-64q-7 -46 -27 -46zM865 777q21 174 101 174q-9 107 -9 155v82q0 381 191 484q58 27 210 36q82 0 165 -137q73 -51 73 -109v-28q0 -35 -46 -82v-64 q46 -6 46 -27q-55 -9 -55 -92v-81h-18v63q-34 -27 -64 -27h-19q-13 0 -27 27q0 9 9 9q-9 37 -9 65l-18 -10v19q27 65 82 82l55 -19v28l-64 9q-31 0 -64 -28l-9 19q45 24 45 37h-18l-45 -10l-46 10q-10 0 -28 -10q-36 10 -63 10q-12 0 -92 -10q0 10 -9 10l-9 -19l18 -9 l-9 -18v-19q69 19 82 19q82 -29 82 -91l-18 9v-46l9 -46l-27 -18h-27q-83 0 -83 101h-9v-37q0 -210 110 -210q0 -16 100 -37q156 53 156 128h18q0 -17 -27 -73q-10 -145 -10 -173q192 -39 192 -110q9 -15 9 -46v-155q0 -73 9 -191q-18 -42 -36 -46h-9v9l18 27v210 q-21 0 -36 9q0 -182 -247 -182v18q117 18 137 18v9q-446 74 -548 74q0 -48 -27 -55h-10v9l19 37q-35 0 -55 18v-9q0 -14 27 -110q-52 0 -73 420zM875 101h26v9q-9 18 -9 28q-17 -3 -17 -19v-18zM883 768q46 0 46 -36h18q3 45 28 45q-9 18 -9 27h-9q-24 -27 -74 -27v-9z M892 604q3 -19 19 -19l27 36l-18 10q0 -27 -28 -27zM892 631q24 18 46 18v28l-9 18l-18 -9h-10v27h-9v-82zM892 804h9v46h-9v-46zM929 905h9q19 0 19 18v9q-14 0 -28 -27zM938 476h9q19 0 19 18h-9q-19 -3 -19 -18zM938 695h9q19 0 19 18l-19 9l-9 -18v-9zM947 174 q3 19 19 19h228q18 -3 18 -19q0 -18 -46 -18v-109q0 -19 -18 -19t-18 19v109q-46 0 -46 9q-13 -9 -55 -9v-109q0 -19 -17 -19q-19 0 -19 19v109q-46 0 -46 18zM957 667h27q0 19 -18 19zM975 539q18 0 63 -27h10v9q-19 0 -64 28h-9v-10zM984 494l155 -27v9q-16 48 -73 82v-9 q12 0 46 -46v-9q-69 64 -92 64h-8v-9q42 0 82 -55h-10q-9 0 -9 9l-18 -9l-45 9h-28v-9zM984 941q20 -46 73 -64v9q-14 55 -64 55h-9zM993 741h9l10 45v9h-10l-9 -37v-17zM1002 585q14 0 36 -18v9q-9 18 -9 28q-17 -9 -27 -9v-10zM1020 732l28 -19h18l-9 45v37h18l-9 64 l-46 -36l9 -46zM1038 604q10 0 28 -9v36h-28v-27zM1103 1225q18 0 18 18t-18 18v-36zM1157 1261l9 -46h9v46h-18zM1157 1325v18q15 0 110 9q42 -17 45 -36v-10h-9l-45 28q-81 -9 -101 -9zM1175 741q0 -131 174 -183v82q19 -3 19 -19v-63h72q101 0 101 100q9 34 9 83h-9 q-98 -83 -137 -83v9l-18 -9l-28 19q0 -19 -18 -19q0 14 -28 28l-27 -19q-36 24 -36 37l-18 -9l-10 18q10 0 10 9q-28 0 -28 19q9 0 9 8h-18zM1175 804h28v-9l-9 -18h27l-9 18q9 0 9 9q-9 0 -27 10h-19v-10zM1175 859q0 -20 110 -45q0 -11 55 -46q69 18 82 18l-9 -18 q36 5 36 27h19q89 -27 100 -27v18q-10 0 -100 18h-82v19h73v9q-64 13 -64 100l-18 -9h-19q-51 0 -137 46q-9 -63 -9 -83q68 -33 73 -54v-9q-73 54 -110 54v-18zM1203 1179q9 -37 55 -37l9 46l-18 9q-16 -9 -37 -9q0 9 -9 9v-18zM1212 110q12 83 82 83q83 -13 83 -83 q0 -68 -74 -91q-91 12 -91 91zM1231 1252q2 -18 18 -18l9 18h-27zM1249 83q0 -13 27 -27h36q14 0 28 27v45q0 15 -37 37h-18q-14 0 -36 -37v-45zM1249 804q14 0 36 -18v9l-27 19h-9v-10zM1303 1023v9h9l19 -9q16 9 37 9q12 0 27 -26q0 -14 -27 -28h-28q-13 1 -37 45z M1322 841v9l18 -9q13 36 28 36h9q-19 -54 -37 -54t-18 18zM1340 1051v18h37q0 -18 -19 -18h-18zM1377 1197l18 9q0 -14 18 -37v-9q-14 0 -36 37zM1386 101v37q32 55 82 55q73 0 73 -74v-45q-35 -55 -82 -55q-59 0 -73 82zM1413 110q19 -54 36 -54h37q28 9 28 54 q-8 55 -55 55q-27 -1 -46 -55zM1413 704q3 -18 18 -18v9q0 18 -18 18v-9zM1431 1188q12 -46 28 -46h9q13 0 27 27v19q-9 0 -27 9l-9 -18l-19 9h-9zM1468 722h18q0 27 46 27v9h-55l-9 -17q9 0 9 -9q-9 0 -9 -10zM1486 1352l46 -9v19h-46v-10zM1523 1197h9q0 7 9 55v9h-9 q-9 -48 -9 -55v-9zM1550 184l18 9q28 -36 28 -101h18q13 101 37 101h9q20 0 36 -110h9q12 110 37 110q18 -3 18 -19q-40 -146 -55 -146h-9q-21 0 -36 110h-9q-24 -110 -46 -110q-28 0 -55 156zM1596 686q33 -128 55 -128l18 27q-18 0 -18 19h18q0 17 -18 17h-9l9 -17h-9 q-19 0 -19 17l28 37q-9 18 -9 28l18 9l18 -9v9q-18 73 -73 73l-9 -19v-63zM1660 539q18 0 18 19v9q-18 -3 -18 -18v-10zM1760 128q27 65 82 65q83 0 83 -101q-30 -73 -83 -73q-82 0 -82 109zM1797 83q0 -13 27 -27h36q14 0 28 27v45q0 15 -37 37q-54 0 -54 -55v-27z M1933 101v18q0 74 83 74q73 0 73 -74v-45q-35 -55 -82 -55q-59 0 -74 82zM1961 101q18 -42 37 -45h36q28 9 28 54q-8 55 -55 55q-46 -14 -46 -64zM2107 47l18 9q19 -3 19 -19l-19 -9q-18 0 -18 19zM2162 128q27 65 82 65q64 0 64 -55l-18 -10q-31 37 -55 37q-37 -9 -37 -55 v-27q0 -13 28 -27h27q41 36 46 36l9 -18v-9q-25 -46 -73 -46q-73 0 -73 109zM2317 110q18 83 82 83q82 -13 82 -83v-9q-11 -82 -82 -82q-82 21 -82 91zM2353 110q7 -54 28 -54h37q13 0 27 27v27q0 55 -46 55q-41 -18 -46 -37v-18zM2500 47v127q3 19 18 19h9q21 0 46 -119h9 q30 119 55 119q18 -3 18 -19v-127q0 -19 -18 -19q-10 6 -10 82h-9q-18 -82 -36 -82h-9q-21 0 -37 91h-9q0 -91 -18 -91z" />
<glyph unicode="&#x3e;" d="M25 184l18 9q24 0 37 -110h9q18 110 45 110q21 0 46 -101h10q6 101 36 101h27q16 0 37 -101h9q13 101 37 101h9q23 0 36 -101h9q18 101 37 101h27q28 0 36 -101q11 0 46 101h9q26 0 46 -101h10q9 101 36 101h9v-19q-24 -146 -55 -146q-23 0 -36 100h-19 q-13 -100 -36 -100q-27 0 -55 137h-9q-21 -137 -46 -137q-30 0 -45 110h-9q-19 -110 -46 -110q-28 0 -46 128q-12 0 -54 -128h-10q-20 0 -46 100h-9q-13 -100 -36 -100h-9q-18 0 -55 156zM655 47l18 9l10 -19l-19 -9zM701 174q3 19 18 19h101q18 -3 18 -19q0 -18 -55 -18 v-109q0 -19 -19 -19q-17 0 -17 19v109q-46 0 -46 18zM810 37q57 156 73 156q24 0 83 -156l-19 -9q-25 0 -27 46h-64q-7 -46 -27 -46zM865 777q21 174 101 174q-9 107 -9 155v82q0 381 191 484q58 27 210 36q82 0 165 -137q73 -51 73 -109v-28q0 -35 -46 -82v-64 q46 -6 46 -27q-55 -9 -55 -92v-81h-18v63q-34 -27 -64 -27h-19q-13 0 -27 27q0 9 9 9q-9 37 -9 65l-18 -10v19q27 65 82 82l55 -19v28l-64 9q-31 0 -64 -28l-9 19q45 24 45 37h-18l-45 -10l-46 10q-10 0 -28 -10q-36 10 -63 10q-12 0 -92 -10q0 10 -9 10l-9 -19l18 -9 l-9 -18v-19q69 19 82 19q82 -29 82 -91l-18 9v-46l9 -46l-27 -18h-27q-83 0 -83 101h-9v-37q0 -210 110 -210q0 -16 100 -37q156 53 156 128h18q0 -17 -27 -73q-10 -145 -10 -173q192 -39 192 -110q9 -15 9 -46v-155q0 -73 9 -191q-18 -42 -36 -46h-9v9l18 27v210 q-21 0 -36 9q0 -182 -247 -182v18q117 18 137 18v9q-446 74 -548 74q0 -48 -27 -55h-10v9l19 37q-35 0 -55 18v-9q0 -14 27 -110q-52 0 -73 420zM875 101h26v9q-9 18 -9 28q-17 -3 -17 -19v-18zM883 768q46 0 46 -36h18q3 45 28 45q-9 18 -9 27h-9q-24 -27 -74 -27v-9z M892 604q3 -19 19 -19l27 36l-18 10q0 -27 -28 -27zM892 631q24 18 46 18v28l-9 18l-18 -9h-10v27h-9v-82zM892 804h9v46h-9v-46zM929 905h9q19 0 19 18v9q-14 0 -28 -27zM938 476h9q19 0 19 18h-9q-19 -3 -19 -18zM938 695h9q19 0 19 18l-19 9l-9 -18v-9zM947 174 q3 19 19 19h228q18 -3 18 -19q0 -18 -46 -18v-109q0 -19 -18 -19t-18 19v109q-46 0 -46 9q-13 -9 -55 -9v-109q0 -19 -17 -19q-19 0 -19 19v109q-46 0 -46 18zM957 667h27q0 19 -18 19zM975 539q18 0 63 -27h10v9q-19 0 -64 28h-9v-10zM984 494l155 -27v9q-16 48 -73 82v-9 q12 0 46 -46v-9q-69 64 -92 64h-8v-9q42 0 82 -55h-10q-9 0 -9 9l-18 -9l-45 9h-28v-9zM984 941q20 -46 73 -64v9q-14 55 -64 55h-9zM993 741h9l10 45v9h-10l-9 -37v-17zM1002 585q14 0 36 -18v9q-9 18 -9 28q-17 -9 -27 -9v-10zM1020 732l28 -19h18l-9 45v37h18l-9 64 l-46 -36l9 -46zM1038 604q10 0 28 -9v36h-28v-27zM1103 1225q18 0 18 18t-18 18v-36zM1157 1261l9 -46h9v46h-18zM1157 1325v18q15 0 110 9q42 -17 45 -36v-10h-9l-45 28q-81 -9 -101 -9zM1175 741q0 -131 174 -183v82q19 -3 19 -19v-63h72q101 0 101 100q9 34 9 83h-9 q-98 -83 -137 -83v9l-18 -9l-28 19q0 -19 -18 -19q0 14 -28 28l-27 -19q-36 24 -36 37l-18 -9l-10 18q10 0 10 9q-28 0 -28 19q9 0 9 8h-18zM1175 804h28v-9l-9 -18h27l-9 18q9 0 9 9q-9 0 -27 10h-19v-10zM1175 859q0 -20 110 -45q0 -11 55 -46q69 18 82 18l-9 -18 q36 5 36 27h19q89 -27 100 -27v18q-10 0 -100 18h-82v19h73v9q-64 13 -64 100l-18 -9h-19q-51 0 -137 46q-9 -63 -9 -83q68 -33 73 -54v-9q-73 54 -110 54v-18zM1203 1179q9 -37 55 -37l9 46l-18 9q-16 -9 -37 -9q0 9 -9 9v-18zM1212 110q12 83 82 83q83 -13 83 -83 q0 -68 -74 -91q-91 12 -91 91zM1231 1252q2 -18 18 -18l9 18h-27zM1249 83q0 -13 27 -27h36q14 0 28 27v45q0 15 -37 37h-18q-14 0 -36 -37v-45zM1249 804q14 0 36 -18v9l-27 19h-9v-10zM1303 1023v9h9l19 -9q16 9 37 9q12 0 27 -26q0 -14 -27 -28h-28q-13 1 -37 45z M1322 841v9l18 -9q13 36 28 36h9q-19 -54 -37 -54t-18 18zM1340 1051v18h37q0 -18 -19 -18h-18zM1377 1197l18 9q0 -14 18 -37v-9q-14 0 -36 37zM1386 101v37q32 55 82 55q73 0 73 -74v-45q-35 -55 -82 -55q-59 0 -73 82zM1413 110q19 -54 36 -54h37q28 9 28 54 q-8 55 -55 55q-27 -1 -46 -55zM1413 704q3 -18 18 -18v9q0 18 -18 18v-9zM1431 1188q12 -46 28 -46h9q13 0 27 27v19q-9 0 -27 9l-9 -18l-19 9h-9zM1468 722h18q0 27 46 27v9h-55l-9 -17q9 0 9 -9q-9 0 -9 -10zM1486 1352l46 -9v19h-46v-10zM1523 1197h9q0 7 9 55v9h-9 q-9 -48 -9 -55v-9zM1550 184l18 9q28 -36 28 -101h18q13 101 37 101h9q20 0 36 -110h9q12 110 37 110q18 -3 18 -19q-40 -146 -55 -146h-9q-21 0 -36 110h-9q-24 -110 -46 -110q-28 0 -55 156zM1596 686q33 -128 55 -128l18 27q-18 0 -18 19h18q0 17 -18 17h-9l9 -17h-9 q-19 0 -19 17l28 37q-9 18 -9 28l18 9l18 -9v9q-18 73 -73 73l-9 -19v-63zM1660 539q18 0 18 19v9q-18 -3 -18 -18v-10zM1760 128q27 65 82 65q83 0 83 -101q-30 -73 -83 -73q-82 0 -82 109zM1797 83q0 -13 27 -27h36q14 0 28 27v45q0 15 -37 37q-54 0 -54 -55v-27z M1933 101v18q0 74 83 74q73 0 73 -74v-45q-35 -55 -82 -55q-59 0 -74 82zM1961 101q18 -42 37 -45h36q28 9 28 54q-8 55 -55 55q-46 -14 -46 -64zM2107 47l18 9q19 -3 19 -19l-19 -9q-18 0 -18 19zM2162 128q27 65 82 65q64 0 64 -55l-18 -10q-31 37 -55 37q-37 -9 -37 -55 v-27q0 -13 28 -27h27q41 36 46 36l9 -18v-9q-25 -46 -73 -46q-73 0 -73 109zM2317 110q18 83 82 83q82 -13 82 -83v-9q-11 -82 -82 -82q-82 21 -82 91zM2353 110q7 -54 28 -54h37q13 0 27 27v27q0 55 -46 55q-41 -18 -46 -37v-18zM2500 47v127q3 19 18 19h9q21 0 46 -119h9 q30 119 55 119q18 -3 18 -19v-127q0 -19 -18 -19q-10 6 -10 82h-9q-18 -82 -36 -82h-9q-21 0 -37 91h-9q0 -91 -18 -91z" />
<glyph unicode="?" d="M25 184l18 9q24 0 37 -110h9q18 110 45 110q21 0 46 -101h10q6 101 36 101h27q16 0 37 -101h9q13 101 37 101h9q23 0 36 -101h9q18 101 37 101h27q28 0 36 -101q11 0 46 101h9q26 0 46 -101h10q9 101 36 101h9v-19q-24 -146 -55 -146q-23 0 -36 100h-19 q-13 -100 -36 -100q-27 0 -55 137h-9q-21 -137 -46 -137q-30 0 -45 110h-9q-19 -110 -46 -110q-28 0 -46 128q-12 0 -54 -128h-10q-20 0 -46 100h-9q-13 -100 -36 -100h-9q-18 0 -55 156zM655 47l18 9l10 -19l-19 -9zM701 174q3 19 18 19h101q18 -3 18 -19q0 -18 -55 -18 v-109q0 -19 -19 -19q-17 0 -17 19v109q-46 0 -46 18zM810 37q57 156 73 156q24 0 83 -156l-19 -9q-25 0 -27 46h-64q-7 -46 -27 -46zM865 777q21 174 101 174q-9 107 -9 155v82q0 381 191 484q58 27 210 36q82 0 165 -137q73 -51 73 -109v-28q0 -35 -46 -82v-64 q46 -6 46 -27q-55 -9 -55 -92v-81h-18v63q-34 -27 -64 -27h-19q-13 0 -27 27q0 9 9 9q-9 37 -9 65l-18 -10v19q27 65 82 82l55 -19v28l-64 9q-31 0 -64 -28l-9 19q45 24 45 37h-18l-45 -10l-46 10q-10 0 -28 -10q-36 10 -63 10q-12 0 -92 -10q0 10 -9 10l-9 -19l18 -9 l-9 -18v-19q69 19 82 19q82 -29 82 -91l-18 9v-46l9 -46l-27 -18h-27q-83 0 -83 101h-9v-37q0 -210 110 -210q0 -16 100 -37q156 53 156 128h18q0 -17 -27 -73q-10 -145 -10 -173q192 -39 192 -110q9 -15 9 -46v-155q0 -73 9 -191q-18 -42 -36 -46h-9v9l18 27v210 q-21 0 -36 9q0 -182 -247 -182v18q117 18 137 18v9q-446 74 -548 74q0 -48 -27 -55h-10v9l19 37q-35 0 -55 18v-9q0 -14 27 -110q-52 0 -73 420zM875 101h26v9q-9 18 -9 28q-17 -3 -17 -19v-18zM883 768q46 0 46 -36h18q3 45 28 45q-9 18 -9 27h-9q-24 -27 -74 -27v-9z M892 604q3 -19 19 -19l27 36l-18 10q0 -27 -28 -27zM892 631q24 18 46 18v28l-9 18l-18 -9h-10v27h-9v-82zM892 804h9v46h-9v-46zM929 905h9q19 0 19 18v9q-14 0 -28 -27zM938 476h9q19 0 19 18h-9q-19 -3 -19 -18zM938 695h9q19 0 19 18l-19 9l-9 -18v-9zM947 174 q3 19 19 19h228q18 -3 18 -19q0 -18 -46 -18v-109q0 -19 -18 -19t-18 19v109q-46 0 -46 9q-13 -9 -55 -9v-109q0 -19 -17 -19q-19 0 -19 19v109q-46 0 -46 18zM957 667h27q0 19 -18 19zM975 539q18 0 63 -27h10v9q-19 0 -64 28h-9v-10zM984 494l155 -27v9q-16 48 -73 82v-9 q12 0 46 -46v-9q-69 64 -92 64h-8v-9q42 0 82 -55h-10q-9 0 -9 9l-18 -9l-45 9h-28v-9zM984 941q20 -46 73 -64v9q-14 55 -64 55h-9zM993 741h9l10 45v9h-10l-9 -37v-17zM1002 585q14 0 36 -18v9q-9 18 -9 28q-17 -9 -27 -9v-10zM1020 732l28 -19h18l-9 45v37h18l-9 64 l-46 -36l9 -46zM1038 604q10 0 28 -9v36h-28v-27zM1103 1225q18 0 18 18t-18 18v-36zM1157 1261l9 -46h9v46h-18zM1157 1325v18q15 0 110 9q42 -17 45 -36v-10h-9l-45 28q-81 -9 -101 -9zM1175 741q0 -131 174 -183v82q19 -3 19 -19v-63h72q101 0 101 100q9 34 9 83h-9 q-98 -83 -137 -83v9l-18 -9l-28 19q0 -19 -18 -19q0 14 -28 28l-27 -19q-36 24 -36 37l-18 -9l-10 18q10 0 10 9q-28 0 -28 19q9 0 9 8h-18zM1175 804h28v-9l-9 -18h27l-9 18q9 0 9 9q-9 0 -27 10h-19v-10zM1175 859q0 -20 110 -45q0 -11 55 -46q69 18 82 18l-9 -18 q36 5 36 27h19q89 -27 100 -27v18q-10 0 -100 18h-82v19h73v9q-64 13 -64 100l-18 -9h-19q-51 0 -137 46q-9 -63 -9 -83q68 -33 73 -54v-9q-73 54 -110 54v-18zM1203 1179q9 -37 55 -37l9 46l-18 9q-16 -9 -37 -9q0 9 -9 9v-18zM1212 110q12 83 82 83q83 -13 83 -83 q0 -68 -74 -91q-91 12 -91 91zM1231 1252q2 -18 18 -18l9 18h-27zM1249 83q0 -13 27 -27h36q14 0 28 27v45q0 15 -37 37h-18q-14 0 -36 -37v-45zM1249 804q14 0 36 -18v9l-27 19h-9v-10zM1303 1023v9h9l19 -9q16 9 37 9q12 0 27 -26q0 -14 -27 -28h-28q-13 1 -37 45z M1322 841v9l18 -9q13 36 28 36h9q-19 -54 -37 -54t-18 18zM1340 1051v18h37q0 -18 -19 -18h-18zM1377 1197l18 9q0 -14 18 -37v-9q-14 0 -36 37zM1386 101v37q32 55 82 55q73 0 73 -74v-45q-35 -55 -82 -55q-59 0 -73 82zM1413 110q19 -54 36 -54h37q28 9 28 54 q-8 55 -55 55q-27 -1 -46 -55zM1413 704q3 -18 18 -18v9q0 18 -18 18v-9zM1431 1188q12 -46 28 -46h9q13 0 27 27v19q-9 0 -27 9l-9 -18l-19 9h-9zM1468 722h18q0 27 46 27v9h-55l-9 -17q9 0 9 -9q-9 0 -9 -10zM1486 1352l46 -9v19h-46v-10zM1523 1197h9q0 7 9 55v9h-9 q-9 -48 -9 -55v-9zM1550 184l18 9q28 -36 28 -101h18q13 101 37 101h9q20 0 36 -110h9q12 110 37 110q18 -3 18 -19q-40 -146 -55 -146h-9q-21 0 -36 110h-9q-24 -110 -46 -110q-28 0 -55 156zM1596 686q33 -128 55 -128l18 27q-18 0 -18 19h18q0 17 -18 17h-9l9 -17h-9 q-19 0 -19 17l28 37q-9 18 -9 28l18 9l18 -9v9q-18 73 -73 73l-9 -19v-63zM1660 539q18 0 18 19v9q-18 -3 -18 -18v-10zM1760 128q27 65 82 65q83 0 83 -101q-30 -73 -83 -73q-82 0 -82 109zM1797 83q0 -13 27 -27h36q14 0 28 27v45q0 15 -37 37q-54 0 -54 -55v-27z M1933 101v18q0 74 83 74q73 0 73 -74v-45q-35 -55 -82 -55q-59 0 -74 82zM1961 101q18 -42 37 -45h36q28 9 28 54q-8 55 -55 55q-46 -14 -46 -64zM2107 47l18 9q19 -3 19 -19l-19 -9q-18 0 -18 19zM2162 128q27 65 82 65q64 0 64 -55l-18 -10q-31 37 -55 37q-37 -9 -37 -55 v-27q0 -13 28 -27h27q41 36 46 36l9 -18v-9q-25 -46 -73 -46q-73 0 -73 109zM2317 110q18 83 82 83q82 -13 82 -83v-9q-11 -82 -82 -82q-82 21 -82 91zM2353 110q7 -54 28 -54h37q13 0 27 27v27q0 55 -46 55q-41 -18 -46 -37v-18zM2500 47v127q3 19 18 19h9q21 0 46 -119h9 q30 119 55 119q18 -3 18 -19v-127q0 -19 -18 -19q-10 6 -10 82h-9q-18 -82 -36 -82h-9q-21 0 -37 91h-9q0 -91 -18 -91z" />
<glyph unicode="@" d="M25 184l18 9q24 0 37 -110h9q18 110 45 110q21 0 46 -101h10q6 101 36 101h27q16 0 37 -101h9q13 101 37 101h9q23 0 36 -101h9q18 101 37 101h27q28 0 36 -101q11 0 46 101h9q26 0 46 -101h10q9 101 36 101h9v-19q-24 -146 -55 -146q-23 0 -36 100h-19 q-13 -100 -36 -100q-27 0 -55 137h-9q-21 -137 -46 -137q-30 0 -45 110h-9q-19 -110 -46 -110q-28 0 -46 128q-12 0 -54 -128h-10q-20 0 -46 100h-9q-13 -100 -36 -100h-9q-18 0 -55 156zM655 47l18 9l10 -19l-19 -9zM701 174q3 19 18 19h101q18 -3 18 -19q0 -18 -55 -18 v-109q0 -19 -19 -19q-17 0 -17 19v109q-46 0 -46 18zM810 37q57 156 73 156q24 0 83 -156l-19 -9q-25 0 -27 46h-64q-7 -46 -27 -46zM865 777q21 174 101 174q-9 107 -9 155v82q0 381 191 484q58 27 210 36q82 0 165 -137q73 -51 73 -109v-28q0 -35 -46 -82v-64 q46 -6 46 -27q-55 -9 -55 -92v-81h-18v63q-34 -27 -64 -27h-19q-13 0 -27 27q0 9 9 9q-9 37 -9 65l-18 -10v19q27 65 82 82l55 -19v28l-64 9q-31 0 -64 -28l-9 19q45 24 45 37h-18l-45 -10l-46 10q-10 0 -28 -10q-36 10 -63 10q-12 0 -92 -10q0 10 -9 10l-9 -19l18 -9 l-9 -18v-19q69 19 82 19q82 -29 82 -91l-18 9v-46l9 -46l-27 -18h-27q-83 0 -83 101h-9v-37q0 -210 110 -210q0 -16 100 -37q156 53 156 128h18q0 -17 -27 -73q-10 -145 -10 -173q192 -39 192 -110q9 -15 9 -46v-155q0 -73 9 -191q-18 -42 -36 -46h-9v9l18 27v210 q-21 0 -36 9q0 -182 -247 -182v18q117 18 137 18v9q-446 74 -548 74q0 -48 -27 -55h-10v9l19 37q-35 0 -55 18v-9q0 -14 27 -110q-52 0 -73 420zM875 101h26v9q-9 18 -9 28q-17 -3 -17 -19v-18zM883 768q46 0 46 -36h18q3 45 28 45q-9 18 -9 27h-9q-24 -27 -74 -27v-9z M892 604q3 -19 19 -19l27 36l-18 10q0 -27 -28 -27zM892 631q24 18 46 18v28l-9 18l-18 -9h-10v27h-9v-82zM892 804h9v46h-9v-46zM929 905h9q19 0 19 18v9q-14 0 -28 -27zM938 476h9q19 0 19 18h-9q-19 -3 -19 -18zM938 695h9q19 0 19 18l-19 9l-9 -18v-9zM947 174 q3 19 19 19h228q18 -3 18 -19q0 -18 -46 -18v-109q0 -19 -18 -19t-18 19v109q-46 0 -46 9q-13 -9 -55 -9v-109q0 -19 -17 -19q-19 0 -19 19v109q-46 0 -46 18zM957 667h27q0 19 -18 19zM975 539q18 0 63 -27h10v9q-19 0 -64 28h-9v-10zM984 494l155 -27v9q-16 48 -73 82v-9 q12 0 46 -46v-9q-69 64 -92 64h-8v-9q42 0 82 -55h-10q-9 0 -9 9l-18 -9l-45 9h-28v-9zM984 941q20 -46 73 -64v9q-14 55 -64 55h-9zM993 741h9l10 45v9h-10l-9 -37v-17zM1002 585q14 0 36 -18v9q-9 18 -9 28q-17 -9 -27 -9v-10zM1020 732l28 -19h18l-9 45v37h18l-9 64 l-46 -36l9 -46zM1038 604q10 0 28 -9v36h-28v-27zM1103 1225q18 0 18 18t-18 18v-36zM1157 1261l9 -46h9v46h-18zM1157 1325v18q15 0 110 9q42 -17 45 -36v-10h-9l-45 28q-81 -9 -101 -9zM1175 741q0 -131 174 -183v82q19 -3 19 -19v-63h72q101 0 101 100q9 34 9 83h-9 q-98 -83 -137 -83v9l-18 -9l-28 19q0 -19 -18 -19q0 14 -28 28l-27 -19q-36 24 -36 37l-18 -9l-10 18q10 0 10 9q-28 0 -28 19q9 0 9 8h-18zM1175 804h28v-9l-9 -18h27l-9 18q9 0 9 9q-9 0 -27 10h-19v-10zM1175 859q0 -20 110 -45q0 -11 55 -46q69 18 82 18l-9 -18 q36 5 36 27h19q89 -27 100 -27v18q-10 0 -100 18h-82v19h73v9q-64 13 -64 100l-18 -9h-19q-51 0 -137 46q-9 -63 -9 -83q68 -33 73 -54v-9q-73 54 -110 54v-18zM1203 1179q9 -37 55 -37l9 46l-18 9q-16 -9 -37 -9q0 9 -9 9v-18zM1212 110q12 83 82 83q83 -13 83 -83 q0 -68 -74 -91q-91 12 -91 91zM1231 1252q2 -18 18 -18l9 18h-27zM1249 83q0 -13 27 -27h36q14 0 28 27v45q0 15 -37 37h-18q-14 0 -36 -37v-45zM1249 804q14 0 36 -18v9l-27 19h-9v-10zM1303 1023v9h9l19 -9q16 9 37 9q12 0 27 -26q0 -14 -27 -28h-28q-13 1 -37 45z M1322 841v9l18 -9q13 36 28 36h9q-19 -54 -37 -54t-18 18zM1340 1051v18h37q0 -18 -19 -18h-18zM1377 1197l18 9q0 -14 18 -37v-9q-14 0 -36 37zM1386 101v37q32 55 82 55q73 0 73 -74v-45q-35 -55 -82 -55q-59 0 -73 82zM1413 110q19 -54 36 -54h37q28 9 28 54 q-8 55 -55 55q-27 -1 -46 -55zM1413 704q3 -18 18 -18v9q0 18 -18 18v-9zM1431 1188q12 -46 28 -46h9q13 0 27 27v19q-9 0 -27 9l-9 -18l-19 9h-9zM1468 722h18q0 27 46 27v9h-55l-9 -17q9 0 9 -9q-9 0 -9 -10zM1486 1352l46 -9v19h-46v-10zM1523 1197h9q0 7 9 55v9h-9 q-9 -48 -9 -55v-9zM1550 184l18 9q28 -36 28 -101h18q13 101 37 101h9q20 0 36 -110h9q12 110 37 110q18 -3 18 -19q-40 -146 -55 -146h-9q-21 0 -36 110h-9q-24 -110 -46 -110q-28 0 -55 156zM1596 686q33 -128 55 -128l18 27q-18 0 -18 19h18q0 17 -18 17h-9l9 -17h-9 q-19 0 -19 17l28 37q-9 18 -9 28l18 9l18 -9v9q-18 73 -73 73l-9 -19v-63zM1660 539q18 0 18 19v9q-18 -3 -18 -18v-10zM1760 128q27 65 82 65q83 0 83 -101q-30 -73 -83 -73q-82 0 -82 109zM1797 83q0 -13 27 -27h36q14 0 28 27v45q0 15 -37 37q-54 0 -54 -55v-27z M1933 101v18q0 74 83 74q73 0 73 -74v-45q-35 -55 -82 -55q-59 0 -74 82zM1961 101q18 -42 37 -45h36q28 9 28 54q-8 55 -55 55q-46 -14 -46 -64zM2107 47l18 9q19 -3 19 -19l-19 -9q-18 0 -18 19zM2162 128q27 65 82 65q64 0 64 -55l-18 -10q-31 37 -55 37q-37 -9 -37 -55 v-27q0 -13 28 -27h27q41 36 46 36l9 -18v-9q-25 -46 -73 -46q-73 0 -73 109zM2317 110q18 83 82 83q82 -13 82 -83v-9q-11 -82 -82 -82q-82 21 -82 91zM2353 110q7 -54 28 -54h37q13 0 27 27v27q0 55 -46 55q-41 -18 -46 -37v-18zM2500 47v127q3 19 18 19h9q21 0 46 -119h9 q30 119 55 119q18 -3 18 -19v-127q0 -19 -18 -19q-10 6 -10 82h-9q-18 -82 -36 -82h-9q-21 0 -37 91h-9q0 -91 -18 -91z" />
<glyph unicode="A" horiz-adv-x="751" d="M0 38v18q158 460 578 1069q187 251 284 310q10 0 10 -9q11 0 11 9q147 0 147 -94q0 -314 -399 -1041q-46 -26 -137 -253h-52q-85 32 -85 84q32 103 116 225v29q-210 0 -210 -104q-39 -53 -116 -253q-40 -28 -52 -28q-95 11 -95 38zM378 506q36 0 53 -9q158 0 158 75 q126 208 241 610q-231 -262 -452 -666v-10z" />
<glyph unicode="B" horiz-adv-x="612" d="M0 90l90 81q-63 25 -63 72q36 97 189 387q252 562 252 586q-81 24 -81 81q0 34 153 81q0 25 235 54q234 -39 234 -153v-54q0 -153 -261 -441l-217 -163q54 -83 54 -126q0 -151 -342 -396q-119 -99 -162 -99q-81 28 -81 90zM198 261h9q216 165 216 261l-63 81 q-162 -311 -162 -342zM414 721h9q442 303 442 558q-9 27 -54 27h-27q-172 0 -172 -108z" />
<glyph unicode="C" horiz-adv-x="583" d="M0 149q0 192 418 883q152 231 279 354q71 46 103 46q105 0 148 -93h-9l9 -19v-27q0 -79 -120 -289l-38 -28h-18q-44 40 -84 56q0 30 74 177q-158 -138 -316 -419q-195 -311 -288 -623v-9h9l177 130q0 31 140 56l27 -37q0 -64 -213 -242q-59 -58 -121 -65h-28 q-103 0 -149 149z" />
<glyph unicode="D" horiz-adv-x="676" d="M0 28v38q57 71 151 114v9q-85 47 -85 66v19q0 55 369 738q0 37 104 255h-10q-28 0 -75 -19q-63 0 -114 85v19q0 19 57 28q0 -9 10 -9q0 26 198 47q46 57 57 57h9q82 0 123 -76q227 -70 227 -283q0 -270 -331 -681q-296 -292 -425 -322q-108 -81 -246 -113zM217 236 q195 120 294 237q238 240 340 567q0 32 9 47q0 10 -9 10l9 47v10q0 132 -132 132h-9q-290 -660 -502 -1021v-29z" />
<glyph unicode="E" horiz-adv-x="701" d="M0 234q0 159 138 392q25 71 149 298l233 435q2 85 43 85h10q11 0 11 -11l21 11q60 0 149 -74q159 -11 159 -64q-39 -47 -117 -74q-10 0 -10 10q-11 0 -11 -10l-53 10q-70 0 -180 -233q-12 -1 -149 -266l10 -21l22 11h21q38 0 96 -11l21 11q42 -16 42 -32v-21 q0 -71 -308 -128q-95 -195 -95 -265v-43q14 -117 74 -117q53 0 266 32q95 -17 95 -42q0 -57 -287 -117h-53q-197 0 -297 234z" />
<glyph unicode="F" horiz-adv-x="354" d="M0 81q16 61 30 61l-10 20q269 513 455 1011q-20 33 -20 60q0 15 30 31h10l21 -10q40 80 111 303h30q122 0 122 -40v-41q0 -47 -61 -202h10l51 10q224 0 262 -81v-10q0 -15 -30 -30q-10 0 -10 10q-354 -54 -354 -71l-152 -344q11 0 11 -10l20 10q192 -14 192 -50 q-39 -69 -142 -91l-20 10l-20 -10l-20 10l-61 -10l-20 10q0 -23 -202 -405q-96 -222 -132 -222h-10q-85 46 -91 81z" />
<glyph unicode="G" horiz-adv-x="597" d="M0 218v21q0 105 135 447q-93 56 -93 115q10 41 62 41h10q11 0 11 -10l21 10q23 0 41 -10q48 0 115 156q263 447 436 447q146 -33 146 -104q0 -55 -146 -62q-270 -275 -332 -448q10 0 10 11q57 -11 83 -11q11 0 11 11q208 -10 208 -52q-79 -304 -344 -686 q-80 -80 -176 -94q-198 57 -198 218zM187 250l11 -52q150 150 301 488l-21 -10h-135q-84 -95 -156 -426z" />
<glyph unicode="H" horiz-adv-x="619" d="M-5 54q33 182 62 182l-10 18q52 116 188 482q-198 31 -198 118l41 27h11q23 0 42 -9l20 9q105 -13 105 -36q39 0 104 218q53 104 147 354l52 27q94 0 136 -73v-9q-84 -112 -230 -554q10 0 10 -9l21 9l52 -9q141 513 262 627q8 0 62 9l84 -45q10 -16 10 -37v-9 q-54 0 -209 -508q-198 -509 -303 -900l-73 -45q-73 0 -73 91q11 163 32 163q0 9 -11 9q73 248 105 309h10l-10 18q41 139 83 218h-10q-11 0 -32 -9l-62 9l-209 -545q-21 -145 -63 -145l-21 -9h-21q-41 0 -104 54z" />
<glyph unicode="I" horiz-adv-x="469" d="M0 135q0 59 154 86q40 178 77 202l-10 19q41 107 58 125l-10 19q125 350 231 711l-20 -10q-62 28 -96 77v29q6 23 68 48q98 -12 115 -19q0 28 38 48h39l153 -106v-29q0 -32 -124 -57q-87 -299 -337 -1019l-9 -48q30 0 57 -48q0 -65 -125 -115q-27 -48 -57 -48l-19 10 q-12 -10 -58 -10q0 45 -106 106z" />
<glyph unicode="J" horiz-adv-x="376" d="M0 486q24 89 40 89q81 -40 114 -170q0 -20 16 -73q17 0 121 324l203 704q27 81 81 81h16q65 -34 65 -57q-63 -151 -267 -850l-170 -494l-41 -40q-18 0 -32 8l-16 -8q-98 30 -98 324q-8 0 -24 113q8 14 8 33q-16 0 -16 16z" />
<glyph unicode="K" horiz-adv-x="819" d="M0 35l10 17q-10 17 -10 26q14 11 50 113q71 239 231 632l242 623l20 9h100q20 -3 20 -17q0 -73 -251 -719q417 312 533 312q7 0 60 8q46 -16 50 -34v-9q-41 -74 -281 -208q-186 -132 -191 -147v-17l141 -364q9 0 40 -78v-9q0 -14 -80 -43h-11q-136 99 -191 251l-50 156 h-10q-37 -30 -110 -61q-177 -476 -232 -476q-31 0 -80 35z" />
<glyph unicode="L" horiz-adv-x="469" d="M0 139q166 306 254 540q135 262 254 754q29 16 65 16h8q58 -28 58 -41v-8q0 -222 -459 -1244q0 -27 66 -50l16 9l16 -9l17 9q139 -23 139 -50q0 -55 -164 -65q-221 39 -221 82q-35 20 -49 57z" />
<glyph unicode="M" horiz-adv-x="740" d="M0 86v18q43 57 190 457q155 403 224 750v17l-9 52q15 52 121 52v-9l17 9h18q18 -4 34 -43q-15 -271 -43 -440l155 293q64 97 104 121h60l43 9q41 -28 52 -78q-103 -395 -250 -854q-43 -76 -78 -302q26 -73 26 -103q-14 -35 -60 -35h-69q-61 43 -61 86v52q0 121 138 518 q-19 -3 -60 -147q-66 -104 -112 -104h-26q-45 0 -95 61h-17q-124 -406 -207 -406l-17 9q-17 -9 -26 -9q-52 9 -52 26zM612 664h9l9 35v17h-9l-9 -43v-9z" />
<glyph unicode="N" horiz-adv-x="569" d="M0 90q0 29 142 547q143 463 143 561v23q0 26 82 45q82 -10 82 -83q-7 -54 -15 -67q0 -8 8 -8q-30 -271 -45 -704v-7h7q135 551 225 861q77 137 120 173l15 7h7q11 0 45 -45v-7q0 -30 -104 -300q-29 -150 -53 -150q8 -14 8 -22l-135 -592q-80 -315 -128 -315l-37 -7 q-120 29 -120 165v37l8 45l-8 15q0 7 23 270q-13 -15 -83 -232l8 -15q-18 -45 -23 -45l8 -15q-27 -53 -38 -143l-37 -22q-88 15 -105 30z" />
<glyph unicode="O" horiz-adv-x="483" d="M0 170q146 737 448 1184q0 59 54 81h54q99 -12 99 -81v-9q-54 -58 -54 -98v-278q0 -348 -260 -852q-100 -117 -180 -117q-161 44 -161 170zM179 188q87 93 225 538q35 171 35 234v45h-8q-252 -590 -252 -808v-9z" />
<glyph unicode="P" horiz-adv-x="322" d="M0 79v8q119 371 155 556q-18 26 -18 48q61 0 119 254q193 484 365 484q234 0 328 -175q0 -31 10 -31q0 -211 -293 -477q-119 -81 -346 -151l-137 -571q-34 -24 -64 -24q-88 28 -119 79zM365 762h9q185 51 320 238q95 128 100 215l-9 16q9 15 9 23q-44 40 -118 40 q-117 0 -311 -532z" />
<glyph unicode="Q" horiz-adv-x="451" d="M0 429q0 226 180 626l146 240l94 128q29 0 43 9q172 -7 172 -51q0 -43 -35 -52l35 -86v-68q0 -270 -241 -755q-27 -169 -42 -197q0 -9 8 -9l-8 -85q0 -23 42 -69q-11 -60 -34 -60h-17q-154 30 -154 137l8 43v86q-96 0 -163 86q-25 0 -34 77zM146 446q11 -43 25 -43 q66 30 95 137q69 47 197 472q-9 16 -9 26q15 0 26 42l-8 18q17 44 17 68q0 12 -17 95h-9q-175 -239 -283 -592v-9q9 0 9 -8q-14 0 -43 -155l8 -17z" />
<glyph unicode="R" horiz-adv-x="637" d="M-80 67q54 89 224 519q-27 9 -27 53l89 72l90 250q98 185 98 242q-109 -51 -152 -81q-77 21 -107 72v18q54 65 268 134q69 0 90 116q17 36 89 45q81 -25 81 -54q0 -23 -27 -62v-27q106 0 179 -143q0 -265 -314 -510q-161 -99 -161 -125q183 -218 251 -591q18 -35 18 -98 l-54 -45q-84 0 -143 259q-56 163 -152 349h-9q-84 -225 -197 -429q-27 -18 -62 -27q-52 18 -72 63zM412 827q242 186 242 376q-18 41 -36 45h-36q0 -16 -170 -421z" />
<glyph unicode="S" horiz-adv-x="554" d="M0 80v18l187 133q314 326 347 436q12 0 26 27v26q-211 -124 -266 -124q-66 0 -125 116q88 227 382 658q25 29 81 62h8q9 0 9 -9l18 9h45q88 -59 88 -98q0 -9 -8 -9l8 -35q-56 -258 -97 -258h-45q-62 49 -62 80h-9q-140 -190 -196 -312h9q102 63 232 89q124 -24 124 -97 l-9 -18l9 -18q-30 -170 -382 -560q-226 -196 -267 -196q-59 0 -107 80z" />
<glyph unicode="T" horiz-adv-x="322" d="M0 827v18q0 14 36 36h9l18 -9q3 18 18 18q23 0 108 -18q217 66 512 341q102 150 180 216h54q13 0 63 -63q0 -9 -9 -9l9 -18q-205 -302 -378 -404q9 -18 9 -27q0 -26 -81 -117q-368 -636 -368 -764q-49 -27 -81 -27l-63 81q0 131 306 674v18h-9q-46 -24 -126 -36 q-141 0 -207 90z" />
<glyph unicode="U" horiz-adv-x="605" d="M0 342q0 154 288 781q57 198 125 198q9 0 9 -9l18 9q90 -18 90 -45q-305 -656 -305 -719q-15 0 -45 -135q68 49 296 504q186 416 243 512h72q81 -16 81 -63q-360 -873 -360 -1258q36 -58 36 -81q-38 -36 -72 -36h-36q-98 45 -98 144q0 65 26 242q-116 -152 -197 -152h-27 q-105 0 -144 108z" />
<glyph unicode="V" horiz-adv-x="365" d="M0 55q18 281 73 623q0 9 -9 9q9 92 18 92q0 9 -9 9q19 110 19 275v28q0 9 9 9l-9 18v9q0 21 9 37q-9 16 -9 37h9l-9 18v64q0 49 -37 64q0 68 119 83h18q69 -11 74 -37v-82l9 -46h-9l9 -19v-18q0 -9 -9 -9l9 -18q-9 -198 -9 -285h-9q0 -9 9 -9l-37 -357v-9h9 q176 426 422 724q109 146 192 146q37 -48 37 -64q-431 -633 -513 -935q-19 0 -110 -265q-48 -103 -138 -147h-18q-46 0 -110 55z" />
<glyph unicode="W" horiz-adv-x="701" d="M0 59q20 0 161 722q39 645 119 645q9 0 9 8q93 -15 93 -59l8 -34q-23 0 -76 -526q-8 0 -34 -187q159 297 170 297l42 9q111 -15 111 -68q-34 -139 -51 -162q8 -16 8 -25q-23 0 -51 -212v-9h9q274 959 390 959q15 9 34 9q17 0 34 -51q0 -70 -93 -297q-204 -644 -323 -993 q-56 -68 -102 -68h-17q-135 14 -135 93v26q0 161 25 187h-8q-10 0 -68 -153l-68 -128q0 -11 -43 -42q-144 29 -144 59z" />
<glyph unicode="X" horiz-adv-x="533" d="M0 247q75 83 230 402q-16 271 -25 280q0 8 9 8q0 8 -9 24q-8 321 -16 395h8l-8 16q11 33 74 33h8q64 0 82 -41v-90l9 -41h-9l9 -17q0 -25 -9 -25l17 -238q-8 -14 -8 -33q8 -13 8 -41h16q38 85 239 411q59 148 115 148q73 -19 73 -74q-52 -167 -377 -657 q-42 -101 -42 -107q63 -518 99 -518q8 -58 8 -66q-27 -16 -49 -16q-123 28 -123 123q-25 22 -66 271h-8q-74 -213 -148 -213v8l-17 -8q-75 32 -90 66z" />
<glyph unicode="Y" horiz-adv-x="386" d="M0 51q137 224 257 455q-68 52 -68 249v68l-9 60h9l-9 17v155l-9 43h9l-9 17q0 8 9 8l-9 17q0 26 9 26l-9 43v86q0 50 61 77h25q95 0 95 -86q-18 -34 -18 -60q9 -15 9 -34h-9l9 -17v-26q0 -136 9 -446q36 39 265 497q91 169 198 232h25q78 -27 78 -43v-34 q-220 -295 -455 -806l-249 -446q0 -49 -68 -103h-17q-129 0 -129 51z" />
<glyph unicode="Z" horiz-adv-x="726" d="M0 93v10q300 316 653 840q179 257 196 317h-9q-163 -37 -252 -37h-56q-54 0 -84 65v19q0 16 65 46l38 -9q40 0 336 75q51 9 74 9q131 -30 131 -84q-31 -137 -243 -401q0 -44 -485 -682q-11 0 -75 -93v-9l47 9v-9q64 18 252 46q18 -9 28 -9q18 9 28 9q37 -41 37 -46 q-17 -50 -205 -122l-19 10q-173 -47 -261 -47h-47q-121 0 -149 93z" />
<glyph unicode="[" d="M25 184l18 9q24 0 37 -110h9q18 110 45 110q21 0 46 -101h10q6 101 36 101h27q16 0 37 -101h9q13 101 37 101h9q23 0 36 -101h9q18 101 37 101h27q28 0 36 -101q11 0 46 101h9q26 0 46 -101h10q9 101 36 101h9v-19q-24 -146 -55 -146q-23 0 -36 100h-19 q-13 -100 -36 -100q-27 0 -55 137h-9q-21 -137 -46 -137q-30 0 -45 110h-9q-19 -110 -46 -110q-28 0 -46 128q-12 0 -54 -128h-10q-20 0 -46 100h-9q-13 -100 -36 -100h-9q-18 0 -55 156zM655 47l18 9l10 -19l-19 -9zM701 174q3 19 18 19h101q18 -3 18 -19q0 -18 -55 -18 v-109q0 -19 -19 -19q-17 0 -17 19v109q-46 0 -46 18zM810 37q57 156 73 156q24 0 83 -156l-19 -9q-25 0 -27 46h-64q-7 -46 -27 -46zM865 777q21 174 101 174q-9 107 -9 155v82q0 381 191 484q58 27 210 36q82 0 165 -137q73 -51 73 -109v-28q0 -35 -46 -82v-64 q46 -6 46 -27q-55 -9 -55 -92v-81h-18v63q-34 -27 -64 -27h-19q-13 0 -27 27q0 9 9 9q-9 37 -9 65l-18 -10v19q27 65 82 82l55 -19v28l-64 9q-31 0 -64 -28l-9 19q45 24 45 37h-18l-45 -10l-46 10q-10 0 -28 -10q-36 10 -63 10q-12 0 -92 -10q0 10 -9 10l-9 -19l18 -9 l-9 -18v-19q69 19 82 19q82 -29 82 -91l-18 9v-46l9 -46l-27 -18h-27q-83 0 -83 101h-9v-37q0 -210 110 -210q0 -16 100 -37q156 53 156 128h18q0 -17 -27 -73q-10 -145 -10 -173q192 -39 192 -110q9 -15 9 -46v-155q0 -73 9 -191q-18 -42 -36 -46h-9v9l18 27v210 q-21 0 -36 9q0 -182 -247 -182v18q117 18 137 18v9q-446 74 -548 74q0 -48 -27 -55h-10v9l19 37q-35 0 -55 18v-9q0 -14 27 -110q-52 0 -73 420zM875 101h26v9q-9 18 -9 28q-17 -3 -17 -19v-18zM883 768q46 0 46 -36h18q3 45 28 45q-9 18 -9 27h-9q-24 -27 -74 -27v-9z M892 604q3 -19 19 -19l27 36l-18 10q0 -27 -28 -27zM892 631q24 18 46 18v28l-9 18l-18 -9h-10v27h-9v-82zM892 804h9v46h-9v-46zM929 905h9q19 0 19 18v9q-14 0 -28 -27zM938 476h9q19 0 19 18h-9q-19 -3 -19 -18zM938 695h9q19 0 19 18l-19 9l-9 -18v-9zM947 174 q3 19 19 19h228q18 -3 18 -19q0 -18 -46 -18v-109q0 -19 -18 -19t-18 19v109q-46 0 -46 9q-13 -9 -55 -9v-109q0 -19 -17 -19q-19 0 -19 19v109q-46 0 -46 18zM957 667h27q0 19 -18 19zM975 539q18 0 63 -27h10v9q-19 0 -64 28h-9v-10zM984 494l155 -27v9q-16 48 -73 82v-9 q12 0 46 -46v-9q-69 64 -92 64h-8v-9q42 0 82 -55h-10q-9 0 -9 9l-18 -9l-45 9h-28v-9zM984 941q20 -46 73 -64v9q-14 55 -64 55h-9zM993 741h9l10 45v9h-10l-9 -37v-17zM1002 585q14 0 36 -18v9q-9 18 -9 28q-17 -9 -27 -9v-10zM1020 732l28 -19h18l-9 45v37h18l-9 64 l-46 -36l9 -46zM1038 604q10 0 28 -9v36h-28v-27zM1103 1225q18 0 18 18t-18 18v-36zM1157 1261l9 -46h9v46h-18zM1157 1325v18q15 0 110 9q42 -17 45 -36v-10h-9l-45 28q-81 -9 -101 -9zM1175 741q0 -131 174 -183v82q19 -3 19 -19v-63h72q101 0 101 100q9 34 9 83h-9 q-98 -83 -137 -83v9l-18 -9l-28 19q0 -19 -18 -19q0 14 -28 28l-27 -19q-36 24 -36 37l-18 -9l-10 18q10 0 10 9q-28 0 -28 19q9 0 9 8h-18zM1175 804h28v-9l-9 -18h27l-9 18q9 0 9 9q-9 0 -27 10h-19v-10zM1175 859q0 -20 110 -45q0 -11 55 -46q69 18 82 18l-9 -18 q36 5 36 27h19q89 -27 100 -27v18q-10 0 -100 18h-82v19h73v9q-64 13 -64 100l-18 -9h-19q-51 0 -137 46q-9 -63 -9 -83q68 -33 73 -54v-9q-73 54 -110 54v-18zM1203 1179q9 -37 55 -37l9 46l-18 9q-16 -9 -37 -9q0 9 -9 9v-18zM1212 110q12 83 82 83q83 -13 83 -83 q0 -68 -74 -91q-91 12 -91 91zM1231 1252q2 -18 18 -18l9 18h-27zM1249 83q0 -13 27 -27h36q14 0 28 27v45q0 15 -37 37h-18q-14 0 -36 -37v-45zM1249 804q14 0 36 -18v9l-27 19h-9v-10zM1303 1023v9h9l19 -9q16 9 37 9q12 0 27 -26q0 -14 -27 -28h-28q-13 1 -37 45z M1322 841v9l18 -9q13 36 28 36h9q-19 -54 -37 -54t-18 18zM1340 1051v18h37q0 -18 -19 -18h-18zM1377 1197l18 9q0 -14 18 -37v-9q-14 0 -36 37zM1386 101v37q32 55 82 55q73 0 73 -74v-45q-35 -55 -82 -55q-59 0 -73 82zM1413 110q19 -54 36 -54h37q28 9 28 54 q-8 55 -55 55q-27 -1 -46 -55zM1413 704q3 -18 18 -18v9q0 18 -18 18v-9zM1431 1188q12 -46 28 -46h9q13 0 27 27v19q-9 0 -27 9l-9 -18l-19 9h-9zM1468 722h18q0 27 46 27v9h-55l-9 -17q9 0 9 -9q-9 0 -9 -10zM1486 1352l46 -9v19h-46v-10zM1523 1197h9q0 7 9 55v9h-9 q-9 -48 -9 -55v-9zM1550 184l18 9q28 -36 28 -101h18q13 101 37 101h9q20 0 36 -110h9q12 110 37 110q18 -3 18 -19q-40 -146 -55 -146h-9q-21 0 -36 110h-9q-24 -110 -46 -110q-28 0 -55 156zM1596 686q33 -128 55 -128l18 27q-18 0 -18 19h18q0 17 -18 17h-9l9 -17h-9 q-19 0 -19 17l28 37q-9 18 -9 28l18 9l18 -9v9q-18 73 -73 73l-9 -19v-63zM1660 539q18 0 18 19v9q-18 -3 -18 -18v-10zM1760 128q27 65 82 65q83 0 83 -101q-30 -73 -83 -73q-82 0 -82 109zM1797 83q0 -13 27 -27h36q14 0 28 27v45q0 15 -37 37q-54 0 -54 -55v-27z M1933 101v18q0 74 83 74q73 0 73 -74v-45q-35 -55 -82 -55q-59 0 -74 82zM1961 101q18 -42 37 -45h36q28 9 28 54q-8 55 -55 55q-46 -14 -46 -64zM2107 47l18 9q19 -3 19 -19l-19 -9q-18 0 -18 19zM2162 128q27 65 82 65q64 0 64 -55l-18 -10q-31 37 -55 37q-37 -9 -37 -55 v-27q0 -13 28 -27h27q41 36 46 36l9 -18v-9q-25 -46 -73 -46q-73 0 -73 109zM2317 110q18 83 82 83q82 -13 82 -83v-9q-11 -82 -82 -82q-82 21 -82 91zM2353 110q7 -54 28 -54h37q13 0 27 27v27q0 55 -46 55q-41 -18 -46 -37v-18zM2500 47v127q3 19 18 19h9q21 0 46 -119h9 q30 119 55 119q18 -3 18 -19v-127q0 -19 -18 -19q-10 6 -10 82h-9q-18 -82 -36 -82h-9q-21 0 -37 91h-9q0 -91 -18 -91z" />
<glyph unicode="\" d="M25 184l18 9q24 0 37 -110h9q18 110 45 110q21 0 46 -101h10q6 101 36 101h27q16 0 37 -101h9q13 101 37 101h9q23 0 36 -101h9q18 101 37 101h27q28 0 36 -101q11 0 46 101h9q26 0 46 -101h10q9 101 36 101h9v-19q-24 -146 -55 -146q-23 0 -36 100h-19 q-13 -100 -36 -100q-27 0 -55 137h-9q-21 -137 -46 -137q-30 0 -45 110h-9q-19 -110 -46 -110q-28 0 -46 128q-12 0 -54 -128h-10q-20 0 -46 100h-9q-13 -100 -36 -100h-9q-18 0 -55 156zM655 47l18 9l10 -19l-19 -9zM701 174q3 19 18 19h101q18 -3 18 -19q0 -18 -55 -18 v-109q0 -19 -19 -19q-17 0 -17 19v109q-46 0 -46 18zM810 37q57 156 73 156q24 0 83 -156l-19 -9q-25 0 -27 46h-64q-7 -46 -27 -46zM865 777q21 174 101 174q-9 107 -9 155v82q0 381 191 484q58 27 210 36q82 0 165 -137q73 -51 73 -109v-28q0 -35 -46 -82v-64 q46 -6 46 -27q-55 -9 -55 -92v-81h-18v63q-34 -27 -64 -27h-19q-13 0 -27 27q0 9 9 9q-9 37 -9 65l-18 -10v19q27 65 82 82l55 -19v28l-64 9q-31 0 -64 -28l-9 19q45 24 45 37h-18l-45 -10l-46 10q-10 0 -28 -10q-36 10 -63 10q-12 0 -92 -10q0 10 -9 10l-9 -19l18 -9 l-9 -18v-19q69 19 82 19q82 -29 82 -91l-18 9v-46l9 -46l-27 -18h-27q-83 0 -83 101h-9v-37q0 -210 110 -210q0 -16 100 -37q156 53 156 128h18q0 -17 -27 -73q-10 -145 -10 -173q192 -39 192 -110q9 -15 9 -46v-155q0 -73 9 -191q-18 -42 -36 -46h-9v9l18 27v210 q-21 0 -36 9q0 -182 -247 -182v18q117 18 137 18v9q-446 74 -548 74q0 -48 -27 -55h-10v9l19 37q-35 0 -55 18v-9q0 -14 27 -110q-52 0 -73 420zM875 101h26v9q-9 18 -9 28q-17 -3 -17 -19v-18zM883 768q46 0 46 -36h18q3 45 28 45q-9 18 -9 27h-9q-24 -27 -74 -27v-9z M892 604q3 -19 19 -19l27 36l-18 10q0 -27 -28 -27zM892 631q24 18 46 18v28l-9 18l-18 -9h-10v27h-9v-82zM892 804h9v46h-9v-46zM929 905h9q19 0 19 18v9q-14 0 -28 -27zM938 476h9q19 0 19 18h-9q-19 -3 -19 -18zM938 695h9q19 0 19 18l-19 9l-9 -18v-9zM947 174 q3 19 19 19h228q18 -3 18 -19q0 -18 -46 -18v-109q0 -19 -18 -19t-18 19v109q-46 0 -46 9q-13 -9 -55 -9v-109q0 -19 -17 -19q-19 0 -19 19v109q-46 0 -46 18zM957 667h27q0 19 -18 19zM975 539q18 0 63 -27h10v9q-19 0 -64 28h-9v-10zM984 494l155 -27v9q-16 48 -73 82v-9 q12 0 46 -46v-9q-69 64 -92 64h-8v-9q42 0 82 -55h-10q-9 0 -9 9l-18 -9l-45 9h-28v-9zM984 941q20 -46 73 -64v9q-14 55 -64 55h-9zM993 741h9l10 45v9h-10l-9 -37v-17zM1002 585q14 0 36 -18v9q-9 18 -9 28q-17 -9 -27 -9v-10zM1020 732l28 -19h18l-9 45v37h18l-9 64 l-46 -36l9 -46zM1038 604q10 0 28 -9v36h-28v-27zM1103 1225q18 0 18 18t-18 18v-36zM1157 1261l9 -46h9v46h-18zM1157 1325v18q15 0 110 9q42 -17 45 -36v-10h-9l-45 28q-81 -9 -101 -9zM1175 741q0 -131 174 -183v82q19 -3 19 -19v-63h72q101 0 101 100q9 34 9 83h-9 q-98 -83 -137 -83v9l-18 -9l-28 19q0 -19 -18 -19q0 14 -28 28l-27 -19q-36 24 -36 37l-18 -9l-10 18q10 0 10 9q-28 0 -28 19q9 0 9 8h-18zM1175 804h28v-9l-9 -18h27l-9 18q9 0 9 9q-9 0 -27 10h-19v-10zM1175 859q0 -20 110 -45q0 -11 55 -46q69 18 82 18l-9 -18 q36 5 36 27h19q89 -27 100 -27v18q-10 0 -100 18h-82v19h73v9q-64 13 -64 100l-18 -9h-19q-51 0 -137 46q-9 -63 -9 -83q68 -33 73 -54v-9q-73 54 -110 54v-18zM1203 1179q9 -37 55 -37l9 46l-18 9q-16 -9 -37 -9q0 9 -9 9v-18zM1212 110q12 83 82 83q83 -13 83 -83 q0 -68 -74 -91q-91 12 -91 91zM1231 1252q2 -18 18 -18l9 18h-27zM1249 83q0 -13 27 -27h36q14 0 28 27v45q0 15 -37 37h-18q-14 0 -36 -37v-45zM1249 804q14 0 36 -18v9l-27 19h-9v-10zM1303 1023v9h9l19 -9q16 9 37 9q12 0 27 -26q0 -14 -27 -28h-28q-13 1 -37 45z M1322 841v9l18 -9q13 36 28 36h9q-19 -54 -37 -54t-18 18zM1340 1051v18h37q0 -18 -19 -18h-18zM1377 1197l18 9q0 -14 18 -37v-9q-14 0 -36 37zM1386 101v37q32 55 82 55q73 0 73 -74v-45q-35 -55 -82 -55q-59 0 -73 82zM1413 110q19 -54 36 -54h37q28 9 28 54 q-8 55 -55 55q-27 -1 -46 -55zM1413 704q3 -18 18 -18v9q0 18 -18 18v-9zM1431 1188q12 -46 28 -46h9q13 0 27 27v19q-9 0 -27 9l-9 -18l-19 9h-9zM1468 722h18q0 27 46 27v9h-55l-9 -17q9 0 9 -9q-9 0 -9 -10zM1486 1352l46 -9v19h-46v-10zM1523 1197h9q0 7 9 55v9h-9 q-9 -48 -9 -55v-9zM1550 184l18 9q28 -36 28 -101h18q13 101 37 101h9q20 0 36 -110h9q12 110 37 110q18 -3 18 -19q-40 -146 -55 -146h-9q-21 0 -36 110h-9q-24 -110 -46 -110q-28 0 -55 156zM1596 686q33 -128 55 -128l18 27q-18 0 -18 19h18q0 17 -18 17h-9l9 -17h-9 q-19 0 -19 17l28 37q-9 18 -9 28l18 9l18 -9v9q-18 73 -73 73l-9 -19v-63zM1660 539q18 0 18 19v9q-18 -3 -18 -18v-10zM1760 128q27 65 82 65q83 0 83 -101q-30 -73 -83 -73q-82 0 -82 109zM1797 83q0 -13 27 -27h36q14 0 28 27v45q0 15 -37 37q-54 0 -54 -55v-27z M1933 101v18q0 74 83 74q73 0 73 -74v-45q-35 -55 -82 -55q-59 0 -74 82zM1961 101q18 -42 37 -45h36q28 9 28 54q-8 55 -55 55q-46 -14 -46 -64zM2107 47l18 9q19 -3 19 -19l-19 -9q-18 0 -18 19zM2162 128q27 65 82 65q64 0 64 -55l-18 -10q-31 37 -55 37q-37 -9 -37 -55 v-27q0 -13 28 -27h27q41 36 46 36l9 -18v-9q-25 -46 -73 -46q-73 0 -73 109zM2317 110q18 83 82 83q82 -13 82 -83v-9q-11 -82 -82 -82q-82 21 -82 91zM2353 110q7 -54 28 -54h37q13 0 27 27v27q0 55 -46 55q-41 -18 -46 -37v-18zM2500 47v127q3 19 18 19h9q21 0 46 -119h9 q30 119 55 119q18 -3 18 -19v-127q0 -19 -18 -19q-10 6 -10 82h-9q-18 -82 -36 -82h-9q-21 0 -37 91h-9q0 -91 -18 -91z" />
<glyph unicode="]" d="M25 184l18 9q24 0 37 -110h9q18 110 45 110q21 0 46 -101h10q6 101 36 101h27q16 0 37 -101h9q13 101 37 101h9q23 0 36 -101h9q18 101 37 101h27q28 0 36 -101q11 0 46 101h9q26 0 46 -101h10q9 101 36 101h9v-19q-24 -146 -55 -146q-23 0 -36 100h-19 q-13 -100 -36 -100q-27 0 -55 137h-9q-21 -137 -46 -137q-30 0 -45 110h-9q-19 -110 -46 -110q-28 0 -46 128q-12 0 -54 -128h-10q-20 0 -46 100h-9q-13 -100 -36 -100h-9q-18 0 -55 156zM655 47l18 9l10 -19l-19 -9zM701 174q3 19 18 19h101q18 -3 18 -19q0 -18 -55 -18 v-109q0 -19 -19 -19q-17 0 -17 19v109q-46 0 -46 18zM810 37q57 156 73 156q24 0 83 -156l-19 -9q-25 0 -27 46h-64q-7 -46 -27 -46zM865 777q21 174 101 174q-9 107 -9 155v82q0 381 191 484q58 27 210 36q82 0 165 -137q73 -51 73 -109v-28q0 -35 -46 -82v-64 q46 -6 46 -27q-55 -9 -55 -92v-81h-18v63q-34 -27 -64 -27h-19q-13 0 -27 27q0 9 9 9q-9 37 -9 65l-18 -10v19q27 65 82 82l55 -19v28l-64 9q-31 0 -64 -28l-9 19q45 24 45 37h-18l-45 -10l-46 10q-10 0 -28 -10q-36 10 -63 10q-12 0 -92 -10q0 10 -9 10l-9 -19l18 -9 l-9 -18v-19q69 19 82 19q82 -29 82 -91l-18 9v-46l9 -46l-27 -18h-27q-83 0 -83 101h-9v-37q0 -210 110 -210q0 -16 100 -37q156 53 156 128h18q0 -17 -27 -73q-10 -145 -10 -173q192 -39 192 -110q9 -15 9 -46v-155q0 -73 9 -191q-18 -42 -36 -46h-9v9l18 27v210 q-21 0 -36 9q0 -182 -247 -182v18q117 18 137 18v9q-446 74 -548 74q0 -48 -27 -55h-10v9l19 37q-35 0 -55 18v-9q0 -14 27 -110q-52 0 -73 420zM875 101h26v9q-9 18 -9 28q-17 -3 -17 -19v-18zM883 768q46 0 46 -36h18q3 45 28 45q-9 18 -9 27h-9q-24 -27 -74 -27v-9z M892 604q3 -19 19 -19l27 36l-18 10q0 -27 -28 -27zM892 631q24 18 46 18v28l-9 18l-18 -9h-10v27h-9v-82zM892 804h9v46h-9v-46zM929 905h9q19 0 19 18v9q-14 0 -28 -27zM938 476h9q19 0 19 18h-9q-19 -3 -19 -18zM938 695h9q19 0 19 18l-19 9l-9 -18v-9zM947 174 q3 19 19 19h228q18 -3 18 -19q0 -18 -46 -18v-109q0 -19 -18 -19t-18 19v109q-46 0 -46 9q-13 -9 -55 -9v-109q0 -19 -17 -19q-19 0 -19 19v109q-46 0 -46 18zM957 667h27q0 19 -18 19zM975 539q18 0 63 -27h10v9q-19 0 -64 28h-9v-10zM984 494l155 -27v9q-16 48 -73 82v-9 q12 0 46 -46v-9q-69 64 -92 64h-8v-9q42 0 82 -55h-10q-9 0 -9 9l-18 -9l-45 9h-28v-9zM984 941q20 -46 73 -64v9q-14 55 -64 55h-9zM993 741h9l10 45v9h-10l-9 -37v-17zM1002 585q14 0 36 -18v9q-9 18 -9 28q-17 -9 -27 -9v-10zM1020 732l28 -19h18l-9 45v37h18l-9 64 l-46 -36l9 -46zM1038 604q10 0 28 -9v36h-28v-27zM1103 1225q18 0 18 18t-18 18v-36zM1157 1261l9 -46h9v46h-18zM1157 1325v18q15 0 110 9q42 -17 45 -36v-10h-9l-45 28q-81 -9 -101 -9zM1175 741q0 -131 174 -183v82q19 -3 19 -19v-63h72q101 0 101 100q9 34 9 83h-9 q-98 -83 -137 -83v9l-18 -9l-28 19q0 -19 -18 -19q0 14 -28 28l-27 -19q-36 24 -36 37l-18 -9l-10 18q10 0 10 9q-28 0 -28 19q9 0 9 8h-18zM1175 804h28v-9l-9 -18h27l-9 18q9 0 9 9q-9 0 -27 10h-19v-10zM1175 859q0 -20 110 -45q0 -11 55 -46q69 18 82 18l-9 -18 q36 5 36 27h19q89 -27 100 -27v18q-10 0 -100 18h-82v19h73v9q-64 13 -64 100l-18 -9h-19q-51 0 -137 46q-9 -63 -9 -83q68 -33 73 -54v-9q-73 54 -110 54v-18zM1203 1179q9 -37 55 -37l9 46l-18 9q-16 -9 -37 -9q0 9 -9 9v-18zM1212 110q12 83 82 83q83 -13 83 -83 q0 -68 -74 -91q-91 12 -91 91zM1231 1252q2 -18 18 -18l9 18h-27zM1249 83q0 -13 27 -27h36q14 0 28 27v45q0 15 -37 37h-18q-14 0 -36 -37v-45zM1249 804q14 0 36 -18v9l-27 19h-9v-10zM1303 1023v9h9l19 -9q16 9 37 9q12 0 27 -26q0 -14 -27 -28h-28q-13 1 -37 45z M1322 841v9l18 -9q13 36 28 36h9q-19 -54 -37 -54t-18 18zM1340 1051v18h37q0 -18 -19 -18h-18zM1377 1197l18 9q0 -14 18 -37v-9q-14 0 -36 37zM1386 101v37q32 55 82 55q73 0 73 -74v-45q-35 -55 -82 -55q-59 0 -73 82zM1413 110q19 -54 36 -54h37q28 9 28 54 q-8 55 -55 55q-27 -1 -46 -55zM1413 704q3 -18 18 -18v9q0 18 -18 18v-9zM1431 1188q12 -46 28 -46h9q13 0 27 27v19q-9 0 -27 9l-9 -18l-19 9h-9zM1468 722h18q0 27 46 27v9h-55l-9 -17q9 0 9 -9q-9 0 -9 -10zM1486 1352l46 -9v19h-46v-10zM1523 1197h9q0 7 9 55v9h-9 q-9 -48 -9 -55v-9zM1550 184l18 9q28 -36 28 -101h18q13 101 37 101h9q20 0 36 -110h9q12 110 37 110q18 -3 18 -19q-40 -146 -55 -146h-9q-21 0 -36 110h-9q-24 -110 -46 -110q-28 0 -55 156zM1596 686q33 -128 55 -128l18 27q-18 0 -18 19h18q0 17 -18 17h-9l9 -17h-9 q-19 0 -19 17l28 37q-9 18 -9 28l18 9l18 -9v9q-18 73 -73 73l-9 -19v-63zM1660 539q18 0 18 19v9q-18 -3 -18 -18v-10zM1760 128q27 65 82 65q83 0 83 -101q-30 -73 -83 -73q-82 0 -82 109zM1797 83q0 -13 27 -27h36q14 0 28 27v45q0 15 -37 37q-54 0 -54 -55v-27z M1933 101v18q0 74 83 74q73 0 73 -74v-45q-35 -55 -82 -55q-59 0 -74 82zM1961 101q18 -42 37 -45h36q28 9 28 54q-8 55 -55 55q-46 -14 -46 -64zM2107 47l18 9q19 -3 19 -19l-19 -9q-18 0 -18 19zM2162 128q27 65 82 65q64 0 64 -55l-18 -10q-31 37 -55 37q-37 -9 -37 -55 v-27q0 -13 28 -27h27q41 36 46 36l9 -18v-9q-25 -46 -73 -46q-73 0 -73 109zM2317 110q18 83 82 83q82 -13 82 -83v-9q-11 -82 -82 -82q-82 21 -82 91zM2353 110q7 -54 28 -54h37q13 0 27 27v27q0 55 -46 55q-41 -18 -46 -37v-18zM2500 47v127q3 19 18 19h9q21 0 46 -119h9 q30 119 55 119q18 -3 18 -19v-127q0 -19 -18 -19q-10 6 -10 82h-9q-18 -82 -36 -82h-9q-21 0 -37 91h-9q0 -91 -18 -91z" />
<glyph unicode="^" d="M25 184l18 9q24 0 37 -110h9q18 110 45 110q21 0 46 -101h10q6 101 36 101h27q16 0 37 -101h9q13 101 37 101h9q23 0 36 -101h9q18 101 37 101h27q28 0 36 -101q11 0 46 101h9q26 0 46 -101h10q9 101 36 101h9v-19q-24 -146 -55 -146q-23 0 -36 100h-19 q-13 -100 -36 -100q-27 0 -55 137h-9q-21 -137 -46 -137q-30 0 -45 110h-9q-19 -110 -46 -110q-28 0 -46 128q-12 0 -54 -128h-10q-20 0 -46 100h-9q-13 -100 -36 -100h-9q-18 0 -55 156zM655 47l18 9l10 -19l-19 -9zM701 174q3 19 18 19h101q18 -3 18 -19q0 -18 -55 -18 v-109q0 -19 -19 -19q-17 0 -17 19v109q-46 0 -46 18zM810 37q57 156 73 156q24 0 83 -156l-19 -9q-25 0 -27 46h-64q-7 -46 -27 -46zM865 777q21 174 101 174q-9 107 -9 155v82q0 381 191 484q58 27 210 36q82 0 165 -137q73 -51 73 -109v-28q0 -35 -46 -82v-64 q46 -6 46 -27q-55 -9 -55 -92v-81h-18v63q-34 -27 -64 -27h-19q-13 0 -27 27q0 9 9 9q-9 37 -9 65l-18 -10v19q27 65 82 82l55 -19v28l-64 9q-31 0 -64 -28l-9 19q45 24 45 37h-18l-45 -10l-46 10q-10 0 -28 -10q-36 10 -63 10q-12 0 -92 -10q0 10 -9 10l-9 -19l18 -9 l-9 -18v-19q69 19 82 19q82 -29 82 -91l-18 9v-46l9 -46l-27 -18h-27q-83 0 -83 101h-9v-37q0 -210 110 -210q0 -16 100 -37q156 53 156 128h18q0 -17 -27 -73q-10 -145 -10 -173q192 -39 192 -110q9 -15 9 -46v-155q0 -73 9 -191q-18 -42 -36 -46h-9v9l18 27v210 q-21 0 -36 9q0 -182 -247 -182v18q117 18 137 18v9q-446 74 -548 74q0 -48 -27 -55h-10v9l19 37q-35 0 -55 18v-9q0 -14 27 -110q-52 0 -73 420zM875 101h26v9q-9 18 -9 28q-17 -3 -17 -19v-18zM883 768q46 0 46 -36h18q3 45 28 45q-9 18 -9 27h-9q-24 -27 -74 -27v-9z M892 604q3 -19 19 -19l27 36l-18 10q0 -27 -28 -27zM892 631q24 18 46 18v28l-9 18l-18 -9h-10v27h-9v-82zM892 804h9v46h-9v-46zM929 905h9q19 0 19 18v9q-14 0 -28 -27zM938 476h9q19 0 19 18h-9q-19 -3 -19 -18zM938 695h9q19 0 19 18l-19 9l-9 -18v-9zM947 174 q3 19 19 19h228q18 -3 18 -19q0 -18 -46 -18v-109q0 -19 -18 -19t-18 19v109q-46 0 -46 9q-13 -9 -55 -9v-109q0 -19 -17 -19q-19 0 -19 19v109q-46 0 -46 18zM957 667h27q0 19 -18 19zM975 539q18 0 63 -27h10v9q-19 0 -64 28h-9v-10zM984 494l155 -27v9q-16 48 -73 82v-9 q12 0 46 -46v-9q-69 64 -92 64h-8v-9q42 0 82 -55h-10q-9 0 -9 9l-18 -9l-45 9h-28v-9zM984 941q20 -46 73 -64v9q-14 55 -64 55h-9zM993 741h9l10 45v9h-10l-9 -37v-17zM1002 585q14 0 36 -18v9q-9 18 -9 28q-17 -9 -27 -9v-10zM1020 732l28 -19h18l-9 45v37h18l-9 64 l-46 -36l9 -46zM1038 604q10 0 28 -9v36h-28v-27zM1103 1225q18 0 18 18t-18 18v-36zM1157 1261l9 -46h9v46h-18zM1157 1325v18q15 0 110 9q42 -17 45 -36v-10h-9l-45 28q-81 -9 -101 -9zM1175 741q0 -131 174 -183v82q19 -3 19 -19v-63h72q101 0 101 100q9 34 9 83h-9 q-98 -83 -137 -83v9l-18 -9l-28 19q0 -19 -18 -19q0 14 -28 28l-27 -19q-36 24 -36 37l-18 -9l-10 18q10 0 10 9q-28 0 -28 19q9 0 9 8h-18zM1175 804h28v-9l-9 -18h27l-9 18q9 0 9 9q-9 0 -27 10h-19v-10zM1175 859q0 -20 110 -45q0 -11 55 -46q69 18 82 18l-9 -18 q36 5 36 27h19q89 -27 100 -27v18q-10 0 -100 18h-82v19h73v9q-64 13 -64 100l-18 -9h-19q-51 0 -137 46q-9 -63 -9 -83q68 -33 73 -54v-9q-73 54 -110 54v-18zM1203 1179q9 -37 55 -37l9 46l-18 9q-16 -9 -37 -9q0 9 -9 9v-18zM1212 110q12 83 82 83q83 -13 83 -83 q0 -68 -74 -91q-91 12 -91 91zM1231 1252q2 -18 18 -18l9 18h-27zM1249 83q0 -13 27 -27h36q14 0 28 27v45q0 15 -37 37h-18q-14 0 -36 -37v-45zM1249 804q14 0 36 -18v9l-27 19h-9v-10zM1303 1023v9h9l19 -9q16 9 37 9q12 0 27 -26q0 -14 -27 -28h-28q-13 1 -37 45z M1322 841v9l18 -9q13 36 28 36h9q-19 -54 -37 -54t-18 18zM1340 1051v18h37q0 -18 -19 -18h-18zM1377 1197l18 9q0 -14 18 -37v-9q-14 0 -36 37zM1386 101v37q32 55 82 55q73 0 73 -74v-45q-35 -55 -82 -55q-59 0 -73 82zM1413 110q19 -54 36 -54h37q28 9 28 54 q-8 55 -55 55q-27 -1 -46 -55zM1413 704q3 -18 18 -18v9q0 18 -18 18v-9zM1431 1188q12 -46 28 -46h9q13 0 27 27v19q-9 0 -27 9l-9 -18l-19 9h-9zM1468 722h18q0 27 46 27v9h-55l-9 -17q9 0 9 -9q-9 0 -9 -10zM1486 1352l46 -9v19h-46v-10zM1523 1197h9q0 7 9 55v9h-9 q-9 -48 -9 -55v-9zM1550 184l18 9q28 -36 28 -101h18q13 101 37 101h9q20 0 36 -110h9q12 110 37 110q18 -3 18 -19q-40 -146 -55 -146h-9q-21 0 -36 110h-9q-24 -110 -46 -110q-28 0 -55 156zM1596 686q33 -128 55 -128l18 27q-18 0 -18 19h18q0 17 -18 17h-9l9 -17h-9 q-19 0 -19 17l28 37q-9 18 -9 28l18 9l18 -9v9q-18 73 -73 73l-9 -19v-63zM1660 539q18 0 18 19v9q-18 -3 -18 -18v-10zM1760 128q27 65 82 65q83 0 83 -101q-30 -73 -83 -73q-82 0 -82 109zM1797 83q0 -13 27 -27h36q14 0 28 27v45q0 15 -37 37q-54 0 -54 -55v-27z M1933 101v18q0 74 83 74q73 0 73 -74v-45q-35 -55 -82 -55q-59 0 -74 82zM1961 101q18 -42 37 -45h36q28 9 28 54q-8 55 -55 55q-46 -14 -46 -64zM2107 47l18 9q19 -3 19 -19l-19 -9q-18 0 -18 19zM2162 128q27 65 82 65q64 0 64 -55l-18 -10q-31 37 -55 37q-37 -9 -37 -55 v-27q0 -13 28 -27h27q41 36 46 36l9 -18v-9q-25 -46 -73 -46q-73 0 -73 109zM2317 110q18 83 82 83q82 -13 82 -83v-9q-11 -82 -82 -82q-82 21 -82 91zM2353 110q7 -54 28 -54h37q13 0 27 27v27q0 55 -46 55q-41 -18 -46 -37v-18zM2500 47v127q3 19 18 19h9q21 0 46 -119h9 q30 119 55 119q18 -3 18 -19v-127q0 -19 -18 -19q-10 6 -10 82h-9q-18 -82 -36 -82h-9q-21 0 -37 91h-9q0 -91 -18 -91z" />
<glyph unicode="_" d="M25 184l18 9q24 0 37 -110h9q18 110 45 110q21 0 46 -101h10q6 101 36 101h27q16 0 37 -101h9q13 101 37 101h9q23 0 36 -101h9q18 101 37 101h27q28 0 36 -101q11 0 46 101h9q26 0 46 -101h10q9 101 36 101h9v-19q-24 -146 -55 -146q-23 0 -36 100h-19 q-13 -100 -36 -100q-27 0 -55 137h-9q-21 -137 -46 -137q-30 0 -45 110h-9q-19 -110 -46 -110q-28 0 -46 128q-12 0 -54 -128h-10q-20 0 -46 100h-9q-13 -100 -36 -100h-9q-18 0 -55 156zM655 47l18 9l10 -19l-19 -9zM701 174q3 19 18 19h101q18 -3 18 -19q0 -18 -55 -18 v-109q0 -19 -19 -19q-17 0 -17 19v109q-46 0 -46 18zM810 37q57 156 73 156q24 0 83 -156l-19 -9q-25 0 -27 46h-64q-7 -46 -27 -46zM865 777q21 174 101 174q-9 107 -9 155v82q0 381 191 484q58 27 210 36q82 0 165 -137q73 -51 73 -109v-28q0 -35 -46 -82v-64 q46 -6 46 -27q-55 -9 -55 -92v-81h-18v63q-34 -27 -64 -27h-19q-13 0 -27 27q0 9 9 9q-9 37 -9 65l-18 -10v19q27 65 82 82l55 -19v28l-64 9q-31 0 -64 -28l-9 19q45 24 45 37h-18l-45 -10l-46 10q-10 0 -28 -10q-36 10 -63 10q-12 0 -92 -10q0 10 -9 10l-9 -19l18 -9 l-9 -18v-19q69 19 82 19q82 -29 82 -91l-18 9v-46l9 -46l-27 -18h-27q-83 0 -83 101h-9v-37q0 -210 110 -210q0 -16 100 -37q156 53 156 128h18q0 -17 -27 -73q-10 -145 -10 -173q192 -39 192 -110q9 -15 9 -46v-155q0 -73 9 -191q-18 -42 -36 -46h-9v9l18 27v210 q-21 0 -36 9q0 -182 -247 -182v18q117 18 137 18v9q-446 74 -548 74q0 -48 -27 -55h-10v9l19 37q-35 0 -55 18v-9q0 -14 27 -110q-52 0 -73 420zM875 101h26v9q-9 18 -9 28q-17 -3 -17 -19v-18zM883 768q46 0 46 -36h18q3 45 28 45q-9 18 -9 27h-9q-24 -27 -74 -27v-9z M892 604q3 -19 19 -19l27 36l-18 10q0 -27 -28 -27zM892 631q24 18 46 18v28l-9 18l-18 -9h-10v27h-9v-82zM892 804h9v46h-9v-46zM929 905h9q19 0 19 18v9q-14 0 -28 -27zM938 476h9q19 0 19 18h-9q-19 -3 -19 -18zM938 695h9q19 0 19 18l-19 9l-9 -18v-9zM947 174 q3 19 19 19h228q18 -3 18 -19q0 -18 -46 -18v-109q0 -19 -18 -19t-18 19v109q-46 0 -46 9q-13 -9 -55 -9v-109q0 -19 -17 -19q-19 0 -19 19v109q-46 0 -46 18zM957 667h27q0 19 -18 19zM975 539q18 0 63 -27h10v9q-19 0 -64 28h-9v-10zM984 494l155 -27v9q-16 48 -73 82v-9 q12 0 46 -46v-9q-69 64 -92 64h-8v-9q42 0 82 -55h-10q-9 0 -9 9l-18 -9l-45 9h-28v-9zM984 941q20 -46 73 -64v9q-14 55 -64 55h-9zM993 741h9l10 45v9h-10l-9 -37v-17zM1002 585q14 0 36 -18v9q-9 18 -9 28q-17 -9 -27 -9v-10zM1020 732l28 -19h18l-9 45v37h18l-9 64 l-46 -36l9 -46zM1038 604q10 0 28 -9v36h-28v-27zM1103 1225q18 0 18 18t-18 18v-36zM1157 1261l9 -46h9v46h-18zM1157 1325v18q15 0 110 9q42 -17 45 -36v-10h-9l-45 28q-81 -9 -101 -9zM1175 741q0 -131 174 -183v82q19 -3 19 -19v-63h72q101 0 101 100q9 34 9 83h-9 q-98 -83 -137 -83v9l-18 -9l-28 19q0 -19 -18 -19q0 14 -28 28l-27 -19q-36 24 -36 37l-18 -9l-10 18q10 0 10 9q-28 0 -28 19q9 0 9 8h-18zM1175 804h28v-9l-9 -18h27l-9 18q9 0 9 9q-9 0 -27 10h-19v-10zM1175 859q0 -20 110 -45q0 -11 55 -46q69 18 82 18l-9 -18 q36 5 36 27h19q89 -27 100 -27v18q-10 0 -100 18h-82v19h73v9q-64 13 -64 100l-18 -9h-19q-51 0 -137 46q-9 -63 -9 -83q68 -33 73 -54v-9q-73 54 -110 54v-18zM1203 1179q9 -37 55 -37l9 46l-18 9q-16 -9 -37 -9q0 9 -9 9v-18zM1212 110q12 83 82 83q83 -13 83 -83 q0 -68 -74 -91q-91 12 -91 91zM1231 1252q2 -18 18 -18l9 18h-27zM1249 83q0 -13 27 -27h36q14 0 28 27v45q0 15 -37 37h-18q-14 0 -36 -37v-45zM1249 804q14 0 36 -18v9l-27 19h-9v-10zM1303 1023v9h9l19 -9q16 9 37 9q12 0 27 -26q0 -14 -27 -28h-28q-13 1 -37 45z M1322 841v9l18 -9q13 36 28 36h9q-19 -54 -37 -54t-18 18zM1340 1051v18h37q0 -18 -19 -18h-18zM1377 1197l18 9q0 -14 18 -37v-9q-14 0 -36 37zM1386 101v37q32 55 82 55q73 0 73 -74v-45q-35 -55 -82 -55q-59 0 -73 82zM1413 110q19 -54 36 -54h37q28 9 28 54 q-8 55 -55 55q-27 -1 -46 -55zM1413 704q3 -18 18 -18v9q0 18 -18 18v-9zM1431 1188q12 -46 28 -46h9q13 0 27 27v19q-9 0 -27 9l-9 -18l-19 9h-9zM1468 722h18q0 27 46 27v9h-55l-9 -17q9 0 9 -9q-9 0 -9 -10zM1486 1352l46 -9v19h-46v-10zM1523 1197h9q0 7 9 55v9h-9 q-9 -48 -9 -55v-9zM1550 184l18 9q28 -36 28 -101h18q13 101 37 101h9q20 0 36 -110h9q12 110 37 110q18 -3 18 -19q-40 -146 -55 -146h-9q-21 0 -36 110h-9q-24 -110 -46 -110q-28 0 -55 156zM1596 686q33 -128 55 -128l18 27q-18 0 -18 19h18q0 17 -18 17h-9l9 -17h-9 q-19 0 -19 17l28 37q-9 18 -9 28l18 9l18 -9v9q-18 73 -73 73l-9 -19v-63zM1660 539q18 0 18 19v9q-18 -3 -18 -18v-10zM1760 128q27 65 82 65q83 0 83 -101q-30 -73 -83 -73q-82 0 -82 109zM1797 83q0 -13 27 -27h36q14 0 28 27v45q0 15 -37 37q-54 0 -54 -55v-27z M1933 101v18q0 74 83 74q73 0 73 -74v-45q-35 -55 -82 -55q-59 0 -74 82zM1961 101q18 -42 37 -45h36q28 9 28 54q-8 55 -55 55q-46 -14 -46 -64zM2107 47l18 9q19 -3 19 -19l-19 -9q-18 0 -18 19zM2162 128q27 65 82 65q64 0 64 -55l-18 -10q-31 37 -55 37q-37 -9 -37 -55 v-27q0 -13 28 -27h27q41 36 46 36l9 -18v-9q-25 -46 -73 -46q-73 0 -73 109zM2317 110q18 83 82 83q82 -13 82 -83v-9q-11 -82 -82 -82q-82 21 -82 91zM2353 110q7 -54 28 -54h37q13 0 27 27v27q0 55 -46 55q-41 -18 -46 -37v-18zM2500 47v127q3 19 18 19h9q21 0 46 -119h9 q30 119 55 119q18 -3 18 -19v-127q0 -19 -18 -19q-10 6 -10 82h-9q-18 -82 -36 -82h-9q-21 0 -37 91h-9q0 -91 -18 -91z" />
<glyph unicode="`" d="M25 184l18 9q24 0 37 -110h9q18 110 45 110q21 0 46 -101h10q6 101 36 101h27q16 0 37 -101h9q13 101 37 101h9q23 0 36 -101h9q18 101 37 101h27q28 0 36 -101q11 0 46 101h9q26 0 46 -101h10q9 101 36 101h9v-19q-24 -146 -55 -146q-23 0 -36 100h-19 q-13 -100 -36 -100q-27 0 -55 137h-9q-21 -137 -46 -137q-30 0 -45 110h-9q-19 -110 -46 -110q-28 0 -46 128q-12 0 -54 -128h-10q-20 0 -46 100h-9q-13 -100 -36 -100h-9q-18 0 -55 156zM655 47l18 9l10 -19l-19 -9zM701 174q3 19 18 19h101q18 -3 18 -19q0 -18 -55 -18 v-109q0 -19 -19 -19q-17 0 -17 19v109q-46 0 -46 18zM810 37q57 156 73 156q24 0 83 -156l-19 -9q-25 0 -27 46h-64q-7 -46 -27 -46zM865 777q21 174 101 174q-9 107 -9 155v82q0 381 191 484q58 27 210 36q82 0 165 -137q73 -51 73 -109v-28q0 -35 -46 -82v-64 q46 -6 46 -27q-55 -9 -55 -92v-81h-18v63q-34 -27 -64 -27h-19q-13 0 -27 27q0 9 9 9q-9 37 -9 65l-18 -10v19q27 65 82 82l55 -19v28l-64 9q-31 0 -64 -28l-9 19q45 24 45 37h-18l-45 -10l-46 10q-10 0 -28 -10q-36 10 -63 10q-12 0 -92 -10q0 10 -9 10l-9 -19l18 -9 l-9 -18v-19q69 19 82 19q82 -29 82 -91l-18 9v-46l9 -46l-27 -18h-27q-83 0 -83 101h-9v-37q0 -210 110 -210q0 -16 100 -37q156 53 156 128h18q0 -17 -27 -73q-10 -145 -10 -173q192 -39 192 -110q9 -15 9 -46v-155q0 -73 9 -191q-18 -42 -36 -46h-9v9l18 27v210 q-21 0 -36 9q0 -182 -247 -182v18q117 18 137 18v9q-446 74 -548 74q0 -48 -27 -55h-10v9l19 37q-35 0 -55 18v-9q0 -14 27 -110q-52 0 -73 420zM875 101h26v9q-9 18 -9 28q-17 -3 -17 -19v-18zM883 768q46 0 46 -36h18q3 45 28 45q-9 18 -9 27h-9q-24 -27 -74 -27v-9z M892 604q3 -19 19 -19l27 36l-18 10q0 -27 -28 -27zM892 631q24 18 46 18v28l-9 18l-18 -9h-10v27h-9v-82zM892 804h9v46h-9v-46zM929 905h9q19 0 19 18v9q-14 0 -28 -27zM938 476h9q19 0 19 18h-9q-19 -3 -19 -18zM938 695h9q19 0 19 18l-19 9l-9 -18v-9zM947 174 q3 19 19 19h228q18 -3 18 -19q0 -18 -46 -18v-109q0 -19 -18 -19t-18 19v109q-46 0 -46 9q-13 -9 -55 -9v-109q0 -19 -17 -19q-19 0 -19 19v109q-46 0 -46 18zM957 667h27q0 19 -18 19zM975 539q18 0 63 -27h10v9q-19 0 -64 28h-9v-10zM984 494l155 -27v9q-16 48 -73 82v-9 q12 0 46 -46v-9q-69 64 -92 64h-8v-9q42 0 82 -55h-10q-9 0 -9 9l-18 -9l-45 9h-28v-9zM984 941q20 -46 73 -64v9q-14 55 -64 55h-9zM993 741h9l10 45v9h-10l-9 -37v-17zM1002 585q14 0 36 -18v9q-9 18 -9 28q-17 -9 -27 -9v-10zM1020 732l28 -19h18l-9 45v37h18l-9 64 l-46 -36l9 -46zM1038 604q10 0 28 -9v36h-28v-27zM1103 1225q18 0 18 18t-18 18v-36zM1157 1261l9 -46h9v46h-18zM1157 1325v18q15 0 110 9q42 -17 45 -36v-10h-9l-45 28q-81 -9 -101 -9zM1175 741q0 -131 174 -183v82q19 -3 19 -19v-63h72q101 0 101 100q9 34 9 83h-9 q-98 -83 -137 -83v9l-18 -9l-28 19q0 -19 -18 -19q0 14 -28 28l-27 -19q-36 24 -36 37l-18 -9l-10 18q10 0 10 9q-28 0 -28 19q9 0 9 8h-18zM1175 804h28v-9l-9 -18h27l-9 18q9 0 9 9q-9 0 -27 10h-19v-10zM1175 859q0 -20 110 -45q0 -11 55 -46q69 18 82 18l-9 -18 q36 5 36 27h19q89 -27 100 -27v18q-10 0 -100 18h-82v19h73v9q-64 13 -64 100l-18 -9h-19q-51 0 -137 46q-9 -63 -9 -83q68 -33 73 -54v-9q-73 54 -110 54v-18zM1203 1179q9 -37 55 -37l9 46l-18 9q-16 -9 -37 -9q0 9 -9 9v-18zM1212 110q12 83 82 83q83 -13 83 -83 q0 -68 -74 -91q-91 12 -91 91zM1231 1252q2 -18 18 -18l9 18h-27zM1249 83q0 -13 27 -27h36q14 0 28 27v45q0 15 -37 37h-18q-14 0 -36 -37v-45zM1249 804q14 0 36 -18v9l-27 19h-9v-10zM1303 1023v9h9l19 -9q16 9 37 9q12 0 27 -26q0 -14 -27 -28h-28q-13 1 -37 45z M1322 841v9l18 -9q13 36 28 36h9q-19 -54 -37 -54t-18 18zM1340 1051v18h37q0 -18 -19 -18h-18zM1377 1197l18 9q0 -14 18 -37v-9q-14 0 -36 37zM1386 101v37q32 55 82 55q73 0 73 -74v-45q-35 -55 -82 -55q-59 0 -73 82zM1413 110q19 -54 36 -54h37q28 9 28 54 q-8 55 -55 55q-27 -1 -46 -55zM1413 704q3 -18 18 -18v9q0 18 -18 18v-9zM1431 1188q12 -46 28 -46h9q13 0 27 27v19q-9 0 -27 9l-9 -18l-19 9h-9zM1468 722h18q0 27 46 27v9h-55l-9 -17q9 0 9 -9q-9 0 -9 -10zM1486 1352l46 -9v19h-46v-10zM1523 1197h9q0 7 9 55v9h-9 q-9 -48 -9 -55v-9zM1550 184l18 9q28 -36 28 -101h18q13 101 37 101h9q20 0 36 -110h9q12 110 37 110q18 -3 18 -19q-40 -146 -55 -146h-9q-21 0 -36 110h-9q-24 -110 -46 -110q-28 0 -55 156zM1596 686q33 -128 55 -128l18 27q-18 0 -18 19h18q0 17 -18 17h-9l9 -17h-9 q-19 0 -19 17l28 37q-9 18 -9 28l18 9l18 -9v9q-18 73 -73 73l-9 -19v-63zM1660 539q18 0 18 19v9q-18 -3 -18 -18v-10zM1760 128q27 65 82 65q83 0 83 -101q-30 -73 -83 -73q-82 0 -82 109zM1797 83q0 -13 27 -27h36q14 0 28 27v45q0 15 -37 37q-54 0 -54 -55v-27z M1933 101v18q0 74 83 74q73 0 73 -74v-45q-35 -55 -82 -55q-59 0 -74 82zM1961 101q18 -42 37 -45h36q28 9 28 54q-8 55 -55 55q-46 -14 -46 -64zM2107 47l18 9q19 -3 19 -19l-19 -9q-18 0 -18 19zM2162 128q27 65 82 65q64 0 64 -55l-18 -10q-31 37 -55 37q-37 -9 -37 -55 v-27q0 -13 28 -27h27q41 36 46 36l9 -18v-9q-25 -46 -73 -46q-73 0 -73 109zM2317 110q18 83 82 83q82 -13 82 -83v-9q-11 -82 -82 -82q-82 21 -82 91zM2353 110q7 -54 28 -54h37q13 0 27 27v27q0 55 -46 55q-41 -18 -46 -37v-18zM2500 47v127q3 19 18 19h9q21 0 46 -119h9 q30 119 55 119q18 -3 18 -19v-127q0 -19 -18 -19q-10 6 -10 82h-9q-18 -82 -36 -82h-9q-21 0 -37 91h-9q0 -91 -18 -91z" />
<glyph unicode="a" horiz-adv-x="497" d="M-44 85v51q252 301 301 301l20 -10l20 10q58 0 101 -121q-69 -40 -81 -40v-10q131 -63 131 -251v-30l-30 -20h-30q-107 55 -111 110q-39 0 -150 -80q-99 0 -171 90z" />
<glyph unicode="b" horiz-adv-x="640" d="M0 105q5 24 58 46l58 -12q74 0 221 82v23l-58 -12h-35q-12 0 -12 12l-23 -12h-46q-89 47 -117 117q20 57 198 302q244 453 383 778h58q47 0 70 -139q-72 -182 -395 -790q0 -12 -70 -105h12q47 23 81 23q233 -26 233 -139q-145 -279 -418 -279h-35q-96 0 -163 105z" />
<glyph unicode="c" horiz-adv-x="481" d="M0 157q0 106 304 264q127 -21 127 -108q-159 -67 -265 -176q10 -19 10 -29h108q27 0 49 -88q-36 -20 -78 -20h-59q-196 34 -196 157z" />
<glyph unicode="d" horiz-adv-x="631" d="M0 127v40q0 102 225 264h39q10 0 10 -10l20 10q7 0 78 -39l235 617q97 177 147 186q118 -29 118 -88q-118 -162 -402 -940q0 -45 -10 -59q10 -19 10 -30q0 -33 -68 -49q-45 19 -49 40q-100 -69 -138 -69h-78q-137 30 -137 127zM176 157h10q154 125 157 147v19h-10 q-71 -32 -157 -156v-10z" />
<glyph unicode="e" horiz-adv-x="484" d="M0 220v54q28 80 192 147l55 9q183 0 183 -137q0 -60 -137 -156q100 0 100 -36q-10 -50 -128 -101h-55q-210 71 -210 220z" />
<glyph unicode="f" horiz-adv-x="336" d="M-326 796l52 32q49 -94 572 -94q51 204 323 603q198 250 281 250q145 -20 145 -135q-33 -29 -125 -42q-243 -224 -312 -395q-48 -59 -156 -271v-10q122 -10 177 -10h302q10 0 10 -11l21 11h83q11 0 11 -11q10 0 10 11l73 -11h73v-21h20v21h21l-10 -21v-21q42 0 42 -31 q-69 -31 -146 -31h-31q-11 0 -11 10q-49 -31 -104 -41q-10 0 -10 10l-73 -10h-10q-184 0 -458 -11l-21 11q-70 0 -187 -354q-42 -62 -115 -291q-59 -97 -83 -104q0 31 -42 31l11 42q0 7 -11 62q80 345 219 603l-52 11h-177q-10 0 -10 10q-11 0 -11 -10q-281 0 -281 198 q-10 0 -10 20z" />
<glyph unicode="g" horiz-adv-x="656" d="M-795 -824q3 18 18 18q10 0 27 -9q217 36 656 431q422 404 521 593h-9l-225 -152q-51 -54 -116 -54q-126 0 -126 125q32 78 233 216q59 44 171 72q45 -15 45 -45q0 -47 -117 -90v-18h9q192 126 234 126q69 0 81 -99q-51 -196 -566 -728q-498 -467 -728 -467h-18 q-50 0 -90 63v18z" />
<glyph unicode="h" horiz-adv-x="686" d="M0 92v20q122 198 438 855q19 4 193 376q61 88 92 92q78 -25 91 -61l-20 -41l10 -20q-154 -337 -397 -784q0 -13 -102 -224q119 31 153 31q127 0 153 -163q-47 -173 -122 -173h-72q-51 29 -51 61q0 25 41 102h-10q-163 -109 -265 -163q0 11 -91 41z" />
<glyph unicode="i" horiz-adv-x="373" d="M-50 116q53 49 221 302h11q60 0 105 -105q0 -87 -198 -301q-22 -12 -35 -12q-88 0 -104 116zM208 563v104l81 12h35q70 0 139 -104q0 -58 -81 -82l-23 12l-23 -12q-124 40 -128 70z" />
<glyph unicode="j" horiz-adv-x="337" d="M-892 -739q235 129 452 305q294 276 462 560q69 128 69 197q-20 32 -20 59v10q0 19 59 29v-10l20 10q118 -52 118 -88q10 -19 10 -30q0 -188 -531 -757q-247 -217 -551 -344q0 20 -19 20l-30 -20h-39v59zM111 834v10q0 15 69 49q127 -36 127 -79v-19q0 -13 -59 -49 q-9 0 -9 9l-20 -9q-85 0 -108 88z" />
<glyph unicode="k" horiz-adv-x="708" d="M-50 113q334 373 436 634l169 328q42 137 168 349l21 1q6 1 11 1q62 0 69 -77v-7q0 -76 -121 -286l-323 -602l1 -11q49 36 170 78q98 -38 101 -75v-5q0 -68 -154 -144q-96 -75 -96 -101q0 -38 175 -91l13 -19v-11q-36 -46 -118 -73q-147 35 -175 89q-46 69 -59 68 l-152 -170q-7 -1 -13 -1q-97 0 -123 125z" />
<glyph unicode="l" horiz-adv-x="300" d="M0 36q27 116 419 1065q54 82 154 310l37 27q18 -3 18 -18l18 9q35 -46 55 -46v-9q0 -39 -310 -691q-209 -550 -327 -683h-9q-22 36 -55 36z" />
<glyph unicode="m" horiz-adv-x="1076" d="M-47 123q187 218 347 269q44 11 78 11q57 -41 101 -112q149 90 269 134v-11l22 11h11q202 -38 202 -201q0 -48 22 -123l-56 -56q-11 0 -11 11l-23 -11q-100 63 -100 156v56h-56q-105 -52 -280 -179q-62 -11 -90 -11q-100 49 -100 123q-73 0 -179 -179q-9 0 -67 -11 q-90 55 -90 123z" />
<glyph unicode="n" horiz-adv-x="808" d="M0 136q91 245 146 303h21q73 -36 73 -115q-20 -67 -20 -84q238 157 397 157q115 -82 115 -146q0 -78 -32 -146q11 -19 11 -42q0 -17 -42 -42h-10q-81 0 -105 115v73h-10q-216 -91 -387 -209h-11q-98 0 -146 136z" />
<glyph unicode="o" horiz-adv-x="579" d="M0 187q0 139 211 222h46q47 -23 47 -70h-12q12 -23 12 -35q0 -15 -70 -82h12q152 53 152 187l23 12h12q100 -103 117 -164q-75 -166 -328 -257h-58q-103 0 -164 187z" />
<glyph unicode="p" horiz-adv-x="565" d="M-428 -644q178 613 584 934q154 99 287 123q84 -16 100 -106q-58 -116 -461 -297q-1 10 -11 9q-198 -263 -259 -456q-61 -176 -67 -259q-52 -40 -64 -42q-95 15 -109 94z" />
<glyph unicode="q" horiz-adv-x="605" d="M-66 -393q0 99 303 372q0 14 69 87h-8q-52 -35 -200 -69h-34q-35 0 -69 112q0 84 277 191q55 17 69 17q45 0 69 -52l17 9h18q69 0 103 -78h-8l8 -17v-18q-39 -89 -250 -320h8q226 182 346 182l9 -18v-17q-64 -109 -251 -225q-229 -209 -381 -268q-86 30 -86 104 q-9 0 -9 8z" />
<glyph unicode="r" horiz-adv-x="583" d="M0 85h9l-9 18q0 66 245 236l37 9v-9q43 18 122 18h19q165 -9 179 -47q0 -53 -310 -122q-64 -51 -189 -188h-56q-47 38 -47 85z" />
<glyph unicode="s" horiz-adv-x="561" d="M-104 72v27q0 15 211 46q75 29 75 54q-50 77 -50 117q144 172 385 172l25 -27v-45q-186 -114 -186 -127v-9q0 -47 37 -81v-36q0 -114 -249 -163q-50 0 -248 72z" />
<glyph unicode="t" horiz-adv-x="254" d="M-1069 836q0 22 76 33q35 -19 119 -33l22 11q92 -11 152 -11h11q11 0 11 -10l22 10q10 0 10 -10l22 10h87q39 0 98 -10l21 10l22 -10q11 0 11 10l54 -10h608q11 0 11 -11q41 12 304 445q300 404 359 434q19 11 43 11q43 -11 43 -43q0 -40 -184 -261q0 -23 -120 -185 q-156 -211 -228 -358v-32h55q24 0 43 10q11 0 11 -10l54 10h55q32 0 32 -10l54 10q282 0 554 22v-11l22 11h98q24 0 43 11q11 0 11 -11q184 15 206 22q19 -11 44 -11h32q25 0 44 11l21 -11l87 22l22 -11l22 11l21 -11l76 11q11 0 11 -11q97 22 261 22q11 0 11 -11l21 11h76 q52 0 109 10q40 -10 98 -10q24 0 43 10l22 -10l195 21v-11l22 11h76q36 0 54 -11l174 22l22 -11l22 11q10 0 10 -11q122 22 283 22v-11l21 11h131q24 0 43 -11q19 11 44 11h32q11 0 11 -11q39 22 98 22l21 -11q22 11 33 11t11 -11l54 11h33q65 0 65 -11l108 11h554 q25 0 44 -11q44 22 65 22q3 -22 22 -22l54 11v-11l22 11q19 -11 43 -11q0 -33 -119 -33h-76q-20 0 -98 -32v11l-22 -11l-32 22l-22 -11l-22 11h-11v-11h22l-11 -22l-54 22l-54 -22l-22 11q-162 -22 -228 -22l-11 22h22v22h-11l-22 -11q0 11 -11 11v-11l11 -22l-22 -11h-11 q0 44 -43 44v-11q11 -21 11 -33h-98l-22 11q0 -22 -21 -22h-33q-11 0 -11 11l-21 -11h-33q-11 0 -11 11l-22 -11h-76q-10 0 -10 11l-87 -22q-19 11 -44 11l-43 -11v11l-22 -11h-141q-24 0 -43 -10q-55 10 -55 21q-22 -18 -184 -32q-11 0 -11 11l-54 -11h-131q-21 -4 -21 -22 l-22 11h-141q-25 0 -44 -11q-19 11 -43 11h-11q-10 0 -87 -22l-11 22q-23 -11 -119 -22q-57 11 -131 11l-10 -22l-44 22q0 -22 -22 -22q-10 0 -10 11q-55 -22 -76 -22q0 33 -33 33q0 -22 -22 -22q-19 11 -43 11l11 -22v-11h-33q0 33 -32 33v-33h-66q-10 0 -10 11l-44 -21 l-22 10q-19 -10 -43 -10v21h-11l-32 -21l-33 21q0 -21 -33 -21q-17 0 -130 10v-10l-22 10h-21q-22 -3 -22 -21q-50 21 -98 21l11 -21q-11 0 -11 -11q-74 11 -97 22q0 -22 -142 -33q0 22 -21 22q0 -22 -22 -22h-11q-11 0 -11 11q0 -18 -792 -44l-22 -10q-19 10 -44 10 q-75 -27 -249 -521q-41 -217 -87 -217q0 -22 -22 -22h-22q-22 0 -54 98q18 210 250 662h-293q-11 0 -11 11l-22 -11h-98q-70 0 -152 -21v11l-21 -11h-131q-24 0 -43 11q-21 -11 -33 -11v11l11 21h-54v-21h-282v10l10 22h-21q-25 0 -44 -11q-130 63 -130 152z" />
<glyph unicode="u" horiz-adv-x="515" d="M0 67v78q88 208 173 269h29q10 0 68 -67q0 -22 -68 -154q223 202 261 202h9q13 0 58 -77q-29 -90 -116 -154q-169 -164 -250 -164h-29q-51 0 -135 67z" />
<glyph unicode="v" horiz-adv-x="504" d="M0 98v8q0 8 8 8q-8 16 -8 25q28 211 57 211h8q55 0 90 -65q0 -5 -8 -106q241 237 252 237l41 8q23 0 49 -65q-273 -359 -375 -359h-16q-55 18 -98 98z" />
<glyph unicode="w" horiz-adv-x="840" d="M0 110q0 81 137 292q16 0 46 18q91 -46 91 -110q-28 -61 -64 -100v-18q120 36 192 36q118 -21 118 -45q191 146 229 146h9l18 -9q-9 -28 -18 -28l9 -18l-9 -18q9 -16 9 -37q-134 -183 -183 -219h-18q-42 0 -128 91q-17 9 -27 9l-283 -100q-127 67 -128 110z" />
<glyph unicode="x" horiz-adv-x="590" d="M-172 -87q329 331 380 332v29q-57 75 -57 114q0 21 47 28q41 0 133 -85q39 19 57 19q104 -16 104 -95q-60 -38 -85 -38v-19l104 -152v-19q0 -29 -38 -29l-19 10l-19 -10q-65 22 -142 114q-16 0 -342 -266q-16 -9 -38 -9q-61 0 -85 47v29z" />
<glyph unicode="y" horiz-adv-x="605" d="M-342 -706q25 56 390 482l228 305v9h-8q-85 -68 -161 -68q-54 0 -110 76q11 89 144 305h42q11 0 42 -42q-76 -193 -76 -204h9q251 204 321 204l60 -34q0 -12 25 -26q0 -84 -254 -389q-153 -213 -423 -517q-47 -70 -136 -118v-9l-17 9l-42 -34h-9q-17 0 -25 51z" />
<glyph unicode="z" horiz-adv-x="477" d="M-443 -475q0 21 239 142q297 175 300 265v27q-62 82 -79 185q0 62 124 115v18l-18 -9h-9q-44 21 -97 88v27q0 32 318 53q71 -18 106 -80q0 -19 9 -35q-32 -75 -274 -221l-9 -18q80 -128 80 -185v-9q0 -135 -416 -363q-92 -53 -168 -53h-71q-13 0 -35 36v17z" />
<glyph unicode="{" d="M25 184l18 9q24 0 37 -110h9q18 110 45 110q21 0 46 -101h10q6 101 36 101h27q16 0 37 -101h9q13 101 37 101h9q23 0 36 -101h9q18 101 37 101h27q28 0 36 -101q11 0 46 101h9q26 0 46 -101h10q9 101 36 101h9v-19q-24 -146 -55 -146q-23 0 -36 100h-19 q-13 -100 -36 -100q-27 0 -55 137h-9q-21 -137 -46 -137q-30 0 -45 110h-9q-19 -110 -46 -110q-28 0 -46 128q-12 0 -54 -128h-10q-20 0 -46 100h-9q-13 -100 -36 -100h-9q-18 0 -55 156zM655 47l18 9l10 -19l-19 -9zM701 174q3 19 18 19h101q18 -3 18 -19q0 -18 -55 -18 v-109q0 -19 -19 -19q-17 0 -17 19v109q-46 0 -46 18zM810 37q57 156 73 156q24 0 83 -156l-19 -9q-25 0 -27 46h-64q-7 -46 -27 -46zM865 777q21 174 101 174q-9 107 -9 155v82q0 381 191 484q58 27 210 36q82 0 165 -137q73 -51 73 -109v-28q0 -35 -46 -82v-64 q46 -6 46 -27q-55 -9 -55 -92v-81h-18v63q-34 -27 -64 -27h-19q-13 0 -27 27q0 9 9 9q-9 37 -9 65l-18 -10v19q27 65 82 82l55 -19v28l-64 9q-31 0 -64 -28l-9 19q45 24 45 37h-18l-45 -10l-46 10q-10 0 -28 -10q-36 10 -63 10q-12 0 -92 -10q0 10 -9 10l-9 -19l18 -9 l-9 -18v-19q69 19 82 19q82 -29 82 -91l-18 9v-46l9 -46l-27 -18h-27q-83 0 -83 101h-9v-37q0 -210 110 -210q0 -16 100 -37q156 53 156 128h18q0 -17 -27 -73q-10 -145 -10 -173q192 -39 192 -110q9 -15 9 -46v-155q0 -73 9 -191q-18 -42 -36 -46h-9v9l18 27v210 q-21 0 -36 9q0 -182 -247 -182v18q117 18 137 18v9q-446 74 -548 74q0 -48 -27 -55h-10v9l19 37q-35 0 -55 18v-9q0 -14 27 -110q-52 0 -73 420zM875 101h26v9q-9 18 -9 28q-17 -3 -17 -19v-18zM883 768q46 0 46 -36h18q3 45 28 45q-9 18 -9 27h-9q-24 -27 -74 -27v-9z M892 604q3 -19 19 -19l27 36l-18 10q0 -27 -28 -27zM892 631q24 18 46 18v28l-9 18l-18 -9h-10v27h-9v-82zM892 804h9v46h-9v-46zM929 905h9q19 0 19 18v9q-14 0 -28 -27zM938 476h9q19 0 19 18h-9q-19 -3 -19 -18zM938 695h9q19 0 19 18l-19 9l-9 -18v-9zM947 174 q3 19 19 19h228q18 -3 18 -19q0 -18 -46 -18v-109q0 -19 -18 -19t-18 19v109q-46 0 -46 9q-13 -9 -55 -9v-109q0 -19 -17 -19q-19 0 -19 19v109q-46 0 -46 18zM957 667h27q0 19 -18 19zM975 539q18 0 63 -27h10v9q-19 0 -64 28h-9v-10zM984 494l155 -27v9q-16 48 -73 82v-9 q12 0 46 -46v-9q-69 64 -92 64h-8v-9q42 0 82 -55h-10q-9 0 -9 9l-18 -9l-45 9h-28v-9zM984 941q20 -46 73 -64v9q-14 55 -64 55h-9zM993 741h9l10 45v9h-10l-9 -37v-17zM1002 585q14 0 36 -18v9q-9 18 -9 28q-17 -9 -27 -9v-10zM1020 732l28 -19h18l-9 45v37h18l-9 64 l-46 -36l9 -46zM1038 604q10 0 28 -9v36h-28v-27zM1103 1225q18 0 18 18t-18 18v-36zM1157 1261l9 -46h9v46h-18zM1157 1325v18q15 0 110 9q42 -17 45 -36v-10h-9l-45 28q-81 -9 -101 -9zM1175 741q0 -131 174 -183v82q19 -3 19 -19v-63h72q101 0 101 100q9 34 9 83h-9 q-98 -83 -137 -83v9l-18 -9l-28 19q0 -19 -18 -19q0 14 -28 28l-27 -19q-36 24 -36 37l-18 -9l-10 18q10 0 10 9q-28 0 -28 19q9 0 9 8h-18zM1175 804h28v-9l-9 -18h27l-9 18q9 0 9 9q-9 0 -27 10h-19v-10zM1175 859q0 -20 110 -45q0 -11 55 -46q69 18 82 18l-9 -18 q36 5 36 27h19q89 -27 100 -27v18q-10 0 -100 18h-82v19h73v9q-64 13 -64 100l-18 -9h-19q-51 0 -137 46q-9 -63 -9 -83q68 -33 73 -54v-9q-73 54 -110 54v-18zM1203 1179q9 -37 55 -37l9 46l-18 9q-16 -9 -37 -9q0 9 -9 9v-18zM1212 110q12 83 82 83q83 -13 83 -83 q0 -68 -74 -91q-91 12 -91 91zM1231 1252q2 -18 18 -18l9 18h-27zM1249 83q0 -13 27 -27h36q14 0 28 27v45q0 15 -37 37h-18q-14 0 -36 -37v-45zM1249 804q14 0 36 -18v9l-27 19h-9v-10zM1303 1023v9h9l19 -9q16 9 37 9q12 0 27 -26q0 -14 -27 -28h-28q-13 1 -37 45z M1322 841v9l18 -9q13 36 28 36h9q-19 -54 -37 -54t-18 18zM1340 1051v18h37q0 -18 -19 -18h-18zM1377 1197l18 9q0 -14 18 -37v-9q-14 0 -36 37zM1386 101v37q32 55 82 55q73 0 73 -74v-45q-35 -55 -82 -55q-59 0 -73 82zM1413 110q19 -54 36 -54h37q28 9 28 54 q-8 55 -55 55q-27 -1 -46 -55zM1413 704q3 -18 18 -18v9q0 18 -18 18v-9zM1431 1188q12 -46 28 -46h9q13 0 27 27v19q-9 0 -27 9l-9 -18l-19 9h-9zM1468 722h18q0 27 46 27v9h-55l-9 -17q9 0 9 -9q-9 0 -9 -10zM1486 1352l46 -9v19h-46v-10zM1523 1197h9q0 7 9 55v9h-9 q-9 -48 -9 -55v-9zM1550 184l18 9q28 -36 28 -101h18q13 101 37 101h9q20 0 36 -110h9q12 110 37 110q18 -3 18 -19q-40 -146 -55 -146h-9q-21 0 -36 110h-9q-24 -110 -46 -110q-28 0 -55 156zM1596 686q33 -128 55 -128l18 27q-18 0 -18 19h18q0 17 -18 17h-9l9 -17h-9 q-19 0 -19 17l28 37q-9 18 -9 28l18 9l18 -9v9q-18 73 -73 73l-9 -19v-63zM1660 539q18 0 18 19v9q-18 -3 -18 -18v-10zM1760 128q27 65 82 65q83 0 83 -101q-30 -73 -83 -73q-82 0 -82 109zM1797 83q0 -13 27 -27h36q14 0 28 27v45q0 15 -37 37q-54 0 -54 -55v-27z M1933 101v18q0 74 83 74q73 0 73 -74v-45q-35 -55 -82 -55q-59 0 -74 82zM1961 101q18 -42 37 -45h36q28 9 28 54q-8 55 -55 55q-46 -14 -46 -64zM2107 47l18 9q19 -3 19 -19l-19 -9q-18 0 -18 19zM2162 128q27 65 82 65q64 0 64 -55l-18 -10q-31 37 -55 37q-37 -9 -37 -55 v-27q0 -13 28 -27h27q41 36 46 36l9 -18v-9q-25 -46 -73 -46q-73 0 -73 109zM2317 110q18 83 82 83q82 -13 82 -83v-9q-11 -82 -82 -82q-82 21 -82 91zM2353 110q7 -54 28 -54h37q13 0 27 27v27q0 55 -46 55q-41 -18 -46 -37v-18zM2500 47v127q3 19 18 19h9q21 0 46 -119h9 q30 119 55 119q18 -3 18 -19v-127q0 -19 -18 -19q-10 6 -10 82h-9q-18 -82 -36 -82h-9q-21 0 -37 91h-9q0 -91 -18 -91z" />
<glyph unicode="|" d="M25 184l18 9q24 0 37 -110h9q18 110 45 110q21 0 46 -101h10q6 101 36 101h27q16 0 37 -101h9q13 101 37 101h9q23 0 36 -101h9q18 101 37 101h27q28 0 36 -101q11 0 46 101h9q26 0 46 -101h10q9 101 36 101h9v-19q-24 -146 -55 -146q-23 0 -36 100h-19 q-13 -100 -36 -100q-27 0 -55 137h-9q-21 -137 -46 -137q-30 0 -45 110h-9q-19 -110 -46 -110q-28 0 -46 128q-12 0 -54 -128h-10q-20 0 -46 100h-9q-13 -100 -36 -100h-9q-18 0 -55 156zM655 47l18 9l10 -19l-19 -9zM701 174q3 19 18 19h101q18 -3 18 -19q0 -18 -55 -18 v-109q0 -19 -19 -19q-17 0 -17 19v109q-46 0 -46 18zM810 37q57 156 73 156q24 0 83 -156l-19 -9q-25 0 -27 46h-64q-7 -46 -27 -46zM865 777q21 174 101 174q-9 107 -9 155v82q0 381 191 484q58 27 210 36q82 0 165 -137q73 -51 73 -109v-28q0 -35 -46 -82v-64 q46 -6 46 -27q-55 -9 -55 -92v-81h-18v63q-34 -27 -64 -27h-19q-13 0 -27 27q0 9 9 9q-9 37 -9 65l-18 -10v19q27 65 82 82l55 -19v28l-64 9q-31 0 -64 -28l-9 19q45 24 45 37h-18l-45 -10l-46 10q-10 0 -28 -10q-36 10 -63 10q-12 0 -92 -10q0 10 -9 10l-9 -19l18 -9 l-9 -18v-19q69 19 82 19q82 -29 82 -91l-18 9v-46l9 -46l-27 -18h-27q-83 0 -83 101h-9v-37q0 -210 110 -210q0 -16 100 -37q156 53 156 128h18q0 -17 -27 -73q-10 -145 -10 -173q192 -39 192 -110q9 -15 9 -46v-155q0 -73 9 -191q-18 -42 -36 -46h-9v9l18 27v210 q-21 0 -36 9q0 -182 -247 -182v18q117 18 137 18v9q-446 74 -548 74q0 -48 -27 -55h-10v9l19 37q-35 0 -55 18v-9q0 -14 27 -110q-52 0 -73 420zM875 101h26v9q-9 18 -9 28q-17 -3 -17 -19v-18zM883 768q46 0 46 -36h18q3 45 28 45q-9 18 -9 27h-9q-24 -27 -74 -27v-9z M892 604q3 -19 19 -19l27 36l-18 10q0 -27 -28 -27zM892 631q24 18 46 18v28l-9 18l-18 -9h-10v27h-9v-82zM892 804h9v46h-9v-46zM929 905h9q19 0 19 18v9q-14 0 -28 -27zM938 476h9q19 0 19 18h-9q-19 -3 -19 -18zM938 695h9q19 0 19 18l-19 9l-9 -18v-9zM947 174 q3 19 19 19h228q18 -3 18 -19q0 -18 -46 -18v-109q0 -19 -18 -19t-18 19v109q-46 0 -46 9q-13 -9 -55 -9v-109q0 -19 -17 -19q-19 0 -19 19v109q-46 0 -46 18zM957 667h27q0 19 -18 19zM975 539q18 0 63 -27h10v9q-19 0 -64 28h-9v-10zM984 494l155 -27v9q-16 48 -73 82v-9 q12 0 46 -46v-9q-69 64 -92 64h-8v-9q42 0 82 -55h-10q-9 0 -9 9l-18 -9l-45 9h-28v-9zM984 941q20 -46 73 -64v9q-14 55 -64 55h-9zM993 741h9l10 45v9h-10l-9 -37v-17zM1002 585q14 0 36 -18v9q-9 18 -9 28q-17 -9 -27 -9v-10zM1020 732l28 -19h18l-9 45v37h18l-9 64 l-46 -36l9 -46zM1038 604q10 0 28 -9v36h-28v-27zM1103 1225q18 0 18 18t-18 18v-36zM1157 1261l9 -46h9v46h-18zM1157 1325v18q15 0 110 9q42 -17 45 -36v-10h-9l-45 28q-81 -9 -101 -9zM1175 741q0 -131 174 -183v82q19 -3 19 -19v-63h72q101 0 101 100q9 34 9 83h-9 q-98 -83 -137 -83v9l-18 -9l-28 19q0 -19 -18 -19q0 14 -28 28l-27 -19q-36 24 -36 37l-18 -9l-10 18q10 0 10 9q-28 0 -28 19q9 0 9 8h-18zM1175 804h28v-9l-9 -18h27l-9 18q9 0 9 9q-9 0 -27 10h-19v-10zM1175 859q0 -20 110 -45q0 -11 55 -46q69 18 82 18l-9 -18 q36 5 36 27h19q89 -27 100 -27v18q-10 0 -100 18h-82v19h73v9q-64 13 -64 100l-18 -9h-19q-51 0 -137 46q-9 -63 -9 -83q68 -33 73 -54v-9q-73 54 -110 54v-18zM1203 1179q9 -37 55 -37l9 46l-18 9q-16 -9 -37 -9q0 9 -9 9v-18zM1212 110q12 83 82 83q83 -13 83 -83 q0 -68 -74 -91q-91 12 -91 91zM1231 1252q2 -18 18 -18l9 18h-27zM1249 83q0 -13 27 -27h36q14 0 28 27v45q0 15 -37 37h-18q-14 0 -36 -37v-45zM1249 804q14 0 36 -18v9l-27 19h-9v-10zM1303 1023v9h9l19 -9q16 9 37 9q12 0 27 -26q0 -14 -27 -28h-28q-13 1 -37 45z M1322 841v9l18 -9q13 36 28 36h9q-19 -54 -37 -54t-18 18zM1340 1051v18h37q0 -18 -19 -18h-18zM1377 1197l18 9q0 -14 18 -37v-9q-14 0 -36 37zM1386 101v37q32 55 82 55q73 0 73 -74v-45q-35 -55 -82 -55q-59 0 -73 82zM1413 110q19 -54 36 -54h37q28 9 28 54 q-8 55 -55 55q-27 -1 -46 -55zM1413 704q3 -18 18 -18v9q0 18 -18 18v-9zM1431 1188q12 -46 28 -46h9q13 0 27 27v19q-9 0 -27 9l-9 -18l-19 9h-9zM1468 722h18q0 27 46 27v9h-55l-9 -17q9 0 9 -9q-9 0 -9 -10zM1486 1352l46 -9v19h-46v-10zM1523 1197h9q0 7 9 55v9h-9 q-9 -48 -9 -55v-9zM1550 184l18 9q28 -36 28 -101h18q13 101 37 101h9q20 0 36 -110h9q12 110 37 110q18 -3 18 -19q-40 -146 -55 -146h-9q-21 0 -36 110h-9q-24 -110 -46 -110q-28 0 -55 156zM1596 686q33 -128 55 -128l18 27q-18 0 -18 19h18q0 17 -18 17h-9l9 -17h-9 q-19 0 -19 17l28 37q-9 18 -9 28l18 9l18 -9v9q-18 73 -73 73l-9 -19v-63zM1660 539q18 0 18 19v9q-18 -3 -18 -18v-10zM1760 128q27 65 82 65q83 0 83 -101q-30 -73 -83 -73q-82 0 -82 109zM1797 83q0 -13 27 -27h36q14 0 28 27v45q0 15 -37 37q-54 0 -54 -55v-27z M1933 101v18q0 74 83 74q73 0 73 -74v-45q-35 -55 -82 -55q-59 0 -74 82zM1961 101q18 -42 37 -45h36q28 9 28 54q-8 55 -55 55q-46 -14 -46 -64zM2107 47l18 9q19 -3 19 -19l-19 -9q-18 0 -18 19zM2162 128q27 65 82 65q64 0 64 -55l-18 -10q-31 37 -55 37q-37 -9 -37 -55 v-27q0 -13 28 -27h27q41 36 46 36l9 -18v-9q-25 -46 -73 -46q-73 0 -73 109zM2317 110q18 83 82 83q82 -13 82 -83v-9q-11 -82 -82 -82q-82 21 -82 91zM2353 110q7 -54 28 -54h37q13 0 27 27v27q0 55 -46 55q-41 -18 -46 -37v-18zM2500 47v127q3 19 18 19h9q21 0 46 -119h9 q30 119 55 119q18 -3 18 -19v-127q0 -19 -18 -19q-10 6 -10 82h-9q-18 -82 -36 -82h-9q-21 0 -37 91h-9q0 -91 -18 -91z" />
<glyph unicode="}" d="M25 184l18 9q24 0 37 -110h9q18 110 45 110q21 0 46 -101h10q6 101 36 101h27q16 0 37 -101h9q13 101 37 101h9q23 0 36 -101h9q18 101 37 101h27q28 0 36 -101q11 0 46 101h9q26 0 46 -101h10q9 101 36 101h9v-19q-24 -146 -55 -146q-23 0 -36 100h-19 q-13 -100 -36 -100q-27 0 -55 137h-9q-21 -137 -46 -137q-30 0 -45 110h-9q-19 -110 -46 -110q-28 0 -46 128q-12 0 -54 -128h-10q-20 0 -46 100h-9q-13 -100 -36 -100h-9q-18 0 -55 156zM655 47l18 9l10 -19l-19 -9zM701 174q3 19 18 19h101q18 -3 18 -19q0 -18 -55 -18 v-109q0 -19 -19 -19q-17 0 -17 19v109q-46 0 -46 18zM810 37q57 156 73 156q24 0 83 -156l-19 -9q-25 0 -27 46h-64q-7 -46 -27 -46zM865 777q21 174 101 174q-9 107 -9 155v82q0 381 191 484q58 27 210 36q82 0 165 -137q73 -51 73 -109v-28q0 -35 -46 -82v-64 q46 -6 46 -27q-55 -9 -55 -92v-81h-18v63q-34 -27 -64 -27h-19q-13 0 -27 27q0 9 9 9q-9 37 -9 65l-18 -10v19q27 65 82 82l55 -19v28l-64 9q-31 0 -64 -28l-9 19q45 24 45 37h-18l-45 -10l-46 10q-10 0 -28 -10q-36 10 -63 10q-12 0 -92 -10q0 10 -9 10l-9 -19l18 -9 l-9 -18v-19q69 19 82 19q82 -29 82 -91l-18 9v-46l9 -46l-27 -18h-27q-83 0 -83 101h-9v-37q0 -210 110 -210q0 -16 100 -37q156 53 156 128h18q0 -17 -27 -73q-10 -145 -10 -173q192 -39 192 -110q9 -15 9 -46v-155q0 -73 9 -191q-18 -42 -36 -46h-9v9l18 27v210 q-21 0 -36 9q0 -182 -247 -182v18q117 18 137 18v9q-446 74 -548 74q0 -48 -27 -55h-10v9l19 37q-35 0 -55 18v-9q0 -14 27 -110q-52 0 -73 420zM875 101h26v9q-9 18 -9 28q-17 -3 -17 -19v-18zM883 768q46 0 46 -36h18q3 45 28 45q-9 18 -9 27h-9q-24 -27 -74 -27v-9z M892 604q3 -19 19 -19l27 36l-18 10q0 -27 -28 -27zM892 631q24 18 46 18v28l-9 18l-18 -9h-10v27h-9v-82zM892 804h9v46h-9v-46zM929 905h9q19 0 19 18v9q-14 0 -28 -27zM938 476h9q19 0 19 18h-9q-19 -3 -19 -18zM938 695h9q19 0 19 18l-19 9l-9 -18v-9zM947 174 q3 19 19 19h228q18 -3 18 -19q0 -18 -46 -18v-109q0 -19 -18 -19t-18 19v109q-46 0 -46 9q-13 -9 -55 -9v-109q0 -19 -17 -19q-19 0 -19 19v109q-46 0 -46 18zM957 667h27q0 19 -18 19zM975 539q18 0 63 -27h10v9q-19 0 -64 28h-9v-10zM984 494l155 -27v9q-16 48 -73 82v-9 q12 0 46 -46v-9q-69 64 -92 64h-8v-9q42 0 82 -55h-10q-9 0 -9 9l-18 -9l-45 9h-28v-9zM984 941q20 -46 73 -64v9q-14 55 -64 55h-9zM993 741h9l10 45v9h-10l-9 -37v-17zM1002 585q14 0 36 -18v9q-9 18 -9 28q-17 -9 -27 -9v-10zM1020 732l28 -19h18l-9 45v37h18l-9 64 l-46 -36l9 -46zM1038 604q10 0 28 -9v36h-28v-27zM1103 1225q18 0 18 18t-18 18v-36zM1157 1261l9 -46h9v46h-18zM1157 1325v18q15 0 110 9q42 -17 45 -36v-10h-9l-45 28q-81 -9 -101 -9zM1175 741q0 -131 174 -183v82q19 -3 19 -19v-63h72q101 0 101 100q9 34 9 83h-9 q-98 -83 -137 -83v9l-18 -9l-28 19q0 -19 -18 -19q0 14 -28 28l-27 -19q-36 24 -36 37l-18 -9l-10 18q10 0 10 9q-28 0 -28 19q9 0 9 8h-18zM1175 804h28v-9l-9 -18h27l-9 18q9 0 9 9q-9 0 -27 10h-19v-10zM1175 859q0 -20 110 -45q0 -11 55 -46q69 18 82 18l-9 -18 q36 5 36 27h19q89 -27 100 -27v18q-10 0 -100 18h-82v19h73v9q-64 13 -64 100l-18 -9h-19q-51 0 -137 46q-9 -63 -9 -83q68 -33 73 -54v-9q-73 54 -110 54v-18zM1203 1179q9 -37 55 -37l9 46l-18 9q-16 -9 -37 -9q0 9 -9 9v-18zM1212 110q12 83 82 83q83 -13 83 -83 q0 -68 -74 -91q-91 12 -91 91zM1231 1252q2 -18 18 -18l9 18h-27zM1249 83q0 -13 27 -27h36q14 0 28 27v45q0 15 -37 37h-18q-14 0 -36 -37v-45zM1249 804q14 0 36 -18v9l-27 19h-9v-10zM1303 1023v9h9l19 -9q16 9 37 9q12 0 27 -26q0 -14 -27 -28h-28q-13 1 -37 45z M1322 841v9l18 -9q13 36 28 36h9q-19 -54 -37 -54t-18 18zM1340 1051v18h37q0 -18 -19 -18h-18zM1377 1197l18 9q0 -14 18 -37v-9q-14 0 -36 37zM1386 101v37q32 55 82 55q73 0 73 -74v-45q-35 -55 -82 -55q-59 0 -73 82zM1413 110q19 -54 36 -54h37q28 9 28 54 q-8 55 -55 55q-27 -1 -46 -55zM1413 704q3 -18 18 -18v9q0 18 -18 18v-9zM1431 1188q12 -46 28 -46h9q13 0 27 27v19q-9 0 -27 9l-9 -18l-19 9h-9zM1468 722h18q0 27 46 27v9h-55l-9 -17q9 0 9 -9q-9 0 -9 -10zM1486 1352l46 -9v19h-46v-10zM1523 1197h9q0 7 9 55v9h-9 q-9 -48 -9 -55v-9zM1550 184l18 9q28 -36 28 -101h18q13 101 37 101h9q20 0 36 -110h9q12 110 37 110q18 -3 18 -19q-40 -146 -55 -146h-9q-21 0 -36 110h-9q-24 -110 -46 -110q-28 0 -55 156zM1596 686q33 -128 55 -128l18 27q-18 0 -18 19h18q0 17 -18 17h-9l9 -17h-9 q-19 0 -19 17l28 37q-9 18 -9 28l18 9l18 -9v9q-18 73 -73 73l-9 -19v-63zM1660 539q18 0 18 19v9q-18 -3 -18 -18v-10zM1760 128q27 65 82 65q83 0 83 -101q-30 -73 -83 -73q-82 0 -82 109zM1797 83q0 -13 27 -27h36q14 0 28 27v45q0 15 -37 37q-54 0 -54 -55v-27z M1933 101v18q0 74 83 74q73 0 73 -74v-45q-35 -55 -82 -55q-59 0 -74 82zM1961 101q18 -42 37 -45h36q28 9 28 54q-8 55 -55 55q-46 -14 -46 -64zM2107 47l18 9q19 -3 19 -19l-19 -9q-18 0 -18 19zM2162 128q27 65 82 65q64 0 64 -55l-18 -10q-31 37 -55 37q-37 -9 -37 -55 v-27q0 -13 28 -27h27q41 36 46 36l9 -18v-9q-25 -46 -73 -46q-73 0 -73 109zM2317 110q18 83 82 83q82 -13 82 -83v-9q-11 -82 -82 -82q-82 21 -82 91zM2353 110q7 -54 28 -54h37q13 0 27 27v27q0 55 -46 55q-41 -18 -46 -37v-18zM2500 47v127q3 19 18 19h9q21 0 46 -119h9 q30 119 55 119q18 -3 18 -19v-127q0 -19 -18 -19q-10 6 -10 82h-9q-18 -82 -36 -82h-9q-21 0 -37 91h-9q0 -91 -18 -91z" />
<glyph unicode="~" d="M25 184l18 9q24 0 37 -110h9q18 110 45 110q21 0 46 -101h10q6 101 36 101h27q16 0 37 -101h9q13 101 37 101h9q23 0 36 -101h9q18 101 37 101h27q28 0 36 -101q11 0 46 101h9q26 0 46 -101h10q9 101 36 101h9v-19q-24 -146 -55 -146q-23 0 -36 100h-19 q-13 -100 -36 -100q-27 0 -55 137h-9q-21 -137 -46 -137q-30 0 -45 110h-9q-19 -110 -46 -110q-28 0 -46 128q-12 0 -54 -128h-10q-20 0 -46 100h-9q-13 -100 -36 -100h-9q-18 0 -55 156zM655 47l18 9l10 -19l-19 -9zM701 174q3 19 18 19h101q18 -3 18 -19q0 -18 -55 -18 v-109q0 -19 -19 -19q-17 0 -17 19v109q-46 0 -46 18zM810 37q57 156 73 156q24 0 83 -156l-19 -9q-25 0 -27 46h-64q-7 -46 -27 -46zM865 777q21 174 101 174q-9 107 -9 155v82q0 381 191 484q58 27 210 36q82 0 165 -137q73 -51 73 -109v-28q0 -35 -46 -82v-64 q46 -6 46 -27q-55 -9 -55 -92v-81h-18v63q-34 -27 -64 -27h-19q-13 0 -27 27q0 9 9 9q-9 37 -9 65l-18 -10v19q27 65 82 82l55 -19v28l-64 9q-31 0 -64 -28l-9 19q45 24 45 37h-18l-45 -10l-46 10q-10 0 -28 -10q-36 10 -63 10q-12 0 -92 -10q0 10 -9 10l-9 -19l18 -9 l-9 -18v-19q69 19 82 19q82 -29 82 -91l-18 9v-46l9 -46l-27 -18h-27q-83 0 -83 101h-9v-37q0 -210 110 -210q0 -16 100 -37q156 53 156 128h18q0 -17 -27 -73q-10 -145 -10 -173q192 -39 192 -110q9 -15 9 -46v-155q0 -73 9 -191q-18 -42 -36 -46h-9v9l18 27v210 q-21 0 -36 9q0 -182 -247 -182v18q117 18 137 18v9q-446 74 -548 74q0 -48 -27 -55h-10v9l19 37q-35 0 -55 18v-9q0 -14 27 -110q-52 0 -73 420zM875 101h26v9q-9 18 -9 28q-17 -3 -17 -19v-18zM883 768q46 0 46 -36h18q3 45 28 45q-9 18 -9 27h-9q-24 -27 -74 -27v-9z M892 604q3 -19 19 -19l27 36l-18 10q0 -27 -28 -27zM892 631q24 18 46 18v28l-9 18l-18 -9h-10v27h-9v-82zM892 804h9v46h-9v-46zM929 905h9q19 0 19 18v9q-14 0 -28 -27zM938 476h9q19 0 19 18h-9q-19 -3 -19 -18zM938 695h9q19 0 19 18l-19 9l-9 -18v-9zM947 174 q3 19 19 19h228q18 -3 18 -19q0 -18 -46 -18v-109q0 -19 -18 -19t-18 19v109q-46 0 -46 9q-13 -9 -55 -9v-109q0 -19 -17 -19q-19 0 -19 19v109q-46 0 -46 18zM957 667h27q0 19 -18 19zM975 539q18 0 63 -27h10v9q-19 0 -64 28h-9v-10zM984 494l155 -27v9q-16 48 -73 82v-9 q12 0 46 -46v-9q-69 64 -92 64h-8v-9q42 0 82 -55h-10q-9 0 -9 9l-18 -9l-45 9h-28v-9zM984 941q20 -46 73 -64v9q-14 55 -64 55h-9zM993 741h9l10 45v9h-10l-9 -37v-17zM1002 585q14 0 36 -18v9q-9 18 -9 28q-17 -9 -27 -9v-10zM1020 732l28 -19h18l-9 45v37h18l-9 64 l-46 -36l9 -46zM1038 604q10 0 28 -9v36h-28v-27zM1103 1225q18 0 18 18t-18 18v-36zM1157 1261l9 -46h9v46h-18zM1157 1325v18q15 0 110 9q42 -17 45 -36v-10h-9l-45 28q-81 -9 -101 -9zM1175 741q0 -131 174 -183v82q19 -3 19 -19v-63h72q101 0 101 100q9 34 9 83h-9 q-98 -83 -137 -83v9l-18 -9l-28 19q0 -19 -18 -19q0 14 -28 28l-27 -19q-36 24 -36 37l-18 -9l-10 18q10 0 10 9q-28 0 -28 19q9 0 9 8h-18zM1175 804h28v-9l-9 -18h27l-9 18q9 0 9 9q-9 0 -27 10h-19v-10zM1175 859q0 -20 110 -45q0 -11 55 -46q69 18 82 18l-9 -18 q36 5 36 27h19q89 -27 100 -27v18q-10 0 -100 18h-82v19h73v9q-64 13 -64 100l-18 -9h-19q-51 0 -137 46q-9 -63 -9 -83q68 -33 73 -54v-9q-73 54 -110 54v-18zM1203 1179q9 -37 55 -37l9 46l-18 9q-16 -9 -37 -9q0 9 -9 9v-18zM1212 110q12 83 82 83q83 -13 83 -83 q0 -68 -74 -91q-91 12 -91 91zM1231 1252q2 -18 18 -18l9 18h-27zM1249 83q0 -13 27 -27h36q14 0 28 27v45q0 15 -37 37h-18q-14 0 -36 -37v-45zM1249 804q14 0 36 -18v9l-27 19h-9v-10zM1303 1023v9h9l19 -9q16 9 37 9q12 0 27 -26q0 -14 -27 -28h-28q-13 1 -37 45z M1322 841v9l18 -9q13 36 28 36h9q-19 -54 -37 -54t-18 18zM1340 1051v18h37q0 -18 -19 -18h-18zM1377 1197l18 9q0 -14 18 -37v-9q-14 0 -36 37zM1386 101v37q32 55 82 55q73 0 73 -74v-45q-35 -55 -82 -55q-59 0 -73 82zM1413 110q19 -54 36 -54h37q28 9 28 54 q-8 55 -55 55q-27 -1 -46 -55zM1413 704q3 -18 18 -18v9q0 18 -18 18v-9zM1431 1188q12 -46 28 -46h9q13 0 27 27v19q-9 0 -27 9l-9 -18l-19 9h-9zM1468 722h18q0 27 46 27v9h-55l-9 -17q9 0 9 -9q-9 0 -9 -10zM1486 1352l46 -9v19h-46v-10zM1523 1197h9q0 7 9 55v9h-9 q-9 -48 -9 -55v-9zM1550 184l18 9q28 -36 28 -101h18q13 101 37 101h9q20 0 36 -110h9q12 110 37 110q18 -3 18 -19q-40 -146 -55 -146h-9q-21 0 -36 110h-9q-24 -110 -46 -110q-28 0 -55 156zM1596 686q33 -128 55 -128l18 27q-18 0 -18 19h18q0 17 -18 17h-9l9 -17h-9 q-19 0 -19 17l28 37q-9 18 -9 28l18 9l18 -9v9q-18 73 -73 73l-9 -19v-63zM1660 539q18 0 18 19v9q-18 -3 -18 -18v-10zM1760 128q27 65 82 65q83 0 83 -101q-30 -73 -83 -73q-82 0 -82 109zM1797 83q0 -13 27 -27h36q14 0 28 27v45q0 15 -37 37q-54 0 -54 -55v-27z M1933 101v18q0 74 83 74q73 0 73 -74v-45q-35 -55 -82 -55q-59 0 -74 82zM1961 101q18 -42 37 -45h36q28 9 28 54q-8 55 -55 55q-46 -14 -46 -64zM2107 47l18 9q19 -3 19 -19l-19 -9q-18 0 -18 19zM2162 128q27 65 82 65q64 0 64 -55l-18 -10q-31 37 -55 37q-37 -9 -37 -55 v-27q0 -13 28 -27h27q41 36 46 36l9 -18v-9q-25 -46 -73 -46q-73 0 -73 109zM2317 110q18 83 82 83q82 -13 82 -83v-9q-11 -82 -82 -82q-82 21 -82 91zM2353 110q7 -54 28 -54h37q13 0 27 27v27q0 55 -46 55q-41 -18 -46 -37v-18zM2500 47v127q3 19 18 19h9q21 0 46 -119h9 q30 119 55 119q18 -3 18 -19v-127q0 -19 -18 -19q-10 6 -10 82h-9q-18 -82 -36 -82h-9q-21 0 -37 91h-9q0 -91 -18 -91z" />
<glyph unicode="&#xa1;" horiz-adv-x="672" />
<glyph unicode="&#xa2;" horiz-adv-x="1139" />
<glyph unicode="&#xa9;" d="M25 184l18 9q24 0 37 -110h9q18 110 45 110q21 0 46 -101h10q6 101 36 101h27q16 0 37 -101h9q13 101 37 101h9q23 0 36 -101h9q18 101 37 101h27q28 0 36 -101q11 0 46 101h9q26 0 46 -101h10q9 101 36 101h9v-19q-24 -146 -55 -146q-23 0 -36 100h-19 q-13 -100 -36 -100q-27 0 -55 137h-9q-21 -137 -46 -137q-30 0 -45 110h-9q-19 -110 -46 -110q-28 0 -46 128q-12 0 -54 -128h-10q-20 0 -46 100h-9q-13 -100 -36 -100h-9q-18 0 -55 156zM655 47l18 9l10 -19l-19 -9zM701 174q3 19 18 19h101q18 -3 18 -19q0 -18 -55 -18 v-109q0 -19 -19 -19q-17 0 -17 19v109q-46 0 -46 18zM810 37q57 156 73 156q24 0 83 -156l-19 -9q-25 0 -27 46h-64q-7 -46 -27 -46zM865 777q21 174 101 174q-9 107 -9 155v82q0 381 191 484q58 27 210 36q82 0 165 -137q73 -51 73 -109v-28q0 -35 -46 -82v-64 q46 -6 46 -27q-55 -9 -55 -92v-81h-18v63q-34 -27 -64 -27h-19q-13 0 -27 27q0 9 9 9q-9 37 -9 65l-18 -10v19q27 65 82 82l55 -19v28l-64 9q-31 0 -64 -28l-9 19q45 24 45 37h-18l-45 -10l-46 10q-10 0 -28 -10q-36 10 -63 10q-12 0 -92 -10q0 10 -9 10l-9 -19l18 -9 l-9 -18v-19q69 19 82 19q82 -29 82 -91l-18 9v-46l9 -46l-27 -18h-27q-83 0 -83 101h-9v-37q0 -210 110 -210q0 -16 100 -37q156 53 156 128h18q0 -17 -27 -73q-10 -145 -10 -173q192 -39 192 -110q9 -15 9 -46v-155q0 -73 9 -191q-18 -42 -36 -46h-9v9l18 27v210 q-21 0 -36 9q0 -182 -247 -182v18q117 18 137 18v9q-446 74 -548 74q0 -48 -27 -55h-10v9l19 37q-35 0 -55 18v-9q0 -14 27 -110q-52 0 -73 420zM875 101h26v9q-9 18 -9 28q-17 -3 -17 -19v-18zM883 768q46 0 46 -36h18q3 45 28 45q-9 18 -9 27h-9q-24 -27 -74 -27v-9z M892 604q3 -19 19 -19l27 36l-18 10q0 -27 -28 -27zM892 631q24 18 46 18v28l-9 18l-18 -9h-10v27h-9v-82zM892 804h9v46h-9v-46zM929 905h9q19 0 19 18v9q-14 0 -28 -27zM938 476h9q19 0 19 18h-9q-19 -3 -19 -18zM938 695h9q19 0 19 18l-19 9l-9 -18v-9zM947 174 q3 19 19 19h228q18 -3 18 -19q0 -18 -46 -18v-109q0 -19 -18 -19t-18 19v109q-46 0 -46 9q-13 -9 -55 -9v-109q0 -19 -17 -19q-19 0 -19 19v109q-46 0 -46 18zM957 667h27q0 19 -18 19zM975 539q18 0 63 -27h10v9q-19 0 -64 28h-9v-10zM984 494l155 -27v9q-16 48 -73 82v-9 q12 0 46 -46v-9q-69 64 -92 64h-8v-9q42 0 82 -55h-10q-9 0 -9 9l-18 -9l-45 9h-28v-9zM984 941q20 -46 73 -64v9q-14 55 -64 55h-9zM993 741h9l10 45v9h-10l-9 -37v-17zM1002 585q14 0 36 -18v9q-9 18 -9 28q-17 -9 -27 -9v-10zM1020 732l28 -19h18l-9 45v37h18l-9 64 l-46 -36l9 -46zM1038 604q10 0 28 -9v36h-28v-27zM1103 1225q18 0 18 18t-18 18v-36zM1157 1261l9 -46h9v46h-18zM1157 1325v18q15 0 110 9q42 -17 45 -36v-10h-9l-45 28q-81 -9 -101 -9zM1175 741q0 -131 174 -183v82q19 -3 19 -19v-63h72q101 0 101 100q9 34 9 83h-9 q-98 -83 -137 -83v9l-18 -9l-28 19q0 -19 -18 -19q0 14 -28 28l-27 -19q-36 24 -36 37l-18 -9l-10 18q10 0 10 9q-28 0 -28 19q9 0 9 8h-18zM1175 804h28v-9l-9 -18h27l-9 18q9 0 9 9q-9 0 -27 10h-19v-10zM1175 859q0 -20 110 -45q0 -11 55 -46q69 18 82 18l-9 -18 q36 5 36 27h19q89 -27 100 -27v18q-10 0 -100 18h-82v19h73v9q-64 13 -64 100l-18 -9h-19q-51 0 -137 46q-9 -63 -9 -83q68 -33 73 -54v-9q-73 54 -110 54v-18zM1203 1179q9 -37 55 -37l9 46l-18 9q-16 -9 -37 -9q0 9 -9 9v-18zM1212 110q12 83 82 83q83 -13 83 -83 q0 -68 -74 -91q-91 12 -91 91zM1231 1252q2 -18 18 -18l9 18h-27zM1249 83q0 -13 27 -27h36q14 0 28 27v45q0 15 -37 37h-18q-14 0 -36 -37v-45zM1249 804q14 0 36 -18v9l-27 19h-9v-10zM1303 1023v9h9l19 -9q16 9 37 9q12 0 27 -26q0 -14 -27 -28h-28q-13 1 -37 45z M1322 841v9l18 -9q13 36 28 36h9q-19 -54 -37 -54t-18 18zM1340 1051v18h37q0 -18 -19 -18h-18zM1377 1197l18 9q0 -14 18 -37v-9q-14 0 -36 37zM1386 101v37q32 55 82 55q73 0 73 -74v-45q-35 -55 -82 -55q-59 0 -73 82zM1413 110q19 -54 36 -54h37q28 9 28 54 q-8 55 -55 55q-27 -1 -46 -55zM1413 704q3 -18 18 -18v9q0 18 -18 18v-9zM1431 1188q12 -46 28 -46h9q13 0 27 27v19q-9 0 -27 9l-9 -18l-19 9h-9zM1468 722h18q0 27 46 27v9h-55l-9 -17q9 0 9 -9q-9 0 -9 -10zM1486 1352l46 -9v19h-46v-10zM1523 1197h9q0 7 9 55v9h-9 q-9 -48 -9 -55v-9zM1550 184l18 9q28 -36 28 -101h18q13 101 37 101h9q20 0 36 -110h9q12 110 37 110q18 -3 18 -19q-40 -146 -55 -146h-9q-21 0 -36 110h-9q-24 -110 -46 -110q-28 0 -55 156zM1596 686q33 -128 55 -128l18 27q-18 0 -18 19h18q0 17 -18 17h-9l9 -17h-9 q-19 0 -19 17l28 37q-9 18 -9 28l18 9l18 -9v9q-18 73 -73 73l-9 -19v-63zM1660 539q18 0 18 19v9q-18 -3 -18 -18v-10zM1760 128q27 65 82 65q83 0 83 -101q-30 -73 -83 -73q-82 0 -82 109zM1797 83q0 -13 27 -27h36q14 0 28 27v45q0 15 -37 37q-54 0 -54 -55v-27z M1933 101v18q0 74 83 74q73 0 73 -74v-45q-35 -55 -82 -55q-59 0 -74 82zM1961 101q18 -42 37 -45h36q28 9 28 54q-8 55 -55 55q-46 -14 -46 -64zM2107 47l18 9q19 -3 19 -19l-19 -9q-18 0 -18 19zM2162 128q27 65 82 65q64 0 64 -55l-18 -10q-31 37 -55 37q-37 -9 -37 -55 v-27q0 -13 28 -27h27q41 36 46 36l9 -18v-9q-25 -46 -73 -46q-73 0 -73 109zM2317 110q18 83 82 83q82 -13 82 -83v-9q-11 -82 -82 -82q-82 21 -82 91zM2353 110q7 -54 28 -54h37q13 0 27 27v27q0 55 -46 55q-41 -18 -46 -37v-18zM2500 47v127q3 19 18 19h9q21 0 46 -119h9 q30 119 55 119q18 -3 18 -19v-127q0 -19 -18 -19q-10 6 -10 82h-9q-18 -82 -36 -82h-9q-21 0 -37 91h-9q0 -91 -18 -91z" />
<glyph unicode="&#xaa;" horiz-adv-x="648" />
<glyph unicode="&#xad;" d="M25 184l18 9q24 0 37 -110h9q18 110 45 110q21 0 46 -101h10q6 101 36 101h27q16 0 37 -101h9q13 101 37 101h9q23 0 36 -101h9q18 101 37 101h27q28 0 36 -101q11 0 46 101h9q26 0 46 -101h10q9 101 36 101h9v-19q-24 -146 -55 -146q-23 0 -36 100h-19 q-13 -100 -36 -100q-27 0 -55 137h-9q-21 -137 -46 -137q-30 0 -45 110h-9q-19 -110 -46 -110q-28 0 -46 128q-12 0 -54 -128h-10q-20 0 -46 100h-9q-13 -100 -36 -100h-9q-18 0 -55 156zM655 47l18 9l10 -19l-19 -9zM701 174q3 19 18 19h101q18 -3 18 -19q0 -18 -55 -18 v-109q0 -19 -19 -19q-17 0 -17 19v109q-46 0 -46 18zM810 37q57 156 73 156q24 0 83 -156l-19 -9q-25 0 -27 46h-64q-7 -46 -27 -46zM865 777q21 174 101 174q-9 107 -9 155v82q0 381 191 484q58 27 210 36q82 0 165 -137q73 -51 73 -109v-28q0 -35 -46 -82v-64 q46 -6 46 -27q-55 -9 -55 -92v-81h-18v63q-34 -27 -64 -27h-19q-13 0 -27 27q0 9 9 9q-9 37 -9 65l-18 -10v19q27 65 82 82l55 -19v28l-64 9q-31 0 -64 -28l-9 19q45 24 45 37h-18l-45 -10l-46 10q-10 0 -28 -10q-36 10 -63 10q-12 0 -92 -10q0 10 -9 10l-9 -19l18 -9 l-9 -18v-19q69 19 82 19q82 -29 82 -91l-18 9v-46l9 -46l-27 -18h-27q-83 0 -83 101h-9v-37q0 -210 110 -210q0 -16 100 -37q156 53 156 128h18q0 -17 -27 -73q-10 -145 -10 -173q192 -39 192 -110q9 -15 9 -46v-155q0 -73 9 -191q-18 -42 -36 -46h-9v9l18 27v210 q-21 0 -36 9q0 -182 -247 -182v18q117 18 137 18v9q-446 74 -548 74q0 -48 -27 -55h-10v9l19 37q-35 0 -55 18v-9q0 -14 27 -110q-52 0 -73 420zM875 101h26v9q-9 18 -9 28q-17 -3 -17 -19v-18zM883 768q46 0 46 -36h18q3 45 28 45q-9 18 -9 27h-9q-24 -27 -74 -27v-9z M892 604q3 -19 19 -19l27 36l-18 10q0 -27 -28 -27zM892 631q24 18 46 18v28l-9 18l-18 -9h-10v27h-9v-82zM892 804h9v46h-9v-46zM929 905h9q19 0 19 18v9q-14 0 -28 -27zM938 476h9q19 0 19 18h-9q-19 -3 -19 -18zM938 695h9q19 0 19 18l-19 9l-9 -18v-9zM947 174 q3 19 19 19h228q18 -3 18 -19q0 -18 -46 -18v-109q0 -19 -18 -19t-18 19v109q-46 0 -46 9q-13 -9 -55 -9v-109q0 -19 -17 -19q-19 0 -19 19v109q-46 0 -46 18zM957 667h27q0 19 -18 19zM975 539q18 0 63 -27h10v9q-19 0 -64 28h-9v-10zM984 494l155 -27v9q-16 48 -73 82v-9 q12 0 46 -46v-9q-69 64 -92 64h-8v-9q42 0 82 -55h-10q-9 0 -9 9l-18 -9l-45 9h-28v-9zM984 941q20 -46 73 -64v9q-14 55 -64 55h-9zM993 741h9l10 45v9h-10l-9 -37v-17zM1002 585q14 0 36 -18v9q-9 18 -9 28q-17 -9 -27 -9v-10zM1020 732l28 -19h18l-9 45v37h18l-9 64 l-46 -36l9 -46zM1038 604q10 0 28 -9v36h-28v-27zM1103 1225q18 0 18 18t-18 18v-36zM1157 1261l9 -46h9v46h-18zM1157 1325v18q15 0 110 9q42 -17 45 -36v-10h-9l-45 28q-81 -9 -101 -9zM1175 741q0 -131 174 -183v82q19 -3 19 -19v-63h72q101 0 101 100q9 34 9 83h-9 q-98 -83 -137 -83v9l-18 -9l-28 19q0 -19 -18 -19q0 14 -28 28l-27 -19q-36 24 -36 37l-18 -9l-10 18q10 0 10 9q-28 0 -28 19q9 0 9 8h-18zM1175 804h28v-9l-9 -18h27l-9 18q9 0 9 9q-9 0 -27 10h-19v-10zM1175 859q0 -20 110 -45q0 -11 55 -46q69 18 82 18l-9 -18 q36 5 36 27h19q89 -27 100 -27v18q-10 0 -100 18h-82v19h73v9q-64 13 -64 100l-18 -9h-19q-51 0 -137 46q-9 -63 -9 -83q68 -33 73 -54v-9q-73 54 -110 54v-18zM1203 1179q9 -37 55 -37l9 46l-18 9q-16 -9 -37 -9q0 9 -9 9v-18zM1212 110q12 83 82 83q83 -13 83 -83 q0 -68 -74 -91q-91 12 -91 91zM1231 1252q2 -18 18 -18l9 18h-27zM1249 83q0 -13 27 -27h36q14 0 28 27v45q0 15 -37 37h-18q-14 0 -36 -37v-45zM1249 804q14 0 36 -18v9l-27 19h-9v-10zM1303 1023v9h9l19 -9q16 9 37 9q12 0 27 -26q0 -14 -27 -28h-28q-13 1 -37 45z M1322 841v9l18 -9q13 36 28 36h9q-19 -54 -37 -54t-18 18zM1340 1051v18h37q0 -18 -19 -18h-18zM1377 1197l18 9q0 -14 18 -37v-9q-14 0 -36 37zM1386 101v37q32 55 82 55q73 0 73 -74v-45q-35 -55 -82 -55q-59 0 -73 82zM1413 110q19 -54 36 -54h37q28 9 28 54 q-8 55 -55 55q-27 -1 -46 -55zM1413 704q3 -18 18 -18v9q0 18 -18 18v-9zM1431 1188q12 -46 28 -46h9q13 0 27 27v19q-9 0 -27 9l-9 -18l-19 9h-9zM1468 722h18q0 27 46 27v9h-55l-9 -17q9 0 9 -9q-9 0 -9 -10zM1486 1352l46 -9v19h-46v-10zM1523 1197h9q0 7 9 55v9h-9 q-9 -48 -9 -55v-9zM1550 184l18 9q28 -36 28 -101h18q13 101 37 101h9q20 0 36 -110h9q12 110 37 110q18 -3 18 -19q-40 -146 -55 -146h-9q-21 0 -36 110h-9q-24 -110 -46 -110q-28 0 -55 156zM1596 686q33 -128 55 -128l18 27q-18 0 -18 19h18q0 17 -18 17h-9l9 -17h-9 q-19 0 -19 17l28 37q-9 18 -9 28l18 9l18 -9v9q-18 73 -73 73l-9 -19v-63zM1660 539q18 0 18 19v9q-18 -3 -18 -18v-10zM1760 128q27 65 82 65q83 0 83 -101q-30 -73 -83 -73q-82 0 -82 109zM1797 83q0 -13 27 -27h36q14 0 28 27v45q0 15 -37 37q-54 0 -54 -55v-27z M1933 101v18q0 74 83 74q73 0 73 -74v-45q-35 -55 -82 -55q-59 0 -74 82zM1961 101q18 -42 37 -45h36q28 9 28 54q-8 55 -55 55q-46 -14 -46 -64zM2107 47l18 9q19 -3 19 -19l-19 -9q-18 0 -18 19zM2162 128q27 65 82 65q64 0 64 -55l-18 -10q-31 37 -55 37q-37 -9 -37 -55 v-27q0 -13 28 -27h27q41 36 46 36l9 -18v-9q-25 -46 -73 -46q-73 0 -73 109zM2317 110q18 83 82 83q82 -13 82 -83v-9q-11 -82 -82 -82q-82 21 -82 91zM2353 110q7 -54 28 -54h37q13 0 27 27v27q0 55 -46 55q-41 -18 -46 -37v-18zM2500 47v127q3 19 18 19h9q21 0 46 -119h9 q30 119 55 119q18 -3 18 -19v-127q0 -19 -18 -19q-10 6 -10 82h-9q-18 -82 -36 -82h-9q-21 0 -37 91h-9q0 -91 -18 -91z" />
<glyph unicode="&#xae;" d="M25 184l18 9q24 0 37 -110h9q18 110 45 110q21 0 46 -101h10q6 101 36 101h27q16 0 37 -101h9q13 101 37 101h9q23 0 36 -101h9q18 101 37 101h27q28 0 36 -101q11 0 46 101h9q26 0 46 -101h10q9 101 36 101h9v-19q-24 -146 -55 -146q-23 0 -36 100h-19 q-13 -100 -36 -100q-27 0 -55 137h-9q-21 -137 -46 -137q-30 0 -45 110h-9q-19 -110 -46 -110q-28 0 -46 128q-12 0 -54 -128h-10q-20 0 -46 100h-9q-13 -100 -36 -100h-9q-18 0 -55 156zM655 47l18 9l10 -19l-19 -9zM701 174q3 19 18 19h101q18 -3 18 -19q0 -18 -55 -18 v-109q0 -19 -19 -19q-17 0 -17 19v109q-46 0 -46 18zM810 37q57 156 73 156q24 0 83 -156l-19 -9q-25 0 -27 46h-64q-7 -46 -27 -46zM865 777q21 174 101 174q-9 107 -9 155v82q0 381 191 484q58 27 210 36q82 0 165 -137q73 -51 73 -109v-28q0 -35 -46 -82v-64 q46 -6 46 -27q-55 -9 -55 -92v-81h-18v63q-34 -27 -64 -27h-19q-13 0 -27 27q0 9 9 9q-9 37 -9 65l-18 -10v19q27 65 82 82l55 -19v28l-64 9q-31 0 -64 -28l-9 19q45 24 45 37h-18l-45 -10l-46 10q-10 0 -28 -10q-36 10 -63 10q-12 0 -92 -10q0 10 -9 10l-9 -19l18 -9 l-9 -18v-19q69 19 82 19q82 -29 82 -91l-18 9v-46l9 -46l-27 -18h-27q-83 0 -83 101h-9v-37q0 -210 110 -210q0 -16 100 -37q156 53 156 128h18q0 -17 -27 -73q-10 -145 -10 -173q192 -39 192 -110q9 -15 9 -46v-155q0 -73 9 -191q-18 -42 -36 -46h-9v9l18 27v210 q-21 0 -36 9q0 -182 -247 -182v18q117 18 137 18v9q-446 74 -548 74q0 -48 -27 -55h-10v9l19 37q-35 0 -55 18v-9q0 -14 27 -110q-52 0 -73 420zM875 101h26v9q-9 18 -9 28q-17 -3 -17 -19v-18zM883 768q46 0 46 -36h18q3 45 28 45q-9 18 -9 27h-9q-24 -27 -74 -27v-9z M892 604q3 -19 19 -19l27 36l-18 10q0 -27 -28 -27zM892 631q24 18 46 18v28l-9 18l-18 -9h-10v27h-9v-82zM892 804h9v46h-9v-46zM929 905h9q19 0 19 18v9q-14 0 -28 -27zM938 476h9q19 0 19 18h-9q-19 -3 -19 -18zM938 695h9q19 0 19 18l-19 9l-9 -18v-9zM947 174 q3 19 19 19h228q18 -3 18 -19q0 -18 -46 -18v-109q0 -19 -18 -19t-18 19v109q-46 0 -46 9q-13 -9 -55 -9v-109q0 -19 -17 -19q-19 0 -19 19v109q-46 0 -46 18zM957 667h27q0 19 -18 19zM975 539q18 0 63 -27h10v9q-19 0 -64 28h-9v-10zM984 494l155 -27v9q-16 48 -73 82v-9 q12 0 46 -46v-9q-69 64 -92 64h-8v-9q42 0 82 -55h-10q-9 0 -9 9l-18 -9l-45 9h-28v-9zM984 941q20 -46 73 -64v9q-14 55 -64 55h-9zM993 741h9l10 45v9h-10l-9 -37v-17zM1002 585q14 0 36 -18v9q-9 18 -9 28q-17 -9 -27 -9v-10zM1020 732l28 -19h18l-9 45v37h18l-9 64 l-46 -36l9 -46zM1038 604q10 0 28 -9v36h-28v-27zM1103 1225q18 0 18 18t-18 18v-36zM1157 1261l9 -46h9v46h-18zM1157 1325v18q15 0 110 9q42 -17 45 -36v-10h-9l-45 28q-81 -9 -101 -9zM1175 741q0 -131 174 -183v82q19 -3 19 -19v-63h72q101 0 101 100q9 34 9 83h-9 q-98 -83 -137 -83v9l-18 -9l-28 19q0 -19 -18 -19q0 14 -28 28l-27 -19q-36 24 -36 37l-18 -9l-10 18q10 0 10 9q-28 0 -28 19q9 0 9 8h-18zM1175 804h28v-9l-9 -18h27l-9 18q9 0 9 9q-9 0 -27 10h-19v-10zM1175 859q0 -20 110 -45q0 -11 55 -46q69 18 82 18l-9 -18 q36 5 36 27h19q89 -27 100 -27v18q-10 0 -100 18h-82v19h73v9q-64 13 -64 100l-18 -9h-19q-51 0 -137 46q-9 -63 -9 -83q68 -33 73 -54v-9q-73 54 -110 54v-18zM1203 1179q9 -37 55 -37l9 46l-18 9q-16 -9 -37 -9q0 9 -9 9v-18zM1212 110q12 83 82 83q83 -13 83 -83 q0 -68 -74 -91q-91 12 -91 91zM1231 1252q2 -18 18 -18l9 18h-27zM1249 83q0 -13 27 -27h36q14 0 28 27v45q0 15 -37 37h-18q-14 0 -36 -37v-45zM1249 804q14 0 36 -18v9l-27 19h-9v-10zM1303 1023v9h9l19 -9q16 9 37 9q12 0 27 -26q0 -14 -27 -28h-28q-13 1 -37 45z M1322 841v9l18 -9q13 36 28 36h9q-19 -54 -37 -54t-18 18zM1340 1051v18h37q0 -18 -19 -18h-18zM1377 1197l18 9q0 -14 18 -37v-9q-14 0 -36 37zM1386 101v37q32 55 82 55q73 0 73 -74v-45q-35 -55 -82 -55q-59 0 -73 82zM1413 110q19 -54 36 -54h37q28 9 28 54 q-8 55 -55 55q-27 -1 -46 -55zM1413 704q3 -18 18 -18v9q0 18 -18 18v-9zM1431 1188q12 -46 28 -46h9q13 0 27 27v19q-9 0 -27 9l-9 -18l-19 9h-9zM1468 722h18q0 27 46 27v9h-55l-9 -17q9 0 9 -9q-9 0 -9 -10zM1486 1352l46 -9v19h-46v-10zM1523 1197h9q0 7 9 55v9h-9 q-9 -48 -9 -55v-9zM1550 184l18 9q28 -36 28 -101h18q13 101 37 101h9q20 0 36 -110h9q12 110 37 110q18 -3 18 -19q-40 -146 -55 -146h-9q-21 0 -36 110h-9q-24 -110 -46 -110q-28 0 -55 156zM1596 686q33 -128 55 -128l18 27q-18 0 -18 19h18q0 17 -18 17h-9l9 -17h-9 q-19 0 -19 17l28 37q-9 18 -9 28l18 9l18 -9v9q-18 73 -73 73l-9 -19v-63zM1660 539q18 0 18 19v9q-18 -3 -18 -18v-10zM1760 128q27 65 82 65q83 0 83 -101q-30 -73 -83 -73q-82 0 -82 109zM1797 83q0 -13 27 -27h36q14 0 28 27v45q0 15 -37 37q-54 0 -54 -55v-27z M1933 101v18q0 74 83 74q73 0 73 -74v-45q-35 -55 -82 -55q-59 0 -74 82zM1961 101q18 -42 37 -45h36q28 9 28 54q-8 55 -55 55q-46 -14 -46 -64zM2107 47l18 9q19 -3 19 -19l-19 -9q-18 0 -18 19zM2162 128q27 65 82 65q64 0 64 -55l-18 -10q-31 37 -55 37q-37 -9 -37 -55 v-27q0 -13 28 -27h27q41 36 46 36l9 -18v-9q-25 -46 -73 -46q-73 0 -73 109zM2317 110q18 83 82 83q82 -13 82 -83v-9q-11 -82 -82 -82q-82 21 -82 91zM2353 110q7 -54 28 -54h37q13 0 27 27v27q0 55 -46 55q-41 -18 -46 -37v-18zM2500 47v127q3 19 18 19h9q21 0 46 -119h9 q30 119 55 119q18 -3 18 -19v-127q0 -19 -18 -19q-10 6 -10 82h-9q-18 -82 -36 -82h-9q-21 0 -37 91h-9q0 -91 -18 -91z" />
<glyph unicode="&#xaf;" horiz-adv-x="670" />
<glyph unicode="&#xb1;" horiz-adv-x="1014" />
<glyph unicode="&#xb2;" horiz-adv-x="1014" />
<glyph unicode="&#xb3;" horiz-adv-x="1014" />
<glyph unicode="&#xb4;" d="M25 184l18 9q24 0 37 -110h9q18 110 45 110q21 0 46 -101h10q6 101 36 101h27q16 0 37 -101h9q13 101 37 101h9q23 0 36 -101h9q18 101 37 101h27q28 0 36 -101q11 0 46 101h9q26 0 46 -101h10q9 101 36 101h9v-19q-24 -146 -55 -146q-23 0 -36 100h-19 q-13 -100 -36 -100q-27 0 -55 137h-9q-21 -137 -46 -137q-30 0 -45 110h-9q-19 -110 -46 -110q-28 0 -46 128q-12 0 -54 -128h-10q-20 0 -46 100h-9q-13 -100 -36 -100h-9q-18 0 -55 156zM655 47l18 9l10 -19l-19 -9zM701 174q3 19 18 19h101q18 -3 18 -19q0 -18 -55 -18 v-109q0 -19 -19 -19q-17 0 -17 19v109q-46 0 -46 18zM810 37q57 156 73 156q24 0 83 -156l-19 -9q-25 0 -27 46h-64q-7 -46 -27 -46zM865 777q21 174 101 174q-9 107 -9 155v82q0 381 191 484q58 27 210 36q82 0 165 -137q73 -51 73 -109v-28q0 -35 -46 -82v-64 q46 -6 46 -27q-55 -9 -55 -92v-81h-18v63q-34 -27 -64 -27h-19q-13 0 -27 27q0 9 9 9q-9 37 -9 65l-18 -10v19q27 65 82 82l55 -19v28l-64 9q-31 0 -64 -28l-9 19q45 24 45 37h-18l-45 -10l-46 10q-10 0 -28 -10q-36 10 -63 10q-12 0 -92 -10q0 10 -9 10l-9 -19l18 -9 l-9 -18v-19q69 19 82 19q82 -29 82 -91l-18 9v-46l9 -46l-27 -18h-27q-83 0 -83 101h-9v-37q0 -210 110 -210q0 -16 100 -37q156 53 156 128h18q0 -17 -27 -73q-10 -145 -10 -173q192 -39 192 -110q9 -15 9 -46v-155q0 -73 9 -191q-18 -42 -36 -46h-9v9l18 27v210 q-21 0 -36 9q0 -182 -247 -182v18q117 18 137 18v9q-446 74 -548 74q0 -48 -27 -55h-10v9l19 37q-35 0 -55 18v-9q0 -14 27 -110q-52 0 -73 420zM875 101h26v9q-9 18 -9 28q-17 -3 -17 -19v-18zM883 768q46 0 46 -36h18q3 45 28 45q-9 18 -9 27h-9q-24 -27 -74 -27v-9z M892 604q3 -19 19 -19l27 36l-18 10q0 -27 -28 -27zM892 631q24 18 46 18v28l-9 18l-18 -9h-10v27h-9v-82zM892 804h9v46h-9v-46zM929 905h9q19 0 19 18v9q-14 0 -28 -27zM938 476h9q19 0 19 18h-9q-19 -3 -19 -18zM938 695h9q19 0 19 18l-19 9l-9 -18v-9zM947 174 q3 19 19 19h228q18 -3 18 -19q0 -18 -46 -18v-109q0 -19 -18 -19t-18 19v109q-46 0 -46 9q-13 -9 -55 -9v-109q0 -19 -17 -19q-19 0 -19 19v109q-46 0 -46 18zM957 667h27q0 19 -18 19zM975 539q18 0 63 -27h10v9q-19 0 -64 28h-9v-10zM984 494l155 -27v9q-16 48 -73 82v-9 q12 0 46 -46v-9q-69 64 -92 64h-8v-9q42 0 82 -55h-10q-9 0 -9 9l-18 -9l-45 9h-28v-9zM984 941q20 -46 73 -64v9q-14 55 -64 55h-9zM993 741h9l10 45v9h-10l-9 -37v-17zM1002 585q14 0 36 -18v9q-9 18 -9 28q-17 -9 -27 -9v-10zM1020 732l28 -19h18l-9 45v37h18l-9 64 l-46 -36l9 -46zM1038 604q10 0 28 -9v36h-28v-27zM1103 1225q18 0 18 18t-18 18v-36zM1157 1261l9 -46h9v46h-18zM1157 1325v18q15 0 110 9q42 -17 45 -36v-10h-9l-45 28q-81 -9 -101 -9zM1175 741q0 -131 174 -183v82q19 -3 19 -19v-63h72q101 0 101 100q9 34 9 83h-9 q-98 -83 -137 -83v9l-18 -9l-28 19q0 -19 -18 -19q0 14 -28 28l-27 -19q-36 24 -36 37l-18 -9l-10 18q10 0 10 9q-28 0 -28 19q9 0 9 8h-18zM1175 804h28v-9l-9 -18h27l-9 18q9 0 9 9q-9 0 -27 10h-19v-10zM1175 859q0 -20 110 -45q0 -11 55 -46q69 18 82 18l-9 -18 q36 5 36 27h19q89 -27 100 -27v18q-10 0 -100 18h-82v19h73v9q-64 13 -64 100l-18 -9h-19q-51 0 -137 46q-9 -63 -9 -83q68 -33 73 -54v-9q-73 54 -110 54v-18zM1203 1179q9 -37 55 -37l9 46l-18 9q-16 -9 -37 -9q0 9 -9 9v-18zM1212 110q12 83 82 83q83 -13 83 -83 q0 -68 -74 -91q-91 12 -91 91zM1231 1252q2 -18 18 -18l9 18h-27zM1249 83q0 -13 27 -27h36q14 0 28 27v45q0 15 -37 37h-18q-14 0 -36 -37v-45zM1249 804q14 0 36 -18v9l-27 19h-9v-10zM1303 1023v9h9l19 -9q16 9 37 9q12 0 27 -26q0 -14 -27 -28h-28q-13 1 -37 45z M1322 841v9l18 -9q13 36 28 36h9q-19 -54 -37 -54t-18 18zM1340 1051v18h37q0 -18 -19 -18h-18zM1377 1197l18 9q0 -14 18 -37v-9q-14 0 -36 37zM1386 101v37q32 55 82 55q73 0 73 -74v-45q-35 -55 -82 -55q-59 0 -73 82zM1413 110q19 -54 36 -54h37q28 9 28 54 q-8 55 -55 55q-27 -1 -46 -55zM1413 704q3 -18 18 -18v9q0 18 -18 18v-9zM1431 1188q12 -46 28 -46h9q13 0 27 27v19q-9 0 -27 9l-9 -18l-19 9h-9zM1468 722h18q0 27 46 27v9h-55l-9 -17q9 0 9 -9q-9 0 -9 -10zM1486 1352l46 -9v19h-46v-10zM1523 1197h9q0 7 9 55v9h-9 q-9 -48 -9 -55v-9zM1550 184l18 9q28 -36 28 -101h18q13 101 37 101h9q20 0 36 -110h9q12 110 37 110q18 -3 18 -19q-40 -146 -55 -146h-9q-21 0 -36 110h-9q-24 -110 -46 -110q-28 0 -55 156zM1596 686q33 -128 55 -128l18 27q-18 0 -18 19h18q0 17 -18 17h-9l9 -17h-9 q-19 0 -19 17l28 37q-9 18 -9 28l18 9l18 -9v9q-18 73 -73 73l-9 -19v-63zM1660 539q18 0 18 19v9q-18 -3 -18 -18v-10zM1760 128q27 65 82 65q83 0 83 -101q-30 -73 -83 -73q-82 0 -82 109zM1797 83q0 -13 27 -27h36q14 0 28 27v45q0 15 -37 37q-54 0 -54 -55v-27z M1933 101v18q0 74 83 74q73 0 73 -74v-45q-35 -55 -82 -55q-59 0 -74 82zM1961 101q18 -42 37 -45h36q28 9 28 54q-8 55 -55 55q-46 -14 -46 -64zM2107 47l18 9q19 -3 19 -19l-19 -9q-18 0 -18 19zM2162 128q27 65 82 65q64 0 64 -55l-18 -10q-31 37 -55 37q-37 -9 -37 -55 v-27q0 -13 28 -27h27q41 36 46 36l9 -18v-9q-25 -46 -73 -46q-73 0 -73 109zM2317 110q18 83 82 83q82 -13 82 -83v-9q-11 -82 -82 -82q-82 21 -82 91zM2353 110q7 -54 28 -54h37q13 0 27 27v27q0 55 -46 55q-41 -18 -46 -37v-18zM2500 47v127q3 19 18 19h9q21 0 46 -119h9 q30 119 55 119q18 -3 18 -19v-127q0 -19 -18 -19q-10 6 -10 82h-9q-18 -82 -36 -82h-9q-21 0 -37 91h-9q0 -91 -18 -91z" />
<glyph unicode="&#xb5;" horiz-adv-x="1180" />
<glyph unicode="&#xb7;" horiz-adv-x="508" d="M116 671v116l91 13h38q78 0 155 -116q0 -64 -90 -91l-26 13l-26 -13q-137 44 -142 78z" />
<glyph unicode="&#xb9;" horiz-adv-x="1014" />
<glyph unicode="&#xba;" horiz-adv-x="718" />
<glyph unicode="&#xbc;" horiz-adv-x="1708" />
<glyph unicode="&#xbd;" horiz-adv-x="1964" />
<glyph unicode="&#xbe;" horiz-adv-x="1708" />
<glyph unicode="&#xbf;" horiz-adv-x="748" />
<glyph unicode="&#xc0;" horiz-adv-x="1540" />
<glyph unicode="&#xc1;" horiz-adv-x="1540" />
<glyph unicode="&#xc2;" horiz-adv-x="1540" />
<glyph unicode="&#xc3;" horiz-adv-x="1540" />
<glyph unicode="&#xc4;" horiz-adv-x="1540" />
<glyph unicode="&#xc5;" horiz-adv-x="1540" />
<glyph unicode="&#xc6;" horiz-adv-x="2118" />
<glyph unicode="&#xc7;" horiz-adv-x="1399" />
<glyph unicode="&#xc8;" horiz-adv-x="1151" />
<glyph unicode="&#xc9;" horiz-adv-x="1151" />
<glyph unicode="&#xca;" horiz-adv-x="1151" />
<glyph unicode="&#xcb;" horiz-adv-x="1151" />
<glyph unicode="&#xcc;" horiz-adv-x="657" />
<glyph unicode="&#xcd;" horiz-adv-x="657" />
<glyph unicode="&#xce;" horiz-adv-x="657" />
<glyph unicode="&#xcf;" horiz-adv-x="657" />
<glyph unicode="&#xd0;" horiz-adv-x="1518" />
<glyph unicode="&#xd1;" horiz-adv-x="1554" />
<glyph unicode="&#xd2;" horiz-adv-x="1614" />
<glyph unicode="&#xd3;" horiz-adv-x="1614" />
<glyph unicode="&#xd4;" horiz-adv-x="1614" />
<glyph unicode="&#xd5;" horiz-adv-x="1614" />
<glyph unicode="&#xd6;" horiz-adv-x="1614" />
<glyph unicode="&#xd7;" d="M25 184l18 9q24 0 37 -110h9q18 110 45 110q21 0 46 -101h10q6 101 36 101h27q16 0 37 -101h9q13 101 37 101h9q23 0 36 -101h9q18 101 37 101h27q28 0 36 -101q11 0 46 101h9q26 0 46 -101h10q9 101 36 101h9v-19q-24 -146 -55 -146q-23 0 -36 100h-19 q-13 -100 -36 -100q-27 0 -55 137h-9q-21 -137 -46 -137q-30 0 -45 110h-9q-19 -110 -46 -110q-28 0 -46 128q-12 0 -54 -128h-10q-20 0 -46 100h-9q-13 -100 -36 -100h-9q-18 0 -55 156zM655 47l18 9l10 -19l-19 -9zM701 174q3 19 18 19h101q18 -3 18 -19q0 -18 -55 -18 v-109q0 -19 -19 -19q-17 0 -17 19v109q-46 0 -46 18zM810 37q57 156 73 156q24 0 83 -156l-19 -9q-25 0 -27 46h-64q-7 -46 -27 -46zM865 777q21 174 101 174q-9 107 -9 155v82q0 381 191 484q58 27 210 36q82 0 165 -137q73 -51 73 -109v-28q0 -35 -46 -82v-64 q46 -6 46 -27q-55 -9 -55 -92v-81h-18v63q-34 -27 -64 -27h-19q-13 0 -27 27q0 9 9 9q-9 37 -9 65l-18 -10v19q27 65 82 82l55 -19v28l-64 9q-31 0 -64 -28l-9 19q45 24 45 37h-18l-45 -10l-46 10q-10 0 -28 -10q-36 10 -63 10q-12 0 -92 -10q0 10 -9 10l-9 -19l18 -9 l-9 -18v-19q69 19 82 19q82 -29 82 -91l-18 9v-46l9 -46l-27 -18h-27q-83 0 -83 101h-9v-37q0 -210 110 -210q0 -16 100 -37q156 53 156 128h18q0 -17 -27 -73q-10 -145 -10 -173q192 -39 192 -110q9 -15 9 -46v-155q0 -73 9 -191q-18 -42 -36 -46h-9v9l18 27v210 q-21 0 -36 9q0 -182 -247 -182v18q117 18 137 18v9q-446 74 -548 74q0 -48 -27 -55h-10v9l19 37q-35 0 -55 18v-9q0 -14 27 -110q-52 0 -73 420zM875 101h26v9q-9 18 -9 28q-17 -3 -17 -19v-18zM883 768q46 0 46 -36h18q3 45 28 45q-9 18 -9 27h-9q-24 -27 -74 -27v-9z M892 604q3 -19 19 -19l27 36l-18 10q0 -27 -28 -27zM892 631q24 18 46 18v28l-9 18l-18 -9h-10v27h-9v-82zM892 804h9v46h-9v-46zM929 905h9q19 0 19 18v9q-14 0 -28 -27zM938 476h9q19 0 19 18h-9q-19 -3 -19 -18zM938 695h9q19 0 19 18l-19 9l-9 -18v-9zM947 174 q3 19 19 19h228q18 -3 18 -19q0 -18 -46 -18v-109q0 -19 -18 -19t-18 19v109q-46 0 -46 9q-13 -9 -55 -9v-109q0 -19 -17 -19q-19 0 -19 19v109q-46 0 -46 18zM957 667h27q0 19 -18 19zM975 539q18 0 63 -27h10v9q-19 0 -64 28h-9v-10zM984 494l155 -27v9q-16 48 -73 82v-9 q12 0 46 -46v-9q-69 64 -92 64h-8v-9q42 0 82 -55h-10q-9 0 -9 9l-18 -9l-45 9h-28v-9zM984 941q20 -46 73 -64v9q-14 55 -64 55h-9zM993 741h9l10 45v9h-10l-9 -37v-17zM1002 585q14 0 36 -18v9q-9 18 -9 28q-17 -9 -27 -9v-10zM1020 732l28 -19h18l-9 45v37h18l-9 64 l-46 -36l9 -46zM1038 604q10 0 28 -9v36h-28v-27zM1103 1225q18 0 18 18t-18 18v-36zM1157 1261l9 -46h9v46h-18zM1157 1325v18q15 0 110 9q42 -17 45 -36v-10h-9l-45 28q-81 -9 -101 -9zM1175 741q0 -131 174 -183v82q19 -3 19 -19v-63h72q101 0 101 100q9 34 9 83h-9 q-98 -83 -137 -83v9l-18 -9l-28 19q0 -19 -18 -19q0 14 -28 28l-27 -19q-36 24 -36 37l-18 -9l-10 18q10 0 10 9q-28 0 -28 19q9 0 9 8h-18zM1175 804h28v-9l-9 -18h27l-9 18q9 0 9 9q-9 0 -27 10h-19v-10zM1175 859q0 -20 110 -45q0 -11 55 -46q69 18 82 18l-9 -18 q36 5 36 27h19q89 -27 100 -27v18q-10 0 -100 18h-82v19h73v9q-64 13 -64 100l-18 -9h-19q-51 0 -137 46q-9 -63 -9 -83q68 -33 73 -54v-9q-73 54 -110 54v-18zM1203 1179q9 -37 55 -37l9 46l-18 9q-16 -9 -37 -9q0 9 -9 9v-18zM1212 110q12 83 82 83q83 -13 83 -83 q0 -68 -74 -91q-91 12 -91 91zM1231 1252q2 -18 18 -18l9 18h-27zM1249 83q0 -13 27 -27h36q14 0 28 27v45q0 15 -37 37h-18q-14 0 -36 -37v-45zM1249 804q14 0 36 -18v9l-27 19h-9v-10zM1303 1023v9h9l19 -9q16 9 37 9q12 0 27 -26q0 -14 -27 -28h-28q-13 1 -37 45z M1322 841v9l18 -9q13 36 28 36h9q-19 -54 -37 -54t-18 18zM1340 1051v18h37q0 -18 -19 -18h-18zM1377 1197l18 9q0 -14 18 -37v-9q-14 0 -36 37zM1386 101v37q32 55 82 55q73 0 73 -74v-45q-35 -55 -82 -55q-59 0 -73 82zM1413 110q19 -54 36 -54h37q28 9 28 54 q-8 55 -55 55q-27 -1 -46 -55zM1413 704q3 -18 18 -18v9q0 18 -18 18v-9zM1431 1188q12 -46 28 -46h9q13 0 27 27v19q-9 0 -27 9l-9 -18l-19 9h-9zM1468 722h18q0 27 46 27v9h-55l-9 -17q9 0 9 -9q-9 0 -9 -10zM1486 1352l46 -9v19h-46v-10zM1523 1197h9q0 7 9 55v9h-9 q-9 -48 -9 -55v-9zM1550 184l18 9q28 -36 28 -101h18q13 101 37 101h9q20 0 36 -110h9q12 110 37 110q18 -3 18 -19q-40 -146 -55 -146h-9q-21 0 -36 110h-9q-24 -110 -46 -110q-28 0 -55 156zM1596 686q33 -128 55 -128l18 27q-18 0 -18 19h18q0 17 -18 17h-9l9 -17h-9 q-19 0 -19 17l28 37q-9 18 -9 28l18 9l18 -9v9q-18 73 -73 73l-9 -19v-63zM1660 539q18 0 18 19v9q-18 -3 -18 -18v-10zM1760 128q27 65 82 65q83 0 83 -101q-30 -73 -83 -73q-82 0 -82 109zM1797 83q0 -13 27 -27h36q14 0 28 27v45q0 15 -37 37q-54 0 -54 -55v-27z M1933 101v18q0 74 83 74q73 0 73 -74v-45q-35 -55 -82 -55q-59 0 -74 82zM1961 101q18 -42 37 -45h36q28 9 28 54q-8 55 -55 55q-46 -14 -46 -64zM2107 47l18 9q19 -3 19 -19l-19 -9q-18 0 -18 19zM2162 128q27 65 82 65q64 0 64 -55l-18 -10q-31 37 -55 37q-37 -9 -37 -55 v-27q0 -13 28 -27h27q41 36 46 36l9 -18v-9q-25 -46 -73 -46q-73 0 -73 109zM2317 110q18 83 82 83q82 -13 82 -83v-9q-11 -82 -82 -82q-82 21 -82 91zM2353 110q7 -54 28 -54h37q13 0 27 27v27q0 55 -46 55q-41 -18 -46 -37v-18zM2500 47v127q3 19 18 19h9q21 0 46 -119h9 q30 119 55 119q18 -3 18 -19v-127q0 -19 -18 -19q-10 6 -10 82h-9q-18 -82 -36 -82h-9q-21 0 -37 91h-9q0 -91 -18 -91z" />
<glyph unicode="&#xd8;" horiz-adv-x="1614" />
<glyph unicode="&#xd9;" horiz-adv-x="1501" />
<glyph unicode="&#xda;" horiz-adv-x="1501" />
<glyph unicode="&#xdb;" horiz-adv-x="1501" />
<glyph unicode="&#xdc;" horiz-adv-x="1501" />
<glyph unicode="&#xdd;" horiz-adv-x="1233" />
<glyph unicode="&#xde;" horiz-adv-x="1120" />
<glyph unicode="&#xdf;" horiz-adv-x="1251" />
<glyph unicode="&#xe0;" horiz-adv-x="922" />
<glyph unicode="&#xe1;" horiz-adv-x="922" />
<glyph unicode="&#xe2;" horiz-adv-x="922" />
<glyph unicode="&#xe3;" horiz-adv-x="922" />
<glyph unicode="&#xe4;" horiz-adv-x="922" />
<glyph unicode="&#xe5;" horiz-adv-x="922" />
<glyph unicode="&#xe6;" horiz-adv-x="1454" />
<glyph unicode="&#xe7;" horiz-adv-x="905" />
<glyph unicode="&#xe8;" horiz-adv-x="909" />
<glyph unicode="&#xe9;" horiz-adv-x="909" />
<glyph unicode="&#xea;" horiz-adv-x="909" />
<glyph unicode="&#xeb;" horiz-adv-x="909" />
<glyph unicode="&#xec;" horiz-adv-x="514" />
<glyph unicode="&#xed;" horiz-adv-x="514" />
<glyph unicode="&#xee;" horiz-adv-x="514" />
<glyph unicode="&#xef;" horiz-adv-x="514" />
<glyph unicode="&#xf0;" horiz-adv-x="1139" />
<glyph unicode="&#xf1;" horiz-adv-x="1108" />
<glyph unicode="&#xf2;" horiz-adv-x="1010" />
<glyph unicode="&#xf3;" horiz-adv-x="1010" />
<glyph unicode="&#xf4;" horiz-adv-x="1010" />
<glyph unicode="&#xf5;" horiz-adv-x="1010" />
<glyph unicode="&#xf6;" horiz-adv-x="1010" />
</font>
</defs>
</svg>
